  0
SECTION
  2
HEADER
  9
$ACADVER
  1
AC1009
  9
$DWGCODEPAGE
  3
ansi_1252
  9
$INSBASE
 10
0.0
 20
0.0
 30
0.0
  9
$EXTMIN
 10
443.2650812737832
 20
10.52148453112001
 30
0.0
  9
$EXTMAX
 10
591.5609547509512
 20
102.9769
 30
0.0
  9
$LIMMIN
 10
0.0
 20
0.0
  9
$LIMMAX
 10
12.0
 20
9.0
  9
$ORTHOMODE
 70
     0
  9
$REGENMODE
 70
     1
  9
$FILLMODE
 70
     1
  9
$QTEXTMODE
 70
     0
  9
$MIRRTEXT
 70
     1
  9
$DRAGMODE
 70
     2
  9
$LTSCALE
 40
1.0
  9
$OSMODE
 70
    37
  9
$ATTMODE
 70
     1
  9
$TEXTSIZE
 40
0.2
  9
$TRACEWID
 40
0.05
  9
$TEXTSTYLE
  7
STANDARD
  9
$CLAYER
  8
0
  9
$CELTYPE
  6
BYLAYER
  9
$CECOLOR
 62
   256
  9
$DIMSCALE
 40
1.0
  9
$DIMASZ
 40
0.18
  9
$DIMEXO
 40
0.0625
  9
$DIMDLI
 40
0.38
  9
$DIMRND
 40
0.0
  9
$DIMDLE
 40
0.0
  9
$DIMEXE
 40
0.18
  9
$DIMTP
 40
0.0
  9
$DIMTM
 40
0.0
  9
$DIMTXT
 40
0.18
  9
$DIMCEN
 40
0.09
  9
$DIMTSZ
 40
0.0
  9
$DIMTOL
 70
     0
  9
$DIMLIM
 70
     0
  9
$DIMTIH
 70
     1
  9
$DIMTOH
 70
     1
  9
$DIMSE1
 70
     0
  9
$DIMSE2
 70
     0
  9
$DIMTAD
 70
     0
  9
$DIMZIN
 70
     0
  9
$DIMBLK
  1

  9
$DIMASO
 70
     1
  9
$DIMSHO
 70
     1
  9
$DIMPOST
  1

  9
$DIMAPOST
  1

  9
$DIMALT
 70
     0
  9
$DIMALTD
 70
     2
  9
$DIMALTF
 40
25.4
  9
$DIMLFAC
 40
1.0
  9
$DIMTOFL
 70
     0
  9
$DIMTVP
 40
0.0
  9
$DIMTIX
 70
     0
  9
$DIMSOXD
 70
     0
  9
$DIMSAH
 70
     0
  9
$DIMBLK1
  1

  9
$DIMBLK2
  1

  9
$DIMSTYLE
  2
STANDARD_ACAD
  9
$DIMCLRD
 70
     0
  9
$DIMCLRE
 70
     0
  9
$DIMCLRT
 70
     0
  9
$DIMTFAC
 40
1.0
  9
$DIMGAP
 40
0.09
  9
$LUNITS
 70
     2
  9
$LUPREC
 70
     3
  9
$SKETCHINC
 40
0.1
  9
$FILLETRAD
 40
0.0
  9
$AUNITS
 70
     0
  9
$AUPREC
 70
     0
  9
$MENU
  1
.
  9
$ELEVATION
 40
0.0
  9
$PELEVATION
 40
0.0
  9
$THICKNESS
 40
0.0
  9
$LIMCHECK
 70
     0
  9
$CHAMFERA
 40
0.0
  9
$CHAMFERB
 40
0.0
  9
$SKPOLY
 70
     0
  9
$TDCREATE
 40
2460273.821475648
  9
$TDUPDATE
 40
2460273.821528137
  9
$TDINDWG
 40
0.0000000116
  9
$TDUSRTIMER
 40
0.0000000116
  9
$USRTIMER
 70
     1
  9
$ANGBASE
 50
0.0
  9
$ANGDIR
 70
     0
  9
$PDMODE
 70
     0
  9
$PDSIZE
 40
0.0
  9
$PLINEWID
 40
0.0
  9
$COORDS
 70
     1
  9
$SPLFRAME
 70
     0
  9
$SPLINETYPE
 70
     6
  9
$SPLINESEGS
 70
     8
  9
$ATTDIA
 70
     0
  9
$ATTREQ
 70
     1
  9
$HANDLING
 70
     1
  9
$HANDSEED
  5
3CA
  9
$SURFTAB1
 70
     6
  9
$SURFTAB2
 70
     6
  9
$SURFTYPE
 70
     6
  9
$SURFU
 70
     6
  9
$SURFV
 70
     6
  9
$UCSNAME
  2

  9
$UCSORG
 10
0.0
 20
0.0
 30
0.0
  9
$UCSXDIR
 10
1.0
 20
0.0
 30
0.0
  9
$UCSYDIR
 10
0.0
 20
1.0
 30
0.0
  9
$PUCSNAME
  2

  9
$PUCSORG
 10
0.0
 20
0.0
 30
0.0
  9
$PUCSXDIR
 10
1.0
 20
0.0
 30
0.0
  9
$PUCSYDIR
 10
0.0
 20
1.0
 30
0.0
  9
$USERI1
 70
     0
  9
$USERI2
 70
     0
  9
$USERI3
 70
     0
  9
$USERI4
 70
     0
  9
$USERI5
 70
     0
  9
$USERR1
 40
0.0
  9
$USERR2
 40
0.0
  9
$USERR3
 40
0.0
  9
$USERR4
 40
0.0
  9
$USERR5
 40
0.0
  9
$WORLDVIEW
 70
     1
  9
$SHADEDGE
 70
     3
  9
$SHADEDIF
 70
    70
  9
$TILEMODE
 70
     1
  9
$MAXACTVP
 70
    64
  9
$PLIMCHECK
 70
     0
  9
$PEXTMIN
 10
1.000000000000000E+20
 20
1.000000000000000E+20
 30
1.000000000000000E+20
  9
$PEXTMAX
 10
-1.000000000000000E+20
 20
-1.000000000000000E+20
 30
-1.000000000000000E+20
  9
$PLIMMIN
 10
0.0
 20
0.0
  9
$PLIMMAX
 10
12.0
 20
9.0
  9
$UNITMODE
 70
     0
  9
$VISRETAIN
 70
     1
  9
$PLINEGEN
 70
     0
  9
$PSLTSCALE
 70
     1
  0
ENDSEC
  0
SECTION
  2
TABLES
  0
TABLE
  2
VPORT
 70
     1
  0
VPORT
  2
*ACTIVE
 70
     0
 10
0.0
 20
0.0
 11
1.0
 21
1.0
 12
10.42990654205607
 22
4.5
 13
0.0
 23
0.0
 14
0.5
 24
0.5
 15
0.5
 25
0.5
 16
0.0
 26
0.0
 36
1.0
 17
0.0
 27
0.0
 37
0.0
 40
9.0
 41
1.972972972850329
 42
50.0
 43
0.0
 44
0.0
 50
0.0
 51
0.0
 71
     0
 72
   100
 73
     1
 74
     3
 75
     0
 76
     0
 77
     0
 78
     0
  0
ENDTAB
  0
TABLE
  2
LTYPE
 70
     1
  0
LTYPE
  2
CONTINUOUS
 70
     0
  3
Solid line
 72
    65
 73
     0
 40
0.0
  0
ENDTAB
  0
TABLE
  2
LAYER
 70
     2
  0
LAYER
  2
0
 70
     0
 62
     7
  6
CONTINUOUS
  0
LAYER
  2
LAYER_1
 70
     0
 62
     7
  6
CONTINUOUS
  0
ENDTAB
  0
TABLE
  2
STYLE
 70
     1
  0
STYLE
  2
STANDARD
 70
     0
 40
0.0
 41
1.0
 50
0.0
 71
     0
 42
0.2
  3
txt
  4

  0
ENDTAB
  0
TABLE
  2
VIEW
 70
     0
  0
ENDTAB
  0
TABLE
  2
UCS
 70
     0
  0
ENDTAB
  0
TABLE
  2
APPID
 70
     2
  0
APPID
  2
ACAD
 70
     0
  0
APPID
  2
RHINO
 70
     0
  0
ENDTAB
  0
TABLE
  2
DIMSTYLE
 70
     1
  0
DIMSTYLE
  2
STANDARD_ACAD
 70
     0
  3

  4

  5

  6

  7

 40
1.0
 41
0.18
 42
0.0625
 43
0.38
 44
0.18
 45
0.0
 46
0.0
 47
0.0
 48
0.0
140
0.18
141
0.09
142
0.0
143
25.4
144
1.0
145
0.0
146
1.0
147
0.09
 71
     0
 72
     0
 73
     1
 74
     1
 75
     0
 76
     0
 77
     0
 78
     0
170
     0
171
     2
172
     0
173
     0
174
     0
175
     0
176
     0
177
     0
178
     0
  0
ENDTAB
  0
ENDSEC
  0
SECTION
  2
BLOCKS
  0
BLOCK
  8
0
  2
$MODEL_SPACE
 70
     0
 10
0.0
 20
0.0
 30
0.0
  3
$MODEL_SPACE
  1

  0
ENDBLK
  5
21
  8
0
  0
BLOCK
 67
     1
  8
0
  2
$PAPER_SPACE
 70
     0
 10
0.0
 20
0.0
 30
0.0
  3
$PAPER_SPACE
  1

  0
ENDBLK
  5
1D
 67
     1
  8
0
  0
ENDSEC
  0
SECTION
  2
ENTITIES
  0
CIRCLE
  5
60
  8
LAYER_1
 62
    18
 10
-543.365723445991
 20
43.27540693349534
 30
0.0
 40
0.9894871902427577
210
0.0
220
0.0
230
-1.0
  0
LINE
  5
61
  8
LAYER_1
 62
    18
 10
544.4060750395968
 20
39.2546
 30
0.0
 11
542.3044750395968
 21
39.2546
 31
0.0
  0
LINE
  5
62
  8
LAYER_1
 62
    18
 10
542.3044750395968
 20
39.2546
 30
0.0
 11
542.3044750395968
 21
37.153
 31
0.0
  0
LINE
  5
63
  8
LAYER_1
 62
    18
 10
542.3044750395968
 20
37.153
 30
0.0
 11
544.4060750395968
 21
37.153
 31
0.0
  0
LINE
  5
64
  8
LAYER_1
 62
    18
 10
544.4060750395968
 20
37.153
 30
0.0
 11
544.4060750395968
 21
39.2546
 31
0.0
  0
LINE
  5
65
  8
LAYER_1
 62
    18
 10
470.5654750395967
 20
88.9602
 30
0.0
 11
468.9906750395967
 21
88.9602
 31
0.0
  0
LINE
  5
66
  8
LAYER_1
 62
    18
 10
468.9906750395967
 20
88.9602
 30
0.0
 11
468.9906750395967
 21
87.3854
 31
0.0
  0
LINE
  5
67
  8
LAYER_1
 62
    18
 10
468.9906750395967
 20
87.3854
 30
0.0
 11
470.5654750395967
 21
87.3854
 31
0.0
  0
LINE
  5
68
  8
LAYER_1
 62
    18
 10
470.5654750395967
 20
87.3854
 30
0.0
 11
470.5654750395967
 21
88.9602
 31
0.0
  0
LINE
  5
69
  8
LAYER_1
 62
    18
 10
555.6649750395968
 20
78.5556
 30
0.0
 11
553.5633750395967
 21
78.5556
 31
0.0
  0
LINE
  5
6A
  8
LAYER_1
 62
    18
 10
553.5633750395967
 20
78.5556
 30
0.0
 11
553.5633750395967
 21
76.454
 31
0.0
  0
LINE
  5
6B
  8
LAYER_1
 62
    18
 10
553.5633750395967
 20
76.454
 30
0.0
 11
555.6649750395968
 21
76.454
 31
0.0
  0
LINE
  5
6C
  8
LAYER_1
 62
    18
 10
555.6649750395968
 20
76.454
 30
0.0
 11
555.6649750395968
 21
78.5556
 31
0.0
  0
CIRCLE
  5
6D
  8
LAYER_1
 62
    18
 10
-522.1022065239322
 20
88.68087944771872
 30
0.0
 40
0.4572314912378123
210
0.0
220
0.0
230
-1.0
  0
CIRCLE
  5
6E
  8
LAYER_1
 62
    18
 10
-522.1022065239323
 20
81.06087944771875
 30
0.0
 40
0.457231491237926
210
0.0
220
0.0
230
-1.0
  0
CIRCLE
  5
6F
  8
LAYER_1
 62
    18
 10
-522.1022065239322
 20
75.98087944771873
 30
0.0
 40
0.4572314912378123
210
0.0
220
0.0
230
-1.0
  0
CIRCLE
  5
70
  8
LAYER_1
 62
    18
 10
-522.1022065239322
 20
70.90087944771872
 30
0.0
 40
0.4572314912378123
210
0.0
220
0.0
230
-1.0
  0
CIRCLE
  5
71
  8
LAYER_1
 62
    18
 10
-506.8622065239322
 20
68.36087944771867
 30
0.0
 40
0.4572314912378122
210
0.0
220
0.0
230
-1.0
  0
CIRCLE
  5
72
  8
LAYER_1
 62
    18
 10
-506.8622065239321
 20
70.90087944771867
 30
0.0
 40
0.4572314912377554
210
0.0
220
0.0
230
-1.0
  0
CIRCLE
  5
73
  8
LAYER_1
 62
    18
 10
-506.8622065239322
 20
73.44087944771869
 30
0.0
 40
0.4572314912378122
210
0.0
220
0.0
230
-1.0
  0
CIRCLE
  5
74
  8
LAYER_1
 62
    18
 10
-506.8622065239321
 20
75.98087944771868
 30
0.0
 40
0.4572314912377554
210
0.0
220
0.0
230
-1.0
  0
CIRCLE
  5
75
  8
LAYER_1
 62
    18
 10
-506.8622065239321
 20
78.52087944771867
 30
0.0
 40
0.4572314912377554
210
0.0
220
0.0
230
-1.0
  0
CIRCLE
  5
76
  8
LAYER_1
 62
    18
 10
-506.8622065239322
 20
81.06087944771868
 30
0.0
 40
0.4572314912378122
210
0.0
220
0.0
230
-1.0
  0
CIRCLE
  5
77
  8
LAYER_1
 62
    18
 10
-506.8622065239322
 20
83.60087944771868
 30
0.0
 40
0.4572314912378122
210
0.0
220
0.0
230
-1.0
  0
CIRCLE
  5
78
  8
LAYER_1
 62
    18
 10
-506.8622065239322
 20
86.14087944771867
 30
0.0
 40
0.4572314912378122
210
0.0
220
0.0
230
-1.0
  0
CIRCLE
  5
79
  8
LAYER_1
 62
    18
 10
-561.1352992902497
 20
40.74389032624819
 30
0.0
 40
0.5000242588113629
210
0.0
220
0.0
230
-1.0
  0
CIRCLE
  5
7A
  8
LAYER_1
 62
    18
 10
-561.1352992902497
 20
38.2038903262482
 30
0.0
 40
0.5000242588113629
210
0.0
220
0.0
230
-1.0
  0
CIRCLE
  5
7B
  8
LAYER_1
 62
    18
 10
-543.3553133945102
 20
43.28388687992041
 30
0.0
 40
0.5000383624609274
210
0.0
220
0.0
230
-1.0
  0
CIRCLE
  5
7C
  8
LAYER_1
 62
    18
 10
-543.3553133945101
 20
40.74388687992038
 30
0.0
 40
0.5000383624608137
210
0.0
220
0.0
230
-1.0
  0
CIRCLE
  5
7D
  8
LAYER_1
 62
    18
 10
-543.3552507936512
 20
40.74397144111963
 30
0.0
 40
1.00007576874928
210
0.0
220
0.0
230
-1.0
  0
CIRCLE
  5
7E
  8
LAYER_1
 62
    18
 10
-469.7781065239323
 20
70.5198794477187
 30
0.0
 40
0.457231491237869
210
0.0
220
0.0
230
-1.0
  0
CIRCLE
  5
7F
  8
LAYER_1
 62
    18
 10
-467.2381065239323
 20
70.5198794477187
 30
0.0
 40
0.457231491237869
210
0.0
220
0.0
230
-1.0
  0
CIRCLE
  5
80
  8
LAYER_1
 62
    18
 10
-572.3942169791943
 20
80.04489553472224
 30
0.0
 40
0.5000419487236262
210
0.0
220
0.0
230
-1.0
  0
CIRCLE
  5
81
  8
LAYER_1
 62
    18
 10
-572.3942169791945
 20
77.50489553472228
 30
0.0
 40
0.5000419487238535
210
0.0
220
0.0
230
-1.0
  0
CIRCLE
  5
82
  8
LAYER_1
 62
    18
 10
-554.6142028750878
 20
82.58489898104128
 30
0.0
 40
0.5000278452877971
210
0.0
220
0.0
230
-1.0
  0
CIRCLE
  5
83
  8
LAYER_1
 62
    18
 10
-554.6142507936512
 20
82.58487144111965
 30
0.0
 40
1.000075768749394
210
0.0
220
0.0
230
-1.0
  0
CIRCLE
  5
84
  8
LAYER_1
 62
    18
 10
-554.6142028750878
 20
80.04489898104129
 30
0.0
 40
0.5000278452877971
210
0.0
220
0.0
230
-1.0
  0
CIRCLE
  5
85
  8
LAYER_1
 62
    18
 10
-554.6142507936512
 20
80.04487144111962
 30
0.0
 40
1.000075768749394
210
0.0
220
0.0
230
-1.0
  0
CIRCLE
  5
86
  8
LAYER_1
 62
    18
 10
-561.1352992902497
 20
43.2838903262482
 30
0.0
 40
0.5000242588113629
210
0.0
220
0.0
230
-1.0
  0
CIRCLE
  5
87
  8
LAYER_1
 62
    18
 10
-543.3553133945102
 20
38.20388687992039
 30
0.0
 40
0.5000383624609274
210
0.0
220
0.0
230
-1.0
  0
CIRCLE
  5
88
  8
LAYER_1
 62
    18
 10
-464.6981065239322
 20
70.51987944771868
 30
0.0
 40
0.4572314912378122
210
0.0
220
0.0
230
-1.0
  0
CIRCLE
  5
89
  8
LAYER_1
 62
    18
 10
-572.3942169791944
 20
82.58489553472228
 30
0.0
 40
0.5000419487237399
210
0.0
220
0.0
230
-1.0
  0
CIRCLE
  5
8A
  8
LAYER_1
 62
    18
 10
-554.6142028750878
 20
77.5048989810413
 30
0.0
 40
0.5000278452877971
210
0.0
220
0.0
230
-1.0
  0
CIRCLE
  5
8B
  8
LAYER_1
 62
    18
 10
-498.1614113082191
 20
30.76889753024872
 30
0.0
 40
0.5004362781262227
210
0.0
220
0.0
230
-1.0
  0
CIRCLE
  5
8C
  8
LAYER_1
 62
    18
 10
-495.6214067652676
 20
30.76888656168076
 30
0.0
 40
0.5004317331573249
210
0.0
220
0.0
230
-1.0
  0
CIRCLE
  5
8D
  8
LAYER_1
 62
    18
 10
-493.0813972040811
 20
30.7689009766533
 30
0.0
 40
0.5004221746720309
210
0.0
220
0.0
230
-1.0
  0
CIRCLE
  5
8E
  8
LAYER_1
 62
    18
 10
-490.5413972040811
 20
30.76890097665327
 30
0.0
 40
0.5004221746720309
210
0.0
220
0.0
230
-1.0
  0
CIRCLE
  5
8F
  8
LAYER_1
 62
    18
 10
-488.0013972040811
 20
30.76890097665327
 30
0.0
 40
0.5004221746720309
210
0.0
220
0.0
230
-1.0
  0
LINE
  5
90
  8
LAYER_1
 62
    18
 10
482.3430750395967
 20
30.9208
 30
0.0
 11
482.3430750395967
 21
30.8709
 31
0.0
  0
ARC
  5
91
  8
LAYER_1
 62
    18
 10
-481.8430750395967
 20
30.92078729792144
 30
0.0
 40
0.5000000001613427
 50
0.0014555509844029
 51
179.9985444490156
210
0.0
220
0.0
230
-1.0
  0
LINE
  5
92
  8
LAYER_1
 62
    18
 10
481.3430750395967
 20
30.8709
 30
0.0
 11
481.3430750395967
 21
30.9208
 31
0.0
  0
ARC
  5
93
  8
LAYER_1
 62
    18
 10
-481.8430750395967
 20
30.87067311232852
 30
0.0
 40
0.500000016100481
 50
179.9854597442159
 51
0.014540255784074
210
0.0
220
0.0
230
-1.0
  0
LINE
  5
94
  8
LAYER_1
 62
    18
 10
484.8830750395967
 20
30.9208
 30
0.0
 11
484.8830750395967
 21
30.8709
 31
0.0
  0
ARC
  5
95
  8
LAYER_1
 62
    18
 10
-484.3830750395967
 20
30.92078729792144
 30
0.0
 40
0.5000000001613427
 50
0.0014555509844029
 51
179.9985444490156
210
0.0
220
0.0
230
-1.0
  0
LINE
  5
96
  8
LAYER_1
 62
    18
 10
483.8830750395967
 20
30.8709
 30
0.0
 11
483.8830750395967
 21
30.9208
 31
0.0
  0
ARC
  5
97
  8
LAYER_1
 62
    18
 10
-484.3830750395968
 20
30.87067311232846
 30
0.0
 40
0.5000000161004241
 50
179.9854597442094
 51
0.0145402557905895
210
0.0
220
0.0
230
-1.0
  0
CIRCLE
  5
98
  8
LAYER_1
 62
    18
 10
-506.8619065239322
 20
88.6807794477187
 30
0.0
 40
0.4572314912378123
210
0.0
220
0.0
230
-1.0
  0
CIRCLE
  5
99
  8
LAYER_1
 62
    18
 10
-506.8619065239322
 20
93.76077944771869
 30
0.0
 40
0.4572314912378122
210
0.0
220
0.0
230
-1.0
  0
CIRCLE
  5
9A
  8
LAYER_1
 62
    18
 10
-467.2379065239322
 20
88.17277944771867
 30
0.0
 40
0.4572314912378122
210
0.0
220
0.0
230
-1.0
  0
CIRCLE
  5
9B
  8
LAYER_1
 62
    18
 10
-469.7781065239322
 20
88.17287944771867
 30
0.0
 40
0.4572314912378122
210
0.0
220
0.0
230
-1.0
  0
CIRCLE
  5
9C
  8
LAYER_1
 62
    18
 10
-464.7117065239322
 20
88.17277944771868
 30
0.0
 40
0.4572314912378122
210
0.0
220
0.0
230
-1.0
  0
LINE
  5
9D
  8
LAYER_1
 62
    18
 10
522.6561750395967
 20
80.3516
 30
0.0
 11
525.0016750395977
 21
79.36869999999911
 31
0.0
  0
LINE
  5
9E
  8
LAYER_1
 62
    18
 10
525.0016750395977
 20
79.36869999999911
 30
0.0
 11
548.8451863631469
 21
56.91832506691006
 31
0.0
  0
LINE
  5
9F
  8
LAYER_1
 62
    18
 10
548.8451863631469
 20
56.91832506691006
 30
0.0
 11
548.8462750395968
 21
56.91729999999996
 31
0.0
  0
LINE
  5
A0
  8
LAYER_1
 62
    18
 10
548.8462750395968
 20
56.91729999999996
 30
0.0
 11
548.840075039597
 21
52.52726054879759
 31
0.0
  0
LINE
  5
A1
  8
LAYER_1
 62
    18
 10
548.840075039597
 20
52.52726054879759
 30
0.0
 11
548.8400750395971
 21
52.52709999999961
 31
0.0
  0
LINE
  5
A2
  8
LAYER_1
 62
    18
 10
548.8400750395971
 20
52.52709999999961
 30
0.0
 11
558.5237750395968
 21
42.8435
 31
0.0
  0
LINE
  5
A3
  8
LAYER_1
 62
    18
 10
558.5237750395968
 20
42.8435
 30
0.0
 11
560.0844037824847
 21
42.84349999999998
 31
0.0
  0
LINE
  5
A4
  8
LAYER_1
 62
    18
 10
560.0844037824847
 20
42.84349999999998
 30
0.0
 11
560.0844750395968
 21
42.84349999999997
 31
0.0
  0
LINE
  5
A5
  8
LAYER_1
 62
    18
 10
560.0844750395968
 20
42.84349999999997
 30
0.0
 11
560.0844750395968
 21
42.233
 31
0.0
  0
LINE
  5
A6
  8
LAYER_1
 62
    18
 10
560.0844750395968
 20
42.233
 30
0.0
 11
562.1860750395967
 21
42.23300000000008
 31
0.0
  0
LINE
  5
A7
  8
LAYER_1
 62
    18
 10
562.1860750395967
 20
42.23300000000008
 30
0.0
 11
562.1860750395967
 21
44.3346
 31
0.0
  0
LINE
  5
A8
  8
LAYER_1
 62
    18
 10
562.1860750395967
 20
44.3346
 30
0.0
 11
560.0844750395968
 21
44.33459999999997
 31
0.0
  0
LINE
  5
A9
  8
LAYER_1
 62
    18
 10
560.0844750395968
 20
44.33459999999997
 30
0.0
 11
560.0844750395967
 21
43.7235
 31
0.0
  0
LINE
  5
AA
  8
LAYER_1
 62
    18
 10
560.0844750395967
 20
43.7235
 30
0.0
 11
558.8882750395964
 21
43.72350000000037
 31
0.0
  0
LINE
  5
AB
  8
LAYER_1
 62
    18
 10
558.8882750395964
 20
43.72350000000037
 30
0.0
 11
549.7200750395967
 21
52.89160000000012
 31
0.0
  0
LINE
  5
AC
  8
LAYER_1
 62
    18
 10
549.7200750395967
 20
52.89160000000012
 30
0.0
 11
549.7200750395967
 21
56.04030000000004
 31
0.0
  0
LINE
  5
AD
  8
LAYER_1
 62
    18
 10
549.7200750395967
 20
56.04030000000004
 30
0.0
 11
549.7289750395968
 21
57.29490000000001
 31
0.0
  0
LINE
  5
AE
  8
LAYER_1
 62
    18
 10
549.7289750395968
 20
57.29490000000001
 30
0.0
 11
549.5892750395958
 21
57.42640000000091
 31
0.0
  0
LINE
  5
AF
  8
LAYER_1
 62
    18
 10
549.5892750395958
 20
57.42640000000091
 30
0.0
 11
525.4888750395967
 21
80.11870000000002
 31
0.0
  0
LINE
  5
B0
  8
LAYER_1
 62
    18
 10
525.4888750395967
 20
80.11870000000002
 30
0.0
 11
522.9960750395967
 21
81.1633
 31
0.0
  0
ARC
  5
B1
  8
LAYER_1
 62
    18
 10
522.1019341892065
 20
81.06070547621955
 30
0.0
 40
0.900007498105529
 50
6.545544266457608
 51
308.0113843566527
  0
LINE
  5
B2
  8
LAYER_1
 62
    18
 10
521.8580750395968
 20
70.0344
 30
0.0
 11
518.1844750395967
 21
66.36079999999976
 31
0.0
  0
LINE
  5
B3
  8
LAYER_1
 62
    18
 10
518.1844750395967
 20
66.36079999999976
 30
0.0
 11
518.1844750395964
 21
54.06219999999962
 31
0.0
  0
LINE
  5
B4
  8
LAYER_1
 62
    18
 10
518.1844750395964
 20
54.06219999999962
 30
0.0
 11
498.6815750395967
 21
34.55779999999995
 31
0.0
  0
LINE
  5
B5
  8
LAYER_1
 62
    18
 10
498.6815750395967
 20
34.55779999999995
 30
0.0
 11
498.6305750395968
 21
32.0787
 31
0.0
  0
LINE
  5
B6
  8
LAYER_1
 62
    18
 10
498.6305750395968
 20
32.0787
 30
0.0
 11
498.9613750395968
 21
32.07869999999995
 31
0.0
  0
LINE
  5
B7
  8
LAYER_1
 62
    18
 10
498.9613750395968
 20
32.07869999999995
 30
0.0
 11
498.9613750395968
 21
29.45881962173697
 31
0.0
  0
LINE
  5
B8
  8
LAYER_1
 62
    18
 10
498.9613750395968
 20
29.45881962173697
 30
0.0
 11
498.9613750395967
 21
29.4587
 31
0.0
  0
LINE
  5
B9
  8
LAYER_1
 62
    18
 10
498.9613750395967
 20
29.4587
 30
0.0
 11
497.3614480910392
 21
29.45870000000005
 31
0.0
  0
LINE
  5
BA
  8
LAYER_1
 62
    18
 10
497.3614480910392
 20
29.45870000000005
 30
0.0
 11
497.3613750395967
 21
29.45870000000005
 31
0.0
  0
LINE
  5
BB
  8
LAYER_1
 62
    18
 10
497.3613750395967
 20
29.45870000000005
 30
0.0
 11
497.3613750395967
 21
32.0787
 31
0.0
  0
LINE
  5
BC
  8
LAYER_1
 62
    18
 10
497.3613750395967
 20
32.0787
 30
0.0
 11
497.7503750395967
 21
32.07870000000005
 31
0.0
  0
LINE
  5
BD
  8
LAYER_1
 62
    18
 10
497.7503750395967
 20
32.07870000000005
 30
0.0
 11
497.8090750395971
 21
34.92980000000038
 31
0.0
  0
LINE
  5
BE
  8
LAYER_1
 62
    18
 10
497.8090750395971
 20
34.92980000000038
 30
0.0
 11
517.3044750395968
 21
54.42670000000024
 31
0.0
  0
LINE
  5
BF
  8
LAYER_1
 62
    18
 10
517.3044750395968
 20
54.42670000000024
 30
0.0
 11
517.3044750395968
 21
66.72530000000002
 31
0.0
  0
LINE
  5
C0
  8
LAYER_1
 62
    18
 10
517.3044750395968
 20
66.72530000000002
 30
0.0
 11
521.2356750395968
 21
70.6565
 31
0.0
  0
ARC
  5
C1
  8
LAYER_1
 62
    18
 10
-522.1019504705779
 20
70.90065385445608
 30
0.0
 40
0.9000245702019688
 50
344.2598696907205
 51
285.7217161106628
210
0.0
220
0.0
230
-1.0
  0
LINE
  5
C2
  8
LAYER_1
 62
    18
 10
507.1061750395967
 20
75.1145
 30
0.0
 11
514.3052750395967
 21
67.91539999999976
 31
0.0
  0
LINE
  5
C3
  8
LAYER_1
 62
    18
 10
514.3052750395967
 20
67.91539999999976
 30
0.0
 11
514.3052750395964
 21
55.92599999999963
 31
0.0
  0
LINE
  5
C4
  8
LAYER_1
 62
    18
 10
514.3052750395964
 20
55.92599999999963
 30
0.0
 11
495.1825750395968
 21
36.80329999999991
 31
0.0
  0
LINE
  5
C5
  8
LAYER_1
 62
    18
 10
495.1825750395968
 20
36.80329999999991
 30
0.0
 11
495.1825750395968
 21
32.0787
 31
0.0
  0
LINE
  5
C6
  8
LAYER_1
 62
    18
 10
495.1825750395968
 20
32.0787
 30
0.0
 11
494.8213750395968
 21
32.07869999999995
 31
0.0
  0
LINE
  5
C7
  8
LAYER_1
 62
    18
 10
494.8213750395968
 20
32.07869999999995
 30
0.0
 11
494.8213750395968
 21
29.4587
 31
0.0
  0
LINE
  5
C8
  8
LAYER_1
 62
    18
 10
494.8213750395968
 20
29.4587
 30
0.0
 11
496.4213750395967
 21
29.45870000000005
 31
0.0
  0
LINE
  5
C9
  8
LAYER_1
 62
    18
 10
496.4213750395967
 20
29.45870000000005
 30
0.0
 11
496.4213750395967
 21
32.0787
 31
0.0
  0
LINE
  5
CA
  8
LAYER_1
 62
    18
 10
496.4213750395967
 20
32.0787
 30
0.0
 11
496.0625750395968
 21
32.07870000000008
 31
0.0
  0
LINE
  5
CB
  8
LAYER_1
 62
    18
 10
496.0625750395968
 20
32.07870000000008
 30
0.0
 11
496.0625750395972
 21
36.43880000000038
 31
0.0
  0
LINE
  5
CC
  8
LAYER_1
 62
    18
 10
496.0625750395972
 20
36.43880000000038
 30
0.0
 11
515.1852750395967
 21
55.56150000000025
 31
0.0
  0
LINE
  5
CD
  8
LAYER_1
 62
    18
 10
515.1852750395967
 20
55.56150000000025
 30
0.0
 11
515.1852750395967
 21
68.27990000000003
 31
0.0
  0
LINE
  5
CE
  8
LAYER_1
 62
    18
 10
515.1852750395967
 20
68.27990000000003
 30
0.0
 11
507.7282750395967
 21
75.7369
 31
0.0
  0
ARC
  5
CF
  8
LAYER_1
 62
    18
 10
506.8619067642832
 20
75.98075060904958
 30
0.0
 40
0.9000317261094438
 50
344.2800536855014
 51
285.7475698316163
  0
LINE
  5
D0
  8
LAYER_1
 62
    18
 10
507.7282750395967
 20
73.1969
 30
0.0
 11
512.1852750395967
 21
68.73979999999978
 31
0.0
  0
LINE
  5
D1
  8
LAYER_1
 62
    18
 10
512.1852750395967
 20
68.73979999999978
 30
0.0
 11
512.1852750395964
 21
57.06259999999963
 31
0.0
  0
LINE
  5
D2
  8
LAYER_1
 62
    18
 10
512.1852750395964
 20
57.06259999999963
 30
0.0
 11
493.5225750395967
 21
38.39709999999987
 31
0.0
  0
LINE
  5
D3
  8
LAYER_1
 62
    18
 10
493.5225750395967
 20
38.39709999999987
 30
0.0
 11
493.5225750395967
 21
32.07898848014612
 31
0.0
  0
LINE
  5
D4
  8
LAYER_1
 62
    18
 10
493.5225750395967
 20
32.07898848014612
 30
0.0
 11
493.5225750395968
 21
32.0787
 31
0.0
  0
LINE
  5
D5
  8
LAYER_1
 62
    18
 10
493.5225750395968
 20
32.0787
 30
0.0
 11
493.8813586578108
 21
32.07869999999996
 31
0.0
  0
LINE
  5
D6
  8
LAYER_1
 62
    18
 10
493.8813586578108
 20
32.07869999999996
 30
0.0
 11
493.8813750395968
 21
32.07869999999995
 31
0.0
  0
LINE
  5
D7
  8
LAYER_1
 62
    18
 10
493.8813750395968
 20
32.07869999999995
 30
0.0
 11
493.8813750395968
 21
29.4587
 31
0.0
  0
LINE
  5
D8
  8
LAYER_1
 62
    18
 10
493.8813750395968
 20
29.4587
 30
0.0
 11
492.2813750395968
 21
29.45870000000005
 31
0.0
  0
LINE
  5
D9
  8
LAYER_1
 62
    18
 10
492.2813750395968
 20
29.45870000000005
 30
0.0
 11
492.2813750395968
 21
32.0787
 31
0.0
  0
LINE
  5
DA
  8
LAYER_1
 62
    18
 10
492.2813750395968
 20
32.0787
 30
0.0
 11
492.6425750395967
 21
32.07870000000013
 31
0.0
  0
LINE
  5
DB
  8
LAYER_1
 62
    18
 10
492.6425750395967
 20
32.07870000000013
 30
0.0
 11
492.6425750395971
 21
38.76160000000037
 31
0.0
  0
LINE
  5
DC
  8
LAYER_1
 62
    18
 10
492.6425750395971
 20
38.76160000000037
 30
0.0
 11
511.3052750395967
 21
57.42710000000022
 31
0.0
  0
LINE
  5
DD
  8
LAYER_1
 62
    18
 10
511.3052750395967
 20
57.42710000000022
 30
0.0
 11
511.3052750395967
 21
68.37530000000001
 31
0.0
  0
LINE
  5
DE
  8
LAYER_1
 62
    18
 10
511.3052750395967
 20
68.37530000000001
 30
0.0
 11
507.1061750395967
 21
72.5745
 31
0.0
  0
ARC
  5
DF
  8
LAYER_1
 62
    18
 10
-506.8619436365801
 20
73.44071375452556
 30
0.0
 40
0.8999862480886754
 50
254.254052685867
 51
195.7183237970344
210
0.0
220
0.0
230
-1.0
  0
LINE
  5
E0
  8
LAYER_1
 62
    18
 10
507.7282750395967
 20
70.6569
 30
0.0
 11
509.1842750395967
 21
69.20099999999975
 31
0.0
  0
LINE
  5
E1
  8
LAYER_1
 62
    18
 10
509.1842750395967
 20
69.20099999999975
 30
0.0
 11
509.1842750395964
 21
57.06099999999964
 31
0.0
  0
LINE
  5
E2
  8
LAYER_1
 62
    18
 10
509.1842750395964
 20
57.06099999999964
 30
0.0
 11
490.9825750395967
 21
38.85939999999987
 31
0.0
  0
LINE
  5
E3
  8
LAYER_1
 62
    18
 10
490.9825750395967
 20
38.85939999999987
 30
0.0
 11
490.9825750395967
 21
32.1203
 31
0.0
  0
LINE
  5
E4
  8
LAYER_1
 62
    18
 10
490.9825750395967
 20
32.1203
 30
0.0
 11
491.3568750395967
 21
32.12029999999995
 31
0.0
  0
LINE
  5
E5
  8
LAYER_1
 62
    18
 10
491.3568750395967
 20
32.12029999999995
 30
0.0
 11
491.3568750395967
 21
29.41722342041198
 31
0.0
  0
LINE
  5
E6
  8
LAYER_1
 62
    18
 10
491.3568750395967
 20
29.41722342041198
 30
0.0
 11
491.3568750395967
 21
29.4171
 31
0.0
  0
LINE
  5
E7
  8
LAYER_1
 62
    18
 10
491.3568750395967
 20
29.4171
 30
0.0
 11
489.7259495064109
 21
29.41710000000005
 31
0.0
  0
LINE
  5
E8
  8
LAYER_1
 62
    18
 10
489.7259495064109
 20
29.41710000000005
 30
0.0
 11
489.7258750395968
 21
29.41710000000005
 31
0.0
  0
LINE
  5
E9
  8
LAYER_1
 62
    18
 10
489.7258750395968
 20
29.41710000000005
 30
0.0
 11
489.7258750395968
 21
32.1203
 31
0.0
  0
LINE
  5
EA
  8
LAYER_1
 62
    18
 10
489.7258750395968
 20
32.1203
 30
0.0
 11
490.1025750395967
 21
32.12030000000014
 31
0.0
  0
LINE
  5
EB
  8
LAYER_1
 62
    18
 10
490.1025750395967
 20
32.12030000000014
 30
0.0
 11
490.1025750395971
 21
39.22390000000036
 31
0.0
  0
LINE
  5
EC
  8
LAYER_1
 62
    18
 10
490.1025750395971
 20
39.22390000000036
 30
0.0
 11
508.3042750395967
 21
57.42550000000022
 31
0.0
  0
LINE
  5
ED
  8
LAYER_1
 62
    18
 10
508.3042750395967
 20
57.42550000000022
 30
0.0
 11
508.3042750395967
 21
68.8365
 31
0.0
  0
LINE
  5
EE
  8
LAYER_1
 62
    18
 10
508.3042750395967
 20
68.8365
 30
0.0
 11
507.1061750395967
 21
70.0345
 31
0.0
  0
ARC
  5
EF
  8
LAYER_1
 62
    18
 10
-506.8619621035551
 20
70.90069529645164
 30
0.0
 40
0.8999634713281709
 50
254.2548653627149
 51
195.717511120175
210
0.0
220
0.0
230
-1.0
  0
LINE
  5
F0
  8
LAYER_1
 62
    18
 10
505.9685750395968
 20
68.6022
 30
0.0
 11
504.0124750395966
 21
68.14089999999973
 31
0.0
  0
LINE
  5
F1
  8
LAYER_1
 62
    18
 10
504.0124750395966
 20
68.14089999999973
 30
0.0
 11
487.3045379112595
 21
49.91213231162561
 31
0.0
  0
LINE
  5
F2
  8
LAYER_1
 62
    18
 10
487.3045379112595
 20
49.91213231162561
 30
0.0
 11
487.3037750395968
 21
49.91129999999974
 31
0.0
  0
LINE
  5
F3
  8
LAYER_1
 62
    18
 10
487.3037750395968
 20
49.91129999999974
 30
0.0
 11
487.5448750395968
 21
32.0787
 31
0.0
  0
LINE
  5
F4
  8
LAYER_1
 62
    18
 10
487.5448750395968
 20
32.0787
 30
0.0
 11
487.2013750395968
 21
32.07869999999996
 31
0.0
  0
LINE
  5
F5
  8
LAYER_1
 62
    18
 10
487.2013750395968
 20
32.07869999999996
 30
0.0
 11
487.2013750395968
 21
29.45881962173936
 31
0.0
  0
LINE
  5
F6
  8
LAYER_1
 62
    18
 10
487.2013750395968
 20
29.45881962173936
 30
0.0
 11
487.2013750395968
 21
29.4587
 31
0.0
  0
LINE
  5
F7
  8
LAYER_1
 62
    18
 10
487.2013750395968
 20
29.4587
 30
0.0
 11
488.8013019881528
 21
29.45870000000004
 31
0.0
  0
LINE
  5
F8
  8
LAYER_1
 62
    18
 10
488.8013019881528
 20
29.45870000000004
 30
0.0
 11
488.8013750395967
 21
29.45870000000004
 31
0.0
  0
LINE
  5
F9
  8
LAYER_1
 62
    18
 10
488.8013750395967
 20
29.45870000000004
 30
0.0
 11
488.8013750395967
 21
32.0787
 31
0.0
  0
LINE
  5
FA
  8
LAYER_1
 62
    18
 10
488.8013750395967
 20
32.0787
 30
0.0
 11
488.4248750395968
 21
32.07870000000025
 31
0.0
  0
LINE
  5
FB
  8
LAYER_1
 62
    18
 10
488.4248750395968
 20
32.07870000000025
 30
0.0
 11
488.188375039597
 21
49.57410000000026
 31
0.0
  0
LINE
  5
FC
  8
LAYER_1
 62
    18
 10
488.188375039597
 20
49.57410000000026
 30
0.0
 11
504.4781750395967
 21
67.3466
 31
0.0
  0
LINE
  5
FD
  8
LAYER_1
 62
    18
 10
504.4781750395967
 20
67.3466
 30
0.0
 11
506.1704750395967
 21
67.7457
 31
0.0
  0
ARC
  5
FE
  8
LAYER_1
 62
    18
 10
506.8491885497742
 20
68.3576661250349
 30
0.0
 40
0.913934882971804
 50
222.0442469740105
 51
164.4807810777563
  0
LINE
  5
FF
  8
LAYER_1
 62
    18
 10
507.7613750395967
 20
86.1093
 30
0.0
 11
517.8518750395974
 21
91.3037
 31
0.0
  0
LINE
  5
100
  8
LAYER_1
 62
    18
 10
517.8518750395974
 20
91.3037
 30
0.0
 11
562.5633750395968
 21
91.30249999999988
 31
0.0
  0
LINE
  5
101
  8
LAYER_1
 62
    18
 10
562.5633750395968
 20
91.30249999999988
 30
0.0
 11
569.9540750395968
 21
83.91269999999999
 31
0.0
  0
LINE
  5
102
  8
LAYER_1
 62
    18
 10
569.9540750395968
 20
83.91269999999999
 30
0.0
 11
571.3941750395968
 21
82.80099999999999
 31
0.0
  0
LINE
  5
103
  8
LAYER_1
 62
    18
 10
571.3941750395968
 20
82.80099999999999
 30
0.0
 11
571.3941750395968
 21
81.5849
 31
0.0
  0
LINE
  5
104
  8
LAYER_1
 62
    18
 10
571.3941750395968
 20
81.5849
 30
0.0
 11
573.3941750395968
 21
81.58490000000003
 31
0.0
  0
LINE
  5
105
  8
LAYER_1
 62
    18
 10
573.3941750395968
 20
81.58490000000003
 30
0.0
 11
573.3941750395967
 21
83.5849
 31
0.0
  0
LINE
  5
106
  8
LAYER_1
 62
    18
 10
573.3941750395967
 20
83.5849
 30
0.0
 11
571.8188750395967
 21
83.58490000000002
 31
0.0
  0
LINE
  5
107
  8
LAYER_1
 62
    18
 10
571.8188750395967
 20
83.58490000000002
 30
0.0
 11
570.5364750395967
 21
84.57480000000012
 31
0.0
  0
LINE
  5
108
  8
LAYER_1
 62
    18
 10
570.5364750395967
 20
84.57480000000012
 30
0.0
 11
562.9281224311683
 21
92.18215265408496
 31
0.0
  0
LINE
  5
109
  8
LAYER_1
 62
    18
 10
562.9281224311683
 20
92.18215265408496
 30
0.0
 11
562.927775039596
 21
92.1825
 31
0.0
  0
LINE
  5
10A
  8
LAYER_1
 62
    18
 10
562.927775039596
 20
92.1825
 30
0.0
 11
517.640742810918
 21
92.1836999452114
 31
0.0
  0
LINE
  5
10B
  8
LAYER_1
 62
    18
 10
517.640742810918
 20
92.1836999452114
 30
0.0
 11
517.6386750395967
 21
92.18369999999997
 31
0.0
  0
LINE
  5
10C
  8
LAYER_1
 62
    18
 10
517.6386750395967
 20
92.18369999999997
 30
0.0
 11
507.3582750395967
 21
86.8915
 31
0.0
  0
ARC
  5
10D
  8
LAYER_1
 62
    18
 10
506.8724806139466
 20
86.1461782781801
 30
0.0
 40
0.8896632469700491
 50
56.90402968040092
 51
357.6178517007303
  0
LINE
  5
10E
  8
LAYER_1
 62
    18
 10
465.5952750395967
 20
87.8978
 30
0.0
 11
473.3105750395968
 21
80.1826
 31
0.0
  0
LINE
  5
10F
  8
LAYER_1
 62
    18
 10
473.3105750395968
 20
80.1826
 30
0.0
 11
504.1406750395968
 21
80.1837
 31
0.0
  0
LINE
  5
110
  8
LAYER_1
 62
    18
 10
504.1406750395968
 20
80.1837
 30
0.0
 11
505.9627750395967
 21
81.1008
 31
0.0
  0
ARC
  5
111
  8
LAYER_1
 62
    18
 10
-464.7116678582946
 20
88.1727139545125
 30
0.0
 40
0.9253860455153397
 50
254.0620682105497
 51
197.2823226621143
210
0.0
220
0.0
230
-1.0
  0
LINE
  5
112
  8
LAYER_1
 62
    18
 10
506.3583750395968
 20
80.3147
 30
0.0
 11
504.3496750395967
 21
79.3037
 31
0.0
  0
LINE
  5
113
  8
LAYER_1
 62
    18
 10
504.3496750395967
 20
79.3037
 30
0.0
 11
472.9460750395967
 21
79.3026
 31
0.0
  0
LINE
  5
114
  8
LAYER_1
 62
    18
 10
472.9460750395967
 20
79.3026
 30
0.0
 11
464.9657750395967
 21
87.2829
 31
0.0
  0
ARC
  5
115
  8
LAYER_1
 62
    18
 10
-506.8618832859854
 20
81.06067907043796
 30
0.0
 40
0.9000029598356437
 50
2.555016027257983
 51
304.0178922687998
210
0.0
220
0.0
230
-1.0
  0
LINE
  5
116
  8
LAYER_1
 62
    18
 10
470.0219750395967
 20
71.386
 30
0.0
 11
474.3196750395969
 21
75.6837
 31
0.0
  0
LINE
  5
117
  8
LAYER_1
 62
    18
 10
474.3196750395969
 20
75.6837
 30
0.0
 11
502.5629750395967
 21
75.68370000000002
 31
0.0
  0
LINE
  5
118
  8
LAYER_1
 62
    18
 10
502.5629750395967
 20
75.68370000000002
 30
0.0
 11
503.9635750395968
 21
77.0843
 31
0.0
  0
LINE
  5
119
  8
LAYER_1
 62
    18
 10
503.9635750395968
 20
77.0843
 30
0.0
 11
505.9651750395967
 21
78.4436
 31
0.0
  0
ARC
  5
11A
  8
LAYER_1
 62
    18
 10
-469.777855736512
 20
70.51961991743644
 30
0.0
 40
0.9000196751098793
 50
164.2712749418042
 51
105.7379328973901
210
0.0
220
0.0
230
-1.0
  0
LINE
  5
11B
  8
LAYER_1
 62
    18
 10
506.4595750395968
 20
77.7156
 30
0.0
 11
504.5268750395967
 21
76.4031
 31
0.0
  0
LINE
  5
11C
  8
LAYER_1
 62
    18
 10
504.5268750395967
 20
76.4031
 30
0.0
 11
502.9275750395967
 21
74.8037
 31
0.0
  0
LINE
  5
11D
  8
LAYER_1
 62
    18
 10
502.9275750395967
 20
74.8037
 30
0.0
 11
474.6841750395968
 21
74.8037
 31
0.0
  0
LINE
  5
11E
  8
LAYER_1
 62
    18
 10
474.6841750395968
 20
74.8037
 30
0.0
 11
470.6441750395967
 21
70.7637
 31
0.0
  0
ARC
  5
11F
  8
LAYER_1
 62
    18
 10
-506.8618865141096
 20
78.52069680357046
 30
0.0
 40
0.9000196584763172
 50
355.0859499496071
 51
296.5515605949843
210
0.0
220
0.0
230
-1.0
  0
LINE
  5
120
  8
LAYER_1
 62
    18
 10
507.5727750395968
 20
94.3533
 30
0.0
 11
511.701475039597
 21
95.1837
 31
0.0
  0
LINE
  5
121
  8
LAYER_1
 62
    18
 10
511.701475039597
 20
95.1837
 30
0.0
 11
565.9250750395968
 21
95.18479999999994
 31
0.0
  0
LINE
  5
122
  8
LAYER_1
 62
    18
 10
565.9250750395968
 20
95.18479999999994
 30
0.0
 11
578.1837153194058
 21
82.92605972475656
 31
0.0
  0
LINE
  5
123
  8
LAYER_1
 62
    18
 10
578.1837153194058
 20
82.92605972475656
 30
0.0
 11
578.1842750395967
 21
82.92549999999984
 31
0.0
  0
LINE
  5
124
  8
LAYER_1
 62
    18
 10
578.1842750395967
 20
82.92549999999984
 30
0.0
 11
578.1868749208882
 21
49.56282331444099
 31
0.0
  0
LINE
  5
125
  8
LAYER_1
 62
    18
 10
578.1868749208882
 20
49.56282331444099
 30
0.0
 11
578.1868750395967
 21
49.56129999999995
 31
0.0
  0
LINE
  5
126
  8
LAYER_1
 62
    18
 10
578.1868750395967
 20
49.56129999999995
 30
0.0
 11
566.3873750395967
 21
37.7643
 31
0.0
  0
LINE
  5
127
  8
LAYER_1
 62
    18
 10
566.3873750395967
 20
37.7643
 30
0.0
 11
562.0333750395968
 21
37.7643
 31
0.0
  0
ARC
  5
128
  8
LAYER_1
 62
    18
 10
-506.8623114676818
 20
93.73149425785635
 30
0.0
 40
0.9440744233547931
 50
39.71273100712435
 51
138.8117858132306
210
0.0
220
0.0
230
-1.0
  0
LINE
  5
129
  8
LAYER_1
 62
    18
 10
481.3681750395967
 20
32.4982
 30
0.0
 11
481.2801750395965
 21
36.5427000000002
 31
0.0
  0
LINE
  5
12A
  8
LAYER_1
 62
    18
 10
481.2801750395965
 20
36.5427000000002
 30
0.0
 11
464.2580750395967
 21
52.42160000000021
 31
0.0
  0
LINE
  5
12B
  8
LAYER_1
 62
    18
 10
464.2580750395967
 20
52.42160000000021
 30
0.0
 11
464.2580750395967
 21
69.6197
 31
0.0
  0
LINE
  5
12C
  8
LAYER_1
 62
    18
 10
464.2580750395967
 20
69.6197
 30
0.0
 11
463.8480750395967
 21
69.61970000000001
 31
0.0
  0
LINE
  5
12D
  8
LAYER_1
 62
    18
 10
463.8480750395967
 20
69.61970000000001
 30
0.0
 11
463.8480750395967
 21
70.7580000000001
 31
0.0
  0
LINE
  5
12E
  8
LAYER_1
 62
    18
 10
463.8480750395967
 20
70.7580000000001
 30
0.0
 11
456.6389750395967
 21
78.08240000000013
 31
0.0
  0
LINE
  5
12F
  8
LAYER_1
 62
    18
 10
456.6389750395967
 20
78.08240000000013
 30
0.0
 11
456.6389750395968
 21
89.62600000000008
 31
0.0
  0
LINE
  5
130
  8
LAYER_1
 62
    18
 10
456.6389750395968
 20
89.62600000000008
 30
0.0
 11
462.1976750395972
 21
95.1848
 31
0.0
  0
LINE
  5
131
  8
LAYER_1
 62
    18
 10
462.1976750395972
 20
95.1848
 30
0.0
 11
501.2828750395968
 21
95.1848
 31
0.0
  0
LINE
  5
132
  8
LAYER_1
 62
    18
 10
501.2828750395968
 20
95.1848
 30
0.0
 11
506.1360750395968
 21
94.3347
 31
0.0
  0
LINE
  5
133
  8
LAYER_1
 62
    18
 10
482.2475750395968
 20
32.5328
 30
0.0
 11
482.2828239457635
 21
32.51247494887573
 31
0.0
  0
LINE
  5
134
  8
LAYER_1
 62
    18
 10
482.2828239457635
 20
32.51247494887573
 30
0.0
 11
482.3173707801738
 21
32.49097822072051
 31
0.0
  0
LINE
  5
135
  8
LAYER_1
 62
    18
 10
482.3173707801738
 20
32.49097822072051
 30
0.0
 11
482.3511766110826
 21
32.46833404076818
 31
0.0
  0
LINE
  5
136
  8
LAYER_1
 62
    18
 10
482.3511766110826
 20
32.46833404076818
 30
0.0
 11
482.3842033418015
 21
32.44456792734641
 31
0.0
  0
LINE
  5
137
  8
LAYER_1
 62
    18
 10
482.3842033418015
 20
32.44456792734641
 30
0.0
 11
482.4164137536305
 21
32.41970666311951
 31
0.0
  0
LINE
  5
138
  8
LAYER_1
 62
    18
 10
482.4164137536305
 20
32.41970666311951
 30
0.0
 11
482.4477715478012
 21
32.39377826490634
 31
0.0
  0
LINE
  5
139
  8
LAYER_1
 62
    18
 10
482.4477715478012
 20
32.39377826490634
 30
0.0
 11
482.4782413863826
 21
32.36681195210735
 31
0.0
  0
LINE
  5
13A
  8
LAYER_1
 62
    18
 10
482.4782413863826
 20
32.36681195210735
 30
0.0
 11
482.5077889321046
 21
32.33883811377653
 31
0.0
  0
LINE
  5
13B
  8
LAYER_1
 62
    18
 10
482.5077889321046
 20
32.33883811377653
 30
0.0
 11
482.5363808870533
 21
32.30988827437513
 31
0.0
  0
LINE
  5
13C
  8
LAYER_1
 62
    18
 10
482.5363808870533
 20
32.30988827437513
 30
0.0
 11
482.5639850301953
 21
32.27999505824591
 31
0.0
  0
LINE
  5
13D
  8
LAYER_1
 62
    18
 10
482.5639850301953
 20
32.27999505824591
 30
0.0
 11
482.5905702536887
 21
32.24919215284794
 31
0.0
  0
LINE
  5
13E
  8
LAYER_1
 62
    18
 10
482.5905702536887
 20
32.24919215284794
 30
0.0
 11
482.6161065979393
 21
32.21751427079327
 31
0.0
  0
LINE
  5
13F
  8
LAYER_1
 62
    18
 10
482.6161065979393
 20
32.21751427079327
 30
0.0
 11
482.6405652853625
 21
32.1849971107284
 31
0.0
  0
LINE
  5
140
  8
LAYER_1
 62
    18
 10
482.6405652853625
 20
32.1849971107284
 30
0.0
 11
482.663918752814
 21
32.15167731710448
 31
0.0
  0
LINE
  5
141
  8
LAYER_1
 62
    18
 10
482.663918752814
 20
32.15167731710448
 30
0.0
 11
482.6861406826513
 21
32.11759243888172
 31
0.0
  0
LINE
  5
142
  8
LAYER_1
 62
    18
 10
482.6861406826513
 20
32.11759243888172
 30
0.0
 11
482.7072060323915
 21
32.08278088721454
 31
0.0
  0
LINE
  5
143
  8
LAYER_1
 62
    18
 10
482.7072060323915
 20
32.08278088721454
 30
0.0
 11
482.7270910629325
 21
32.04728189216489
 31
0.0
  0
LINE
  5
144
  8
LAYER_1
 62
    18
 10
482.7270910629325
 20
32.04728189216489
 30
0.0
 11
482.7457733653055
 21
32.01113545849298
 31
0.0
  0
LINE
  5
145
  8
LAYER_1
 62
    18
 10
482.7457733653055
 20
32.01113545849298
 30
0.0
 11
482.7632318859277
 21
31.97438232057475
 31
0.0
  0
LINE
  5
146
  8
LAYER_1
 62
    18
 10
482.7632318859277
 20
31.97438232057475
 30
0.0
 11
482.7794469503287
 21
31.93706389649731
 31
0.0
  0
LINE
  5
147
  8
LAYER_1
 62
    18
 10
482.7794469503287
 20
31.93706389649731
 30
0.0
 11
482.7944002853218
 21
31.89922224138371
 31
0.0
  0
LINE
  5
148
  8
LAYER_1
 62
    18
 10
482.7944002853218
 20
31.89922224138371
 30
0.0
 11
482.8080750395967
 21
31.86089999999999
 31
0.0
  0
LINE
  5
149
  8
LAYER_1
 62
    18
 10
482.8080750395967
 20
31.86089999999999
 30
0.0
 11
482.8080750395968
 21
29.9305
 31
0.0
  0
LINE
  5
14A
  8
LAYER_1
 62
    18
 10
482.8080750395968
 20
29.9305
 30
0.0
 11
482.7952846373338
 21
29.89449675522973
 31
0.0
  0
LINE
  5
14B
  8
LAYER_1
 62
    18
 10
482.7952846373338
 20
29.89449675522973
 30
0.0
 11
482.781272042375
 21
29.85895135881106
 31
0.0
  0
LINE
  5
14C
  8
LAYER_1
 62
    18
 10
482.781272042375
 20
29.85895135881106
 30
0.0
 11
482.7660536051228
 21
29.82390528639718
 31
0.0
  0
LINE
  5
14D
  8
LAYER_1
 62
    18
 10
482.7660536051228
 20
29.82390528639718
 30
0.0
 11
482.7496470829998
 21
29.78939943101199
 31
0.0
  0
LINE
  5
14E
  8
LAYER_1
 62
    18
 10
482.7496470829998
 20
29.78939943101199
 30
0.0
 11
482.7320716197288
 21
29.75547405533465
 31
0.0
  0
LINE
  5
14F
  8
LAYER_1
 62
    18
 10
482.7320716197288
 20
29.75547405533465
 30
0.0
 11
482.7133477229957
 21
29.7221687447196
 31
0.0
  0
LINE
  5
150
  8
LAYER_1
 62
    18
 10
482.7133477229957
 20
29.7221687447196
 30
0.0
 11
482.6934972405198
 21
29.68952236100696
 31
0.0
  0
LINE
  5
151
  8
LAYER_1
 62
    18
 10
482.6934972405198
 20
29.68952236100696
 30
0.0
 11
482.6725433345616
 21
29.65757299717714
 31
0.0
  0
LINE
  5
152
  8
LAYER_1
 62
    18
 10
482.6725433345616
 20
29.65757299717714
 30
0.0
 11
482.6505104548957
 21
29.62635793290253
 31
0.0
  0
LINE
  5
153
  8
LAYER_1
 62
    18
 10
482.6505104548957
 20
29.62635793290253
 30
0.0
 11
482.6274243102826
 21
29.59591359104828
 31
0.0
  0
LINE
  5
154
  8
LAYER_1
 62
    18
 10
482.6274243102826
 20
29.59591359104828
 30
0.0
 11
482.60331183847
 21
29.56627549517278
 31
0.0
  0
LINE
  5
155
  8
LAYER_1
 62
    18
 10
482.60331183847
 20
29.56627549517278
 30
0.0
 11
482.5782011747616
 21
29.53747822807744
 31
0.0
  0
LINE
  5
156
  8
LAYER_1
 62
    18
 10
482.5782011747616
 20
29.53747822807744
 30
0.0
 11
482.5521216191873
 21
29.50955539145428
 31
0.0
  0
LINE
  5
157
  8
LAYER_1
 62
    18
 10
482.5521216191873
 20
29.50955539145428
 30
0.0
 11
482.5251036023151
 21
29.48253956667823
 31
0.0
  0
LINE
  5
158
  8
LAYER_1
 62
    18
 10
482.5251036023151
 20
29.48253956667823
 30
0.0
 11
482.4971786497435
 21
29.45646227679004
 31
0.0
  0
LINE
  5
159
  8
LAYER_1
 62
    18
 10
482.4971786497435
 20
29.45646227679004
 30
0.0
 11
482.4683793453165
 21
29.43135394971402
 31
0.0
  0
LINE
  5
15A
  8
LAYER_1
 62
    18
 10
482.4683793453165
 20
29.43135394971402
 30
0.0
 11
482.4387392931032
 21
29.40724388275363
 31
0.0
  0
LINE
  5
15B
  8
LAYER_1
 62
    18
 10
482.4387392931032
 20
29.40724388275363
 30
0.0
 11
482.4082930781879
 21
29.38416020840638
 31
0.0
  0
LINE
  5
15C
  8
LAYER_1
 62
    18
 10
482.4082930781879
 20
29.38416020840638
 30
0.0
 11
482.3770762263146
 21
29.36212986153778
 31
0.0
  0
LINE
  5
15D
  8
LAYER_1
 62
    18
 10
482.3770762263146
 20
29.36212986153778
 30
0.0
 11
482.345125162434
 21
29.34117854795274
 31
0.0
  0
LINE
  5
15E
  8
LAYER_1
 62
    18
 10
482.345125162434
 20
29.34117854795274
 30
0.0
 11
482.3124771682023
 21
29.32133071440118
 31
0.0
  0
LINE
  5
15F
  8
LAYER_1
 62
    18
 10
482.3124771682023
 20
29.32133071440118
 30
0.0
 11
482.2791703384793
 21
29.3026095200526
 31
0.0
  0
LINE
  5
160
  8
LAYER_1
 62
    18
 10
482.2791703384793
 20
29.3026095200526
 30
0.0
 11
482.2452435368775
 21
29.28503680947317
 31
0.0
  0
LINE
  5
161
  8
LAYER_1
 62
    18
 10
482.2452435368775
 20
29.28503680947317
 30
0.0
 11
482.2107363504152
 21
29.26863308713671
 31
0.0
  0
LINE
  5
162
  8
LAYER_1
 62
    18
 10
482.2107363504152
 20
29.26863308713671
 30
0.0
 11
482.1756890433247
 21
29.25341749349928
 31
0.0
  0
LINE
  5
163
  8
LAYER_1
 62
    18
 10
482.1756890433247
 20
29.25341749349928
 30
0.0
 11
482.1401425100705
 21
29.23940778266545
 31
0.0
  0
LINE
  5
164
  8
LAYER_1
 62
    18
 10
482.1401425100705
 20
29.23940778266545
 30
0.0
 11
482.1041382276323
 21
29.22662030167216
 31
0.0
  0
LINE
  5
165
  8
LAYER_1
 62
    18
 10
482.1041382276323
 20
29.22662030167216
 30
0.0
 11
482.0677182071083
 21
29.21506997141437
 31
0.0
  0
LINE
  5
166
  8
LAYER_1
 62
    18
 10
482.0677182071083
 20
29.21506997141437
 30
0.0
 11
482.0309249446945
 21
29.20477026923488
 31
0.0
  0
LINE
  5
167
  8
LAYER_1
 62
    18
 10
482.0309249446945
 20
29.20477026923488
 30
0.0
 11
481.9938013720993
 21
29.19573321319845
 31
0.0
  0
LINE
  5
168
  8
LAYER_1
 62
    18
 10
481.9938013720993
 20
29.19573321319845
 30
0.0
 11
481.9563908064489
 21
29.18796934806865
 31
0.0
  0
LINE
  5
169
  8
LAYER_1
 62
    18
 10
481.9563908064489
 20
29.18796934806865
 30
0.0
 11
481.9187368997433
 21
29.18148773300392
 31
0.0
  0
LINE
  5
16A
  8
LAYER_1
 62
    18
 10
481.9187368997433
 20
29.18148773300392
 30
0.0
 11
481.8808835879218
 21
29.17629593098697
 31
0.0
  0
LINE
  5
16B
  8
LAYER_1
 62
    18
 10
481.8808835879218
 20
29.17629593098697
 30
0.0
 11
481.8428750395967
 21
29.17240000000003
 31
0.0
  0
LINE
  5
16C
  8
LAYER_1
 62
    18
 10
481.8428750395967
 20
29.17240000000003
 30
0.0
 11
481.8048659882322
 21
29.17629432347595
 31
0.0
  0
LINE
  5
16D
  8
LAYER_1
 62
    18
 10
481.8048659882322
 20
29.17629432347595
 30
0.0
 11
481.7670121323495
 21
29.18148463519914
 31
0.0
  0
LINE
  5
16E
  8
LAYER_1
 62
    18
 10
481.7670121323495
 20
29.18148463519914
 30
0.0
 11
481.7293576479653
 21
29.18796487799812
 31
0.0
  0
LINE
  5
16F
  8
LAYER_1
 62
    18
 10
481.7293576479653
 20
29.18796487799812
 30
0.0
 11
481.6919464784268
 21
29.19572748933252
 31
0.0
  0
LINE
  5
170
  8
LAYER_1
 62
    18
 10
481.6919464784268
 20
29.19572748933252
 30
0.0
 11
481.6548222831289
 21
29.20476341011868
 31
0.0
  0
LINE
  5
171
  8
LAYER_1
 62
    18
 10
481.6548222831289
 20
29.20476341011868
 30
0.0
 11
481.6180283865634
 21
29.21506209530173
 31
0.0
  0
LINE
  5
172
  8
LAYER_1
 62
    18
 10
481.6180283865634
 20
29.21506209530173
 30
0.0
 11
481.5816077277586
 21
29.22661152616187
 31
0.0
  0
LINE
  5
173
  8
LAYER_1
 62
    18
 10
481.5816077277586
 20
29.22661152616187
 30
0.0
 11
481.5456028101686
 21
29.23939822434035
 31
0.0
  0
LINE
  5
174
  8
LAYER_1
 62
    18
 10
481.5456028101686
 20
29.23939822434035
 30
0.0
 11
481.5100556520714
 21
29.25340726756892
 31
0.0
  0
LINE
  5
175
  8
LAYER_1
 62
    18
 10
481.5100556520714
 20
29.25340726756892
 30
0.0
 11
481.4750077375327
 21
29.26862230708439
 31
0.0
  0
LINE
  5
176
  8
LAYER_1
 62
    18
 10
481.4750077375327
 20
29.26862230708439
 30
0.0
 11
481.4404999679935
 21
29.28502558670781
 31
0.0
  0
LINE
  5
177
  8
LAYER_1
 62
    18
 10
481.4404999679935
 20
29.28502558670781
 30
0.0
 11
481.4065726145377
 21
29.30259796356625
 31
0.0
  0
LINE
  5
178
  8
LAYER_1
 62
    18
 10
481.4065726145377
 20
29.30259796356625
 30
0.0
 11
481.3732652708948
 21
29.32131893043279
 31
0.0
  0
LINE
  5
179
  8
LAYER_1
 62
    18
 10
481.3732652708948
 20
29.32131893043279
 30
0.0
 11
481.3406168072333
 21
29.34116663965879
 31
0.0
  0
LINE
  5
17A
  8
LAYER_1
 62
    18
 10
481.3406168072333
 20
29.34116663965879
 30
0.0
 11
481.3086653247995
 21
29.3621179286704
 31
0.0
  0
LINE
  5
17B
  8
LAYER_1
 62
    18
 10
481.3086653247995
 20
29.3621179286704
 30
0.0
 11
481.2774481114516
 21
29.38414834699962
 31
0.0
  0
LINE
  5
17C
  8
LAYER_1
 62
    18
 10
481.2774481114516
 20
29.38414834699962
 30
0.0
 11
481.247001598145
 21
29.40723218481839
 31
0.0
  0
LINE
  5
17D
  8
LAYER_1
 62
    18
 10
481.247001598145
 20
29.40723218481839
 30
0.0
 11
481.2173613164167
 21
29.43134250294233
 31
0.0
  0
LINE
  5
17E
  8
LAYER_1
 62
    18
 10
481.2173613164167
 20
29.43134250294233
 30
0.0
 11
481.1885618569193
 21
29.45645116426919
 31
0.0
  0
LINE
  5
17F
  8
LAYER_1
 62
    18
 10
481.1885618569193
 20
29.45645116426919
 30
0.0
 11
481.1606368290532
 21
29.48252886661522
 31
0.0
  0
LINE
  5
180
  8
LAYER_1
 62
    18
 10
481.1606368290532
 20
29.48252886661522
 30
0.0
 11
481.1336188217441
 21
29.50954517691132
 31
0.0
  0
LINE
  5
181
  8
LAYER_1
 62
    18
 10
481.1336188217441
 20
29.50954517691132
 30
0.0
 11
481.1075393654111
 21
29.53746856671885
 31
0.0
  0
LINE
  5
182
  8
LAYER_1
 62
    18
 10
481.1075393654111
 20
29.53746856671885
 30
0.0
 11
481.0824288951701
 21
29.56626644902379
 31
0.0
  0
LINE
  5
183
  8
LAYER_1
 62
    18
 10
481.0824288951701
 20
29.56626644902379
 30
0.0
 11
481.0583167153161
 21
29.59590521626628
 31
0.0
  0
LINE
  5
184
  8
LAYER_1
 62
    18
 10
481.0583167153161
 20
29.59590521626628
 30
0.0
 11
481.0352309651238
 21
29.62635027956117
 31
0.0
  0
LINE
  5
185
  8
LAYER_1
 62
    18
 10
481.0352309651238
 20
29.62635027956117
 30
0.0
 11
481.0131985860094
 21
29.65756610906372
 31
0.0
  0
LINE
  5
186
  8
LAYER_1
 62
    18
 10
481.0131985860094
 20
29.65756610906372
 30
0.0
 11
480.9922452900894
 21
29.6895162754335
 31
0.0
  0
LINE
  5
187
  8
LAYER_1
 62
    18
 10
480.9922452900894
 20
29.6895162754335
 30
0.0
 11
480.9723955301737
 21
29.72216349234794
 31
0.0
  0
LINE
  5
188
  8
LAYER_1
 62
    18
 10
480.9723955301737
 20
29.72216349234794
 30
0.0
 11
480.9536724712294
 21
29.75546966001607
 31
0.0
  0
LINE
  5
189
  8
LAYER_1
 62
    18
 10
480.9536724712294
 20
29.75546966001607
 30
0.0
 11
480.9360979633466
 21
29.78939590964151
 31
0.0
  0
LINE
  5
18A
  8
LAYER_1
 62
    18
 10
480.9360979633466
 20
29.78939590964151
 30
0.0
 11
480.9196925162392
 21
29.82390264878295
 31
0.0
  0
LINE
  5
18B
  8
LAYER_1
 62
    18
 10
480.9196925162392
 20
29.82390264878295
 30
0.0
 11
480.9044752753096
 21
29.85894960755914
 31
0.0
  0
LINE
  5
18C
  8
LAYER_1
 62
    18
 10
480.9044752753096
 20
29.85894960755914
 30
0.0
 11
480.8904639993057
 21
29.89449588564441
 31
0.0
  0
LINE
  5
18D
  8
LAYER_1
 62
    18
 10
480.8904639993057
 20
29.89449588564441
 30
0.0
 11
480.8776750395967
 21
29.93049999999999
 31
0.0
  0
LINE
  5
18E
  8
LAYER_1
 62
    18
 10
480.8776750395967
 20
29.93049999999999
 30
0.0
 11
480.8776750395967
 21
31.8609
 31
0.0
  0
LINE
  5
18F
  8
LAYER_1
 62
    18
 10
480.8776750395967
 20
31.8609
 30
0.0
 11
480.8912848599429
 21
31.89953883004344
 31
0.0
  0
LINE
  5
190
  8
LAYER_1
 62
    18
 10
480.8912848599429
 20
31.89953883004344
 30
0.0
 11
480.9061773843118
 21
31.93770162756798
 31
0.0
  0
LINE
  5
191
  8
LAYER_1
 62
    18
 10
480.9061773843118
 20
31.93770162756798
 30
0.0
 11
480.9223360008059
 21
31.97534582380032
 31
0.0
  0
LINE
  5
192
  8
LAYER_1
 62
    18
 10
480.9223360008059
 20
31.97534582380032
 30
0.0
 11
480.9397426852619
 21
32.01242942844209
 31
0.0
  0
LINE
  5
193
  8
LAYER_1
 62
    18
 10
480.9397426852619
 20
32.01242942844209
 30
0.0
 11
480.958378021357
 21
32.04891107650799
 31
0.0
  0
LINE
  5
194
  8
LAYER_1
 62
    18
 10
480.958378021357
 20
32.04891107650799
 30
0.0
 11
480.9782212222659
 21
32.08475007446643
 31
0.0
  0
LINE
  5
195
  8
LAYER_1
 62
    18
 10
480.9782212222659
 20
32.08475007446643
 30
0.0
 11
480.9992501538484
 21
32.1199064456313
 31
0.0
  0
LINE
  5
196
  8
LAYER_1
 62
    18
 10
480.9992501538484
 20
32.1199064456313
 30
0.0
 11
481.021441359338
 21
32.15434097475392
 31
0.0
  0
LINE
  5
197
  8
LAYER_1
 62
    18
 10
481.021441359338
 20
32.15434097475392
 30
0.0
 11
481.0447700855077
 21
32.1880152517659
 31
0.0
  0
LINE
  5
198
  8
LAYER_1
 62
    18
 10
481.0447700855077
 20
32.1880152517659
 30
0.0
 11
481.0692103102804
 21
32.22089171462366
 31
0.0
  0
LINE
  5
199
  8
LAYER_1
 62
    18
 10
481.0692103102804
 20
32.22089171462366
 30
0.0
 11
481.0947347717558
 21
32.2529336912071
 31
0.0
  0
LINE
  5
19A
  8
LAYER_1
 62
    18
 10
481.0947347717558
 20
32.2529336912071
 30
0.0
 11
481.1213149986191
 21
32.28410544022559
 31
0.0
  0
LINE
  5
19B
  8
LAYER_1
 62
    18
 10
481.1213149986191
 20
32.28410544022559
 30
0.0
 11
481.1489213419002
 21
32.31437219108573
 31
0.0
  0
LINE
  5
19C
  8
LAYER_1
 62
    18
 10
481.1489213419002
 20
32.31437219108573
 30
0.0
 11
481.1775230080448
 21
32.34370018267617
 31
0.0
  0
LINE
  5
19D
  8
LAYER_1
 62
    18
 10
481.1775230080448
 20
32.34370018267617
 30
0.0
 11
481.2070880932641
 21
32.3720567010266
 31
0.0
  0
LINE
  5
19E
  8
LAYER_1
 62
    18
 10
481.2070880932641
 20
32.3720567010266
 30
0.0
 11
481.237583619121
 21
32.39941011579862
 31
0.0
  0
LINE
  5
19F
  8
LAYER_1
 62
    18
 10
481.237583619121
 20
32.39941011579862
 30
0.0
 11
481.2689755693167
 21
32.42572991556779
 31
0.0
  0
LINE
  5
1A0
  8
LAYER_1
 62
    18
 10
481.2689755693167
 20
32.42572991556779
 30
0.0
 11
481.3012289276339
 21
32.45098674185775
 31
0.0
  0
LINE
  5
1A1
  8
LAYER_1
 62
    18
 10
481.3012289276339
 20
32.45098674185775
 30
0.0
 11
481.3343077169957
 21
32.47515242188813
 31
0.0
  0
LINE
  5
1A2
  8
LAYER_1
 62
    18
 10
481.3343077169957
 20
32.47515242188813
 30
0.0
 11
481.3681750395967
 21
32.4982
 31
0.0
  0
LINE
  5
1A3
  8
LAYER_1
 62
    18
 10
505.9840750395967
 20
93.468
 30
0.0
 11
501.2063750395962
 21
94.3048
 31
0.0
  0
LINE
  5
1A4
  8
LAYER_1
 62
    18
 10
501.2063750395962
 20
94.3048
 30
0.0
 11
462.5621750395967
 21
94.30479999999993
 31
0.0
  0
LINE
  5
1A5
  8
LAYER_1
 62
    18
 10
462.5621750395967
 20
94.30479999999993
 30
0.0
 11
457.5189750395967
 21
89.26149999999984
 31
0.0
  0
LINE
  5
1A6
  8
LAYER_1
 62
    18
 10
457.5189750395967
 20
89.26149999999984
 30
0.0
 11
457.5189750395969
 21
78.4427999999999
 31
0.0
  0
LINE
  5
1A7
  8
LAYER_1
 62
    18
 10
457.5189750395969
 20
78.4427999999999
 30
0.0
 11
464.4312594299649
 21
71.42002065474722
 31
0.0
  0
LINE
  5
1A8
  8
LAYER_1
 62
    18
 10
464.4312594299649
 20
71.42002065474722
 30
0.0
 11
464.4315750395968
 21
71.4197
 31
0.0
  0
LINE
  5
1A9
  8
LAYER_1
 62
    18
 10
464.4315750395968
 20
71.4197
 30
0.0
 11
465.548024063386
 21
71.41969999999998
 31
0.0
  0
LINE
  5
1AA
  8
LAYER_1
 62
    18
 10
465.548024063386
 20
71.41969999999998
 30
0.0
 11
465.5480750395968
 21
71.41969999999998
 31
0.0
  0
LINE
  5
1AB
  8
LAYER_1
 62
    18
 10
465.5480750395968
 20
71.41969999999998
 30
0.0
 11
465.5480750395968
 21
69.6197
 31
0.0
  0
LINE
  5
1AC
  8
LAYER_1
 62
    18
 10
465.5480750395968
 20
69.6197
 30
0.0
 11
465.1380750395967
 21
69.61969999999975
 31
0.0
  0
LINE
  5
1AD
  8
LAYER_1
 62
    18
 10
465.1380750395967
 20
69.61969999999975
 30
0.0
 11
465.138075039597
 21
52.80419999999977
 31
0.0
  0
LINE
  5
1AE
  8
LAYER_1
 62
    18
 10
465.138075039597
 20
52.80419999999977
 30
0.0
 11
482.1519750395967
 21
36.93299999999999
 31
0.0
  0
LINE
  5
1AF
  8
LAYER_1
 62
    18
 10
482.1519750395967
 20
36.93299999999999
 30
0.0
 11
482.2475750395968
 21
32.5328
 31
0.0
  0
ARC
  5
1B0
  8
LAYER_1
 62
    18
 10
-506.8616620871921
 20
93.78186732848394
 30
0.0
 40
0.932059284306726
 50
198.2034081467052
 51
340.3147189642232
210
0.0
220
0.0
230
-1.0
  0
LINE
  5
1B1
  8
LAYER_1
 62
    18
 10
562.0328750395968
 20
38.6443
 30
0.0
 11
566.0228750395968
 21
38.64430000000006
 31
0.0
  0
LINE
  5
1B2
  8
LAYER_1
 62
    18
 10
566.0228750395968
 20
38.64430000000006
 30
0.0
 11
577.306359844263
 21
49.92528491880934
 31
0.0
  0
LINE
  5
1B3
  8
LAYER_1
 62
    18
 10
577.306359844263
 20
49.92528491880934
 30
0.0
 11
577.3068750395968
 21
49.92580000000016
 31
0.0
  0
LINE
  5
1B4
  8
LAYER_1
 62
    18
 10
577.3068750395968
 20
49.92580000000016
 30
0.0
 11
577.3043750395967
 21
82.56100000000006
 31
0.0
  0
LINE
  5
1B5
  8
LAYER_1
 62
    18
 10
577.3043750395967
 20
82.56100000000006
 30
0.0
 11
565.5611112280899
 21
94.30426381150656
 31
0.0
  0
LINE
  5
1B6
  8
LAYER_1
 62
    18
 10
565.5611112280899
 20
94.30426381150656
 30
0.0
 11
565.5605750395964
 21
94.3048
 31
0.0
  0
LINE
  5
1B7
  8
LAYER_1
 62
    18
 10
565.5605750395964
 20
94.3048
 30
0.0
 11
511.7890750395968
 21
94.3037
 31
0.0
  0
LINE
  5
1B8
  8
LAYER_1
 62
    18
 10
511.7890750395968
 20
94.3037
 30
0.0
 11
507.7470750395968
 21
93.4907
 31
0.0
  0
ARC
  5
1B9
  8
LAYER_1
 62
    18
 10
-561.1504928278632
 20
38.20379850442539
 30
0.0
 40
0.9862250935702631
 50
206.4641083395578
 51
153.4707828271194
210
0.0
220
0.0
230
-1.0
  0
LINE
  5
1BA
  8
LAYER_1
 62
    18
 10
468.1265750395967
 20
87.9148
 30
0.0
 11
472.9254750395967
 21
83.184
 31
0.0
  0
LINE
  5
1BB
  8
LAYER_1
 62
    18
 10
472.9254750395967
 20
83.184
 30
0.0
 11
473.4936750395968
 21
83.1849
 31
0.0
  0
LINE
  5
1BC
  8
LAYER_1
 62
    18
 10
473.4936750395968
 20
83.1849
 30
0.0
 11
504.1749750395967
 21
83.1837
 31
0.0
  0
LINE
  5
1BD
  8
LAYER_1
 62
    18
 10
504.1749750395967
 20
83.1837
 30
0.0
 11
505.9788750395967
 21
83.7746
 31
0.0
  0
ARC
  5
1BE
  8
LAYER_1
 62
    18
 10
-467.2378288176694
 20
88.17269277661887
 30
0.0
 40
0.9254072245354693
 50
252.9622293364419
 51
196.1814575563299
210
0.0
220
0.0
230
-1.0
  0
LINE
  5
1BF
  8
LAYER_1
 62
    18
 10
506.2526750395967
 20
82.9383
 30
0.0
 11
504.3153750395967
 21
82.3037
 31
0.0
  0
LINE
  5
1C0
  8
LAYER_1
 62
    18
 10
504.3153750395967
 20
82.3037
 30
0.0
 11
473.4943750395968
 21
82.3049
 31
0.0
  0
LINE
  5
1C1
  8
LAYER_1
 62
    18
 10
473.4943750395968
 20
82.3049
 30
0.0
 11
472.5651750395967
 21
82.3035
 31
0.0
  0
LINE
  5
1C2
  8
LAYER_1
 62
    18
 10
472.5651750395967
 20
82.3035
 30
0.0
 11
467.5089750395967
 21
87.2879
 31
0.0
  0
ARC
  5
1C3
  8
LAYER_1
 62
    18
 10
-506.8618956946228
 20
83.6006257806362
 30
0.0
 40
0.8999765115612594
 50
11.13951111717588
 51
312.6041672286988
210
0.0
220
0.0
230
-1.0
  0
LINE
  5
1C4
  8
LAYER_1
 62
    18
 10
517.3427750395967
 20
34.6128
 30
0.0
 11
516.1427750395967
 21
34.6128
 31
0.0
  0
ARC
  5
1C5
  8
LAYER_1
 62
    18
 10
-517.3375941196607
 20
35.21279999999996
 30
0.0
 40
0.6000223678592629
 50
90.4947291149753
 51
269.5052708850247
210
0.0
220
0.0
230
-1.0
  0
LINE
  5
1C6
  8
LAYER_1
 62
    18
 10
516.1427750395967
 20
35.8128
 30
0.0
 11
517.3427750395967
 21
35.8128
 31
0.0
  0
ARC
  5
1C7
  8
LAYER_1
 62
    18
 10
-516.1479559595327
 20
35.21279999999996
 30
0.0
 40
0.6000223678591776
 50
270.4947291149754
 51
89.50527088502464
210
0.0
220
0.0
230
-1.0
  0
LINE
  5
1C8
  8
LAYER_1
 62
    18
 10
517.3427750395967
 20
39.3128
 30
0.0
 11
516.1427750395967
 21
39.3128
 31
0.0
  0
ARC
  5
1C9
  8
LAYER_1
 62
    18
 10
-517.3375941196608
 20
39.91280000000006
 30
0.0
 40
0.6000223678591552
 50
90.4947291149645
 51
269.5052708850355
210
0.0
220
0.0
230
-1.0
  0
LINE
  5
1CA
  8
LAYER_1
 62
    18
 10
516.1427750395967
 20
40.5128
 30
0.0
 11
517.3427750395967
 21
40.5128
 31
0.0
  0
ARC
  5
1CB
  8
LAYER_1
 62
    18
 10
-516.1479559595329
 20
39.9128
 30
0.0
 40
0.6000223678592211
 50
270.4947291149862
 51
89.50527088501383
210
0.0
220
0.0
230
-1.0
  0
LINE
  5
1CC
  8
LAYER_1
 62
    18
 10
517.3427750395967
 20
44.0128
 30
0.0
 11
516.1427750395967
 21
44.0128
 31
0.0
  0
ARC
  5
1CD
  8
LAYER_1
 62
    18
 10
-517.3375941196607
 20
44.61279999999999
 30
0.0
 40
0.6000223678592274
 50
90.49472911497531
 51
269.5052708850246
210
0.0
220
0.0
230
-1.0
  0
LINE
  5
1CE
  8
LAYER_1
 62
    18
 10
516.1427750395967
 20
45.2128
 30
0.0
 11
517.3427750395967
 21
45.2128
 31
0.0
  0
ARC
  5
1CF
  8
LAYER_1
 62
    18
 10
-516.1479559595327
 20
44.61279999999999
 30
0.0
 40
0.6000223678592131
 50
270.4947291149754
 51
89.50527088502469
210
0.0
220
0.0
230
-1.0
  0
ARC
  5
1D0
  8
LAYER_1
 62
    18
 10
-561.1397251667576
 20
40.73256392989813
 30
0.0
 40
1.00084191426805
 50
341.7960194937128
 51
153.2270029142537
210
0.0
220
0.0
230
-1.0
  0
LINE
  5
1D1
  8
LAYER_1
 62
    18
 10
555.4218750395968
 20
35.6528
 30
0.0
 11
560.1889750395967
 21
40.4199
 31
0.0
  0
LINE
  5
1D2
  8
LAYER_1
 62
    18
 10
518.6466750395967
 20
35.6528
 30
0.0
 11
555.4218750395968
 21
35.6528
 31
0.0
  0
ARC
  5
1D3
  8
LAYER_1
 62
    18
 10
-517.2413555788862
 20
34.99360514331602
 30
0.0
 40
1.552243745592266
 50
108.8383938218396
 51
154.8700798106912
210
0.0
220
0.0
230
-1.0
  0
LINE
  5
1D4
  8
LAYER_1
 62
    18
 10
515.7425750395968
 20
36.4627
 30
0.0
 11
517.7425750395968
 21
36.4627
 31
0.0
  0
ARC
  5
1D5
  8
LAYER_1
 62
    18
 10
-516.2435432904491
 20
34.99371207874951
 30
0.0
 40
1.55206143600757
 50
25.12871676498833
 51
71.16910837501275
210
0.0
220
0.0
230
-1.0
  0
LINE
  5
1D6
  8
LAYER_1
 62
    18
 10
506.7422750395967
 20
35.6528
 30
0.0
 11
514.8383750395967
 21
35.6528
 31
0.0
  0
LINE
  5
1D7
  8
LAYER_1
 62
    18
 10
499.1183750395967
 20
27.9225
 30
0.0
 11
506.7422750395967
 21
35.6528
 31
0.0
  0
LINE
  5
1D8
  8
LAYER_1
 62
    18
 10
485.6397750395968
 20
27.8948
 30
0.0
 11
499.1183750395967
 21
27.9225
 31
0.0
  0
LINE
  5
1D9
  8
LAYER_1
 62
    18
 10
484.9682750395967
 20
29.2753
 30
0.0
 11
485.6397750395968
 21
27.8948
 31
0.0
  0
ARC
  5
1DA
  8
LAYER_1
 62
    18
 10
-483.9594578327621
 20
30.29776079846729
 30
0.0
 40
1.436362851513513
 50
194.8143584127498
 51
225.3848357834435
210
0.0
220
0.0
230
-1.0
  0
LINE
  5
1DB
  8
LAYER_1
 62
    18
 10
485.3480750395967
 20
31.8609
 30
0.0
 11
485.3480750395967
 21
29.9305
 31
0.0
  0
ARC
  5
1DC
  8
LAYER_1
 62
    18
 10
-484.1918723824694
 20
31.47239210166074
 30
0.0
 40
1.219730696268799
 50
121.1642673738378
 51
161.4265914807034
210
0.0
220
0.0
230
-1.0
  0
LINE
  5
1DD
  8
LAYER_1
 62
    18
 10
484.8230750395967
 20
37.4281
 30
0.0
 11
484.8230750395967
 21
32.5161
 31
0.0
  0
LINE
  5
1DE
  8
LAYER_1
 62
    18
 10
467.6780750395968
 20
54.5731
 30
0.0
 11
484.8230750395967
 21
37.4281
 31
0.0
  0
LINE
  5
1DF
  8
LAYER_1
 62
    18
 10
467.6780750395968
 20
69.7347
 30
0.0
 11
467.6780750395968
 21
54.5731
 31
0.0
  0
ARC
  5
1E0
  8
LAYER_1
 62
    18
 10
-467.2140607776523
 20
70.51788304503683
 30
0.0
 40
0.9103213264123013
 50
111.9526180609476
 51
239.3544331780666
210
0.0
220
0.0
230
-1.0
  0
LINE
  5
1E1
  8
LAYER_1
 62
    18
 10
467.1618750395967
 20
73.9505
 30
0.0
 11
467.5543750395967
 21
71.3622
 31
0.0
  0
LINE
  5
1E2
  8
LAYER_1
 62
    18
 10
461.1852750395968
 20
79.9259
 30
0.0
 11
467.1618750395967
 21
73.9505
 31
0.0
  0
LINE
  5
1E3
  8
LAYER_1
 62
    18
 10
461.1857750395968
 20
88.5619
 30
0.0
 11
461.1852750395968
 21
79.9259
 31
0.0
  0
LINE
  5
1E4
  8
LAYER_1
 62
    18
 10
463.9278750395968
 20
91.3041
 30
0.0
 11
461.1857750395968
 21
88.5619
 31
0.0
  0
LINE
  5
1E5
  8
LAYER_1
 62
    18
 10
503.6165750395967
 20
91.3041
 30
0.0
 11
463.9278750395968
 21
91.3041
 31
0.0
  0
LINE
  5
1E6
  8
LAYER_1
 62
    18
 10
505.9751750395967
 20
88.9455
 30
0.0
 11
503.6165750395967
 21
91.3041
 31
0.0
  0
ARC
  5
1E7
  8
LAYER_1
 62
    18
 10
-506.8618944437138
 20
88.68071057858397
 30
0.0
 40
0.9254105787874006
 50
73.41031307888444
 51
16.6265153174186
210
0.0
220
0.0
230
-1.0
  0
LINE
  5
1E8
  8
LAYER_1
 62
    18
 10
503.9810750395968
 20
92.1841
 30
0.0
 11
506.5976750395968
 21
89.5676
 31
0.0
  0
LINE
  5
1E9
  8
LAYER_1
 62
    18
 10
463.5633750395967
 20
92.1841
 30
0.0
 11
503.9810750395968
 21
92.1841
 31
0.0
  0
LINE
  5
1EA
  8
LAYER_1
 62
    18
 10
460.3057750395968
 20
88.9265
 30
0.0
 11
463.5633750395967
 21
92.1841
 31
0.0
  0
LINE
  5
1EB
  8
LAYER_1
 62
    18
 10
460.3052750395967
 20
79.5615
 30
0.0
 11
460.3057750395968
 21
88.9265
 31
0.0
  0
LINE
  5
1EC
  8
LAYER_1
 62
    18
 10
466.3320750395968
 20
73.5346
 30
0.0
 11
460.3052750395967
 21
79.5615
 31
0.0
  0
LINE
  5
1ED
  8
LAYER_1
 62
    18
 10
466.6844750395967
 20
71.2294
 30
0.0
 11
466.3320750395968
 21
73.5346
 31
0.0
  0
ARC
  5
1EE
  8
LAYER_1
 62
    18
 10
-467.2648310840504
 20
70.52168325528424
 30
0.0
 40
0.9152464854261765
 50
300.6623987177047
 51
50.64687676833167
210
0.0
220
0.0
230
-1.0
  0
LINE
  5
1EF
  8
LAYER_1
 62
    18
 10
466.7980750395968
 20
54.2086
 30
0.0
 11
466.7980750395968
 21
69.7344
 31
0.0
  0
LINE
  5
1F0
  8
LAYER_1
 62
    18
 10
483.9430750395967
 20
37.0636
 30
0.0
 11
466.7980750395968
 21
54.2086
 31
0.0
  0
LINE
  5
1F1
  8
LAYER_1
 62
    18
 10
483.9430750395967
 20
32.5163
 30
0.0
 11
483.9430750395967
 21
37.0636
 31
0.0
  0
ARC
  5
1F2
  8
LAYER_1
 62
    18
 10
-484.5736619993826
 20
31.47249843046768
 30
0.0
 40
1.219492365867932
 50
18.57190096491327
 51
58.86276299256988
210
0.0
220
0.0
230
-1.0
  0
LINE
  5
1F3
  8
LAYER_1
 62
    18
 10
483.4176750395968
 20
29.9305
 30
0.0
 11
483.4176750395968
 21
31.8609
 31
0.0
  0
ARC
  5
1F4
  8
LAYER_1
 62
    18
 10
-484.6418762643075
 20
30.3055912475331
 30
0.0
 40
1.280375758345659
 50
306.4056748063403
 51
342.9651070423357
210
0.0
220
0.0
230
-1.0
  0
LINE
  5
1F5
  8
LAYER_1
 62
    18
 10
485.0001750395967
 20
26.9104
 30
0.0
 11
483.8819750395967
 21
29.2751
 31
0.0
  0
LINE
  5
1F6
  8
LAYER_1
 62
    18
 10
499.6834750395968
 20
26.9104
 30
0.0
 11
485.0001750395967
 21
26.9104
 31
0.0
  0
LINE
  5
1F7
  8
LAYER_1
 62
    18
 10
507.3554750395967
 20
34.7728
 30
0.0
 11
499.6834750395968
 21
26.9104
 31
0.0
  0
LINE
  5
1F8
  8
LAYER_1
 62
    18
 10
514.8382750395967
 20
34.7728
 30
0.0
 11
507.3554750395967
 21
34.7728
 31
0.0
  0
ARC
  5
1F9
  8
LAYER_1
 62
    18
 10
-516.2434976223013
 20
35.43164771205996
 30
0.0
 40
1.552008638709725
 50
288.829775057047
 51
334.8801635532613
210
0.0
220
0.0
230
-1.0
  0
LINE
  5
1FA
  8
LAYER_1
 62
    18
 10
516.3027750395968
 20
33.9627
 30
0.0
 11
515.7425750395968
 21
33.9627
 31
0.0
  0
LINE
  5
1FB
  8
LAYER_1
 62
    18
 10
517.1827750395968
 20
33.9627
 30
0.0
 11
516.3027750395968
 21
33.9627
 31
0.0
  0
LINE
  5
1FC
  8
LAYER_1
 62
    18
 10
517.7425750395968
 20
33.9627
 30
0.0
 11
517.1827750395968
 21
33.9627
 31
0.0
  0
ARC
  5
1FD
  8
LAYER_1
 62
    18
 10
-517.2416300209081
 20
35.43149929749187
 30
0.0
 40
1.551875409967447
 50
205.1160908453179
 51
251.1676723743412
210
0.0
220
0.0
230
-1.0
  0
LINE
  5
1FE
  8
LAYER_1
 62
    18
 10
555.7864750395968
 20
34.7728
 30
0.0
 11
518.6467750395967
 21
34.7728
 31
0.0
  0
LINE
  5
1FF
  8
LAYER_1
 62
    18
 10
560.8112750395967
 20
39.7977
 30
0.0
 11
555.7864750395968
 21
34.7728
 31
0.0
  0
ARC
  5
200
  8
LAYER_1
 62
    18
 10
-561.0872528432321
 20
40.8595540781069
 30
0.0
 40
1.097131638087078
 50
210.4586535981747
 51
284.5689467700914
210
0.0
220
0.0
230
-1.0
  0
LINE
  5
201
  8
LAYER_1
 62
    18
 10
564.4281750395967
 20
40.3034
 30
0.0
 11
562.0329750395967
 21
40.3034
 31
0.0
  0
LINE
  5
202
  8
LAYER_1
 62
    18
 10
575.1852750395967
 20
51.0616
 30
0.0
 11
564.4281750395967
 21
40.3034
 31
0.0
  0
LINE
  5
203
  8
LAYER_1
 62
    18
 10
575.1862750395967
 20
75.7116
 30
0.0
 11
575.1852750395967
 21
51.0616
 31
0.0
  0
LINE
  5
204
  8
LAYER_1
 62
    18
 10
575.1850750395968
 20
78.461
 30
0.0
 11
575.1862750395967
 21
75.7116
 31
0.0
  0
LINE
  5
205
  8
LAYER_1
 62
    18
 10
573.3744750395967
 20
79.8481
 30
0.0
 11
575.1850750395968
 21
78.461
 31
0.0
  0
ARC
  5
206
  8
LAYER_1
 62
    18
 10
-572.4078971683781
 20
80.03403933891812
 30
0.0
 40
0.9842998622813756
 50
243.9942221264387
 51
190.8888984327118
210
0.0
220
0.0
230
-1.0
  0
LINE
  5
207
  8
LAYER_1
 62
    18
 10
574.3052750395967
 20
78.0264
 30
0.0
 11
572.8394750395968
 21
79.1494
 31
0.0
  0
LINE
  5
208
  8
LAYER_1
 62
    18
 10
574.3062750395968
 20
75.7115
 30
0.0
 11
574.3052750395967
 21
78.0264
 31
0.0
  0
LINE
  5
209
  8
LAYER_1
 62
    18
 10
574.3052750395967
 20
51.4261
 30
0.0
 11
574.3062750395968
 21
75.7115
 31
0.0
  0
LINE
  5
20A
  8
LAYER_1
 62
    18
 10
564.0636750395968
 20
41.1834
 30
0.0
 11
574.3052750395967
 21
51.4261
 31
0.0
  0
LINE
  5
20B
  8
LAYER_1
 62
    18
 10
562.0332750395968
 20
41.1834
 30
0.0
 11
564.0636750395968
 21
41.1834
 31
0.0
  0
LINE
  5
20C
  8
LAYER_1
 62
    18
 10
525.6852750395967
 20
47.3978
 30
0.0
 11
518.2020750395967
 21
40.75
 31
0.0
  0
LINE
  5
20D
  8
LAYER_1
 62
    18
 10
525.6852750395967
 20
73.02
 30
0.0
 11
525.6852750395967
 21
47.3978
 31
0.0
  0
LINE
  5
20E
  8
LAYER_1
 62
    18
 10
522.9682750395967
 20
75.7369
 30
0.0
 11
525.6852750395967
 21
73.02
 31
0.0
  0
ARC
  5
20F
  8
LAYER_1
 62
    18
 10
-522.1131774087215
 20
75.96944795373454
 30
0.0
 40
0.8861549013093182
 50
254.7492473378749
 51
195.2139183467639
210
0.0
220
0.0
230
-1.0
  0
LINE
  5
210
  8
LAYER_1
 62
    18
 10
524.8052750395967
 20
72.6555
 30
0.0
 11
522.3462750395968
 21
75.1145
 31
0.0
  0
LINE
  5
211
  8
LAYER_1
 62
    18
 10
524.8052750395967
 20
47.7623
 30
0.0
 11
524.8052750395967
 21
72.6555
 31
0.0
  0
LINE
  5
212
  8
LAYER_1
 62
    18
 10
517.3957750395967
 20
41.1881
 30
0.0
 11
524.8052750395967
 21
47.7623
 31
0.0
  0
LINE
  5
213
  8
LAYER_1
 62
    18
 10
515.9829750395968
 20
41.1881
 30
0.0
 11
517.3957750395967
 21
41.1881
 31
0.0
  0
ARC
  5
214
  8
LAYER_1
 62
    18
 10
-516.3205963647158
 20
39.91269999999992
 30
0.0
 40
1.319330633001029
 50
284.8271282884562
 51
75.17287171154878
210
0.0
220
0.0
230
-1.0
  0
LINE
  5
215
  8
LAYER_1
 62
    18
 10
517.5020750395968
 20
38.6373
 30
0.0
 11
515.9829750395968
 21
38.6373
 31
0.0
  0
ARC
  5
216
  8
LAYER_1
 62
    18
 10
-517.1532908065029
 20
39.92517788524899
 30
0.0
 40
1.334271294965323
 50
141.8165252324815
 51
254.8465962635319
210
0.0
220
0.0
230
-1.0
  0
LINE
  5
217
  8
LAYER_1
 62
    18
 10
564.3375750395967
 20
86.1837
 30
0.0
 11
572.0703750395967
 21
78.4509
 31
0.0
  0
LINE
  5
218
  8
LAYER_1
 62
    18
 10
527.1772750395967
 20
86.1837
 30
0.0
 11
564.3375750395967
 21
86.1837
 31
0.0
  0
LINE
  5
219
  8
LAYER_1
 62
    18
 10
523.0016750395968
 20
88.6591
 30
0.0
 11
527.1772750395967
 21
86.1837
 31
0.0
  0
ARC
  5
21A
  8
LAYER_1
 62
    18
 10
-522.101673298615
 20
88.6724068609691
 30
0.0
 40
0.9001001090542509
 50
3.081946258613031
 51
180.8470777192058
210
0.0
220
0.0
230
-1.0
  0
LINE
  5
21B
  8
LAYER_1
 62
    18
 10
518.8055750395968
 20
87.5143
 30
0.0
 11
521.2028750395967
 21
88.7208
 31
0.0
  0
LINE
  5
21C
  8
LAYER_1
 62
    18
 10
518.8053750395968
 20
79.4741
 30
0.0
 11
518.8055750395968
 21
87.5143
 31
0.0
  0
LINE
  5
21D
  8
LAYER_1
 62
    18
 10
523.8732750395967
 20
76.8913
 30
0.0
 11
518.8053750395968
 21
79.4741
 31
0.0
  0
LINE
  5
21E
  8
LAYER_1
 62
    18
 10
527.8052750395967
 20
72.9592
 30
0.0
 11
523.8732750395967
 21
76.8913
 31
0.0
  0
LINE
  5
21F
  8
LAYER_1
 62
    18
 10
527.8052750395967
 20
46.3172
 30
0.0
 11
527.8052750395967
 21
72.9592
 31
0.0
  0
LINE
  5
220
  8
LAYER_1
 62
    18
 10
518.5934750395968
 20
37.9407
 30
0.0
 11
527.8052750395967
 21
46.3172
 31
0.0
  0
LINE
  5
221
  8
LAYER_1
 62
    18
 10
515.5289750395967
 20
37.9407
 30
0.0
 11
518.5934750395968
 21
37.9407
 31
0.0
  0
LINE
  5
222
  8
LAYER_1
 62
    18
 10
514.0086750395967
 20
39.461
 30
0.0
 11
515.5289750395967
 21
37.9407
 31
0.0
  0
LINE
  5
223
  8
LAYER_1
 62
    18
 10
514.0086750395967
 20
41.0968
 30
0.0
 11
514.0086750395967
 21
39.461
 31
0.0
  0
LINE
  5
224
  8
LAYER_1
 62
    18
 10
514.6485750395967
 20
41.7686
 30
0.0
 11
514.0086750395967
 21
41.0968
 31
0.0
  0
LINE
  5
225
  8
LAYER_1
 62
    18
 10
516.1629750395967
 20
43.3627
 30
0.0
 11
514.6485750395967
 21
41.7686
 31
0.0
  0
LINE
  5
226
  8
LAYER_1
 62
    18
 10
517.7425750395968
 20
43.3627
 30
0.0
 11
516.1629750395967
 21
43.3627
 31
0.0
  0
ARC
  5
227
  8
LAYER_1
 62
    18
 10
-517.4115972643622
 20
44.61269999999999
 30
0.0
 40
1.293076288429752
 50
104.830567325762
 51
255.169432674238
210
0.0
220
0.0
230
-1.0
  0
LINE
  5
228
  8
LAYER_1
 62
    18
 10
515.7425750395968
 20
45.8627
 30
0.0
 11
517.7425750395968
 21
45.8627
 31
0.0
  0
ARC
  5
229
  8
LAYER_1
 62
    18
 10
-516.0804979183285
 20
44.60477082192635
 30
0.0
 40
1.302527423519255
 50
311.9799911938096
 51
74.96338394037103
210
0.0
220
0.0
230
-1.0
  0
LINE
  5
22A
  8
LAYER_1
 62
    18
 10
514.0108750395967
 20
42.3751
 30
0.0
 11
515.2092750395967
 21
43.6365
 31
0.0
  0
LINE
  5
22B
  8
LAYER_1
 62
    18
 10
513.1286750395967
 20
41.4511
 30
0.0
 11
514.0108750395967
 21
42.3751
 31
0.0
  0
LINE
  5
22C
  8
LAYER_1
 62
    18
 10
513.1286750395967
 20
39.0964
 30
0.0
 11
513.1286750395967
 21
41.4511
 31
0.0
  0
LINE
  5
22D
  8
LAYER_1
 62
    18
 10
515.1644750395967
 20
37.0607
 30
0.0
 11
513.1286750395967
 21
39.0964
 31
0.0
  0
LINE
  5
22E
  8
LAYER_1
 62
    18
 10
518.9579750395967
 20
37.0607
 30
0.0
 11
515.1644750395967
 21
37.0607
 31
0.0
  0
LINE
  5
22F
  8
LAYER_1
 62
    18
 10
528.6852750395967
 20
45.9527
 30
0.0
 11
518.9579750395967
 21
37.0607
 31
0.0
  0
LINE
  5
230
  8
LAYER_1
 62
    18
 10
528.6852750395967
 20
73.3237
 30
0.0
 11
528.6852750395967
 21
45.9527
 31
0.0
  0
LINE
  5
231
  8
LAYER_1
 62
    18
 10
524.3969750395968
 20
77.6121
 30
0.0
 11
528.6852750395967
 21
73.3237
 31
0.0
  0
LINE
  5
232
  8
LAYER_1
 62
    18
 10
519.6853750395967
 20
80.0133
 30
0.0
 11
524.3969750395968
 21
77.6121
 31
0.0
  0
LINE
  5
233
  8
LAYER_1
 62
    18
 10
519.6855750395968
 20
86.9727
 30
0.0
 11
519.6853750395967
 21
80.0133
 31
0.0
  0
LINE
  5
234
  8
LAYER_1
 62
    18
 10
521.5982750395967
 20
87.9348
 30
0.0
 11
519.6855750395968
 21
86.9727
 31
0.0
  0
ARC
  5
235
  8
LAYER_1
 62
    18
 10
-522.1081741074835
 20
88.8630833818625
 30
0.0
 40
1.059106744607864
 50
245.1549146456922
 51
298.779660669302
210
0.0
220
0.0
230
-1.0
  0
LINE
  5
236
  8
LAYER_1
 62
    18
 10
526.9347750395967
 20
85.3037
 30
0.0
 11
522.5531750395967
 21
87.902
 31
0.0
  0
LINE
  5
237
  8
LAYER_1
 62
    18
 10
563.9730750395968
 20
85.3037
 30
0.0
 11
526.9347750395967
 21
85.3037
 31
0.0
  0
LINE
  5
238
  8
LAYER_1
 62
    18
 10
571.4479750395967
 20
77.8288
 30
0.0
 11
563.9730750395968
 21
85.3037
 31
0.0
  0
ARC
  5
239
  8
LAYER_1
 62
    18
 10
-572.394010134196
 20
77.50470876405934
 30
0.0
 40
1.000008764675213
 50
71.11726866303236
 51
18.91035485408386
210
0.0
220
0.0
230
-1.0
  0
LINE
  5
23A
  8
LAYER_1
 62
    18
 10
509.5642750395967
 20
26.0964
 30
0.0
 11
510.3480193130233
 21
26.29852277476089
 31
0.0
  0
LINE
  5
23B
  8
LAYER_1
 62
    18
 10
510.3480193130233
 20
26.29852277476089
 30
0.0
 11
511.1368162710087
 21
26.47992856650679
 31
0.0
  0
LINE
  5
23C
  8
LAYER_1
 62
    18
 10
511.1368162710087
 20
26.47992856650679
 30
0.0
 11
511.9301183950678
 21
26.64049145813916
 31
0.0
  0
LINE
  5
23D
  8
LAYER_1
 62
    18
 10
511.9301183950678
 20
26.64049145813916
 30
0.0
 11
512.7273750395967
 21
26.7801
 31
0.0
  0
LINE
  5
23E
  8
LAYER_1
 62
    18
 10
512.7273750395967
 20
26.7801
 30
0.0
 11
512.698663850151
 21
26.91906678857881
 31
0.0
  0
LINE
  5
23F
  8
LAYER_1
 62
    18
 10
512.698663850151
 20
26.91906678857881
 30
0.0
 11
512.6747922718632
 21
27.05894619548832
 31
0.0
  0
LINE
  5
240
  8
LAYER_1
 62
    18
 10
512.6747922718632
 20
27.05894619548832
 30
0.0
 11
512.6557890589687
 21
27.19956973059885
 31
0.0
  0
LINE
  5
241
  8
LAYER_1
 62
    18
 10
512.6557890589687
 20
27.19956973059885
 30
0.0
 11
512.6416771015685
 21
27.34076800744964
 31
0.0
  0
LINE
  5
242
  8
LAYER_1
 62
    18
 10
512.6416771015685
 20
27.34076800744964
 30
0.0
 11
512.6324733980586
 21
27.48237094728141
 31
0.0
  0
LINE
  5
243
  8
LAYER_1
 62
    18
 10
512.6324733980586
 20
27.48237094728141
 30
0.0
 11
512.6281890346539
 21
27.62420798390273
 31
0.0
  0
LINE
  5
244
  8
LAYER_1
 62
    18
 10
512.6281890346539
 20
27.62420798390273
 30
0.0
 11
512.6288291720356
 21
27.76610826914357
 31
0.0
  0
LINE
  5
245
  8
LAYER_1
 62
    18
 10
512.6288291720356
 20
27.76610826914357
 30
0.0
 11
512.634393039133
 21
27.90790087864852
 31
0.0
  0
LINE
  5
246
  8
LAYER_1
 62
    18
 10
512.634393039133
 20
27.90790087864852
 30
0.0
 11
512.6448739340543
 21
28.04941501776171
 31
0.0
  0
LINE
  5
247
  8
LAYER_1
 62
    18
 10
512.6448739340543
 20
28.04941501776171
 30
0.0
 11
512.660259232158
 21
28.19048022725561
 31
0.0
  0
LINE
  5
248
  8
LAYER_1
 62
    18
 10
512.660259232158
 20
28.19048022725561
 30
0.0
 11
512.6805304012605
 21
28.33092658865566
 31
0.0
  0
LINE
  5
249
  8
LAYER_1
 62
    18
 10
512.6805304012605
 20
28.33092658865566
 30
0.0
 11
512.7056630239584
 21
28.47058492891369
 31
0.0
  0
LINE
  5
24A
  8
LAYER_1
 62
    18
 10
512.7056630239584
 20
28.47058492891369
 30
0.0
 11
512.7356268270402
 21
28.60928702418329
 31
0.0
  0
LINE
  5
24B
  8
LAYER_1
 62
    18
 10
512.7356268270402
 20
28.60928702418329
 30
0.0
 11
512.7703857179517
 21
28.74686580245197
 31
0.0
  0
LINE
  5
24C
  8
LAYER_1
 62
    18
 10
512.7703857179517
 20
28.74686580245197
 30
0.0
 11
512.809897828271
 21
28.88315554478578
 31
0.0
  0
LINE
  5
24D
  8
LAYER_1
 62
    18
 10
512.809897828271
 20
28.88315554478578
 30
0.0
 11
512.8541155641402
 21
29.0179920849442
 31
0.0
  0
LINE
  5
24E
  8
LAYER_1
 62
    18
 10
512.8541155641402
 20
29.0179920849442
 30
0.0
 11
512.9029856635948
 21
29.15121300712465
 31
0.0
  0
LINE
  5
24F
  8
LAYER_1
 62
    18
 10
512.9029856635948
 20
29.15121300712465
 30
0.0
 11
512.9564492607186
 21
29.28265784159859
 31
0.0
  0
LINE
  5
250
  8
LAYER_1
 62
    18
 10
512.9564492607186
 20
29.28265784159859
 30
0.0
 11
513.0144419565511
 21
29.41216825800348
 31
0.0
  0
LINE
  5
251
  8
LAYER_1
 62
    18
 10
513.0144419565511
 20
29.41216825800348
 30
0.0
 11
513.0768938966582
 21
29.5395882560578
 31
0.0
  0
LINE
  5
252
  8
LAYER_1
 62
    18
 10
513.0768938966582
 20
29.5395882560578
 30
0.0
 11
513.143729855274
 21
29.66476435346942
 31
0.0
  0
LINE
  5
253
  8
LAYER_1
 62
    18
 10
513.143729855274
 20
29.66476435346942
 30
0.0
 11
513.2148693259138
 21
29.78754577081087
 31
0.0
  0
LINE
  5
254
  8
LAYER_1
 62
    18
 10
513.2148693259138
 20
29.78754577081087
 30
0.0
 11
513.2902266183472
 21
29.90778461313903
 31
0.0
  0
LINE
  5
255
  8
LAYER_1
 62
    18
 10
513.2902266183472
 20
29.90778461313903
 30
0.0
 11
513.3697109618148
 21
30.02533604814022
 31
0.0
  0
LINE
  5
256
  8
LAYER_1
 62
    18
 10
513.3697109618148
 20
30.02533604814022
 30
0.0
 11
513.4532266143652
 21
30.14005848058635
 31
0.0
  0
LINE
  5
257
  8
LAYER_1
 62
    18
 10
513.4532266143652
 20
30.14005848058635
 30
0.0
 11
513.5406729781809
 21
30.25181372289177
 31
0.0
  0
LINE
  5
258
  8
LAYER_1
 62
    18
 10
513.5406729781809
 20
30.25181372289177
 30
0.0
 11
513.6319447207502
 21
30.36046716156559
 31
0.0
  0
LINE
  5
259
  8
LAYER_1
 62
    18
 10
513.6319447207502
 20
30.36046716156559
 30
0.0
 11
513.7269319017464
 21
30.46588791935878
 31
0.0
  0
LINE
  5
25A
  8
LAYER_1
 62
    18
 10
513.7269319017464
 20
30.46588791935878
 30
0.0
 11
513.8255201054538
 21
30.56794901291085
 31
0.0
  0
LINE
  5
25B
  8
LAYER_1
 62
    18
 10
513.8255201054538
 20
30.56794901291085
 30
0.0
 11
513.9275905785864
 21
30.6665275057062
 31
0.0
  0
LINE
  5
25C
  8
LAYER_1
 62
    18
 10
513.9275905785864
 20
30.6665275057062
 30
0.0
 11
514.0330203733303
 21
30.76150465615591
 31
0.0
  0
LINE
  5
25D
  8
LAYER_1
 62
    18
 10
514.0330203733303
 20
30.76150465615591
 30
0.0
 11
514.1416824954398
 21
30.85276606062651
 31
0.0
  0
LINE
  5
25E
  8
LAYER_1
 62
    18
 10
514.1416824954398
 20
30.85276606062651
 30
0.0
 11
514.2534460572065
 21
30.94020179124362
 31
0.0
  0
LINE
  5
25F
  8
LAYER_1
 62
    18
 10
514.2534460572065
 20
30.94020179124362
 30
0.0
 11
514.368176435118
 21
31.02370652830421
 31
0.0
  0
LINE
  5
260
  8
LAYER_1
 62
    18
 10
514.368176435118
 20
31.02370652830421
 30
0.0
 11
514.4857354320185
 21
31.10317968713835
 31
0.0
  0
LINE
  5
261
  8
LAYER_1
 62
    18
 10
514.4857354320185
 20
31.10317968713835
 30
0.0
 11
514.605981443571
 21
31.17852553926725
 31
0.0
  0
LINE
  5
262
  8
LAYER_1
 62
    18
 10
514.605981443571
 20
31.17852553926725
 30
0.0
 11
514.7287696288262
 21
31.24965332771189
 31
0.0
  0
LINE
  5
263
  8
LAYER_1
 62
    18
 10
514.7287696288262
 20
31.24965332771189
 30
0.0
 11
514.8539520846888
 21
31.31647737631334
 31
0.0
  0
LINE
  5
264
  8
LAYER_1
 62
    18
 10
514.8539520846888
 20
31.31647737631334
 30
0.0
 11
514.9813780240725
 21
31.37891719293293
 31
0.0
  0
LINE
  5
265
  8
LAYER_1
 62
    18
 10
514.9813780240725
 20
31.37891719293293
 30
0.0
 11
515.1108939575284
 21
31.4368975664082
 31
0.0
  0
LINE
  5
266
  8
LAYER_1
 62
    18
 10
515.1108939575284
 20
31.4368975664082
 30
0.0
 11
515.2423438781296
 21
31.4903486571476
 31
0.0
  0
LINE
  5
267
  8
LAYER_1
 62
    18
 10
515.2423438781296
 20
31.4903486571476
 30
0.0
 11
515.3755694493872
 21
31.53920608125494
 31
0.0
  0
LINE
  5
268
  8
LAYER_1
 62
    18
 10
515.3755694493872
 20
31.53920608125494
 30
0.0
 11
515.5104101959724
 21
31.58341098808234
 31
0.0
  0
LINE
  5
269
  8
LAYER_1
 62
    18
 10
515.5104101959724
 20
31.58341098808234
 30
0.0
 11
515.6467036970162
 21
31.62291013111804
 31
0.0
  0
LINE
  5
26A
  8
LAYER_1
 62
    18
 10
515.6467036970162
 20
31.62291013111804
 30
0.0
 11
515.7842857817502
 21
31.65765593212391
 31
0.0
  0
LINE
  5
26B
  8
LAYER_1
 62
    18
 10
515.7842857817502
 20
31.65765593212391
 30
0.0
 11
515.9229907272579
 21
31.68760653844523
 31
0.0
  0
LINE
  5
26C
  8
LAYER_1
 62
    18
 10
515.9229907272579
 20
31.68760653844523
 30
0.0
 11
516.0626514580933
 21
31.71272587342389
 31
0.0
  0
LINE
  5
26D
  8
LAYER_1
 62
    18
 10
516.0626514580933
 20
31.71272587342389
 30
0.0
 11
516.203099747531
 21
31.73298367985402
 31
0.0
  0
LINE
  5
26E
  8
LAYER_1
 62
    18
 10
516.203099747531
 20
31.73298367985402
 30
0.0
 11
516.3441664201999
 21
31.74835555642805
 31
0.0
  0
LINE
  5
26F
  8
LAYER_1
 62
    18
 10
516.3441664201999
 20
31.74835555642805
 30
0.0
 11
516.4856815558633
 21
31.75882298712898
 31
0.0
  0
LINE
  5
270
  8
LAYER_1
 62
    18
 10
516.4856815558633
 20
31.75882298712898
 30
0.0
 11
516.6274746940932
 21
31.76437336353361
 31
0.0
  0
LINE
  5
271
  8
LAYER_1
 62
    18
 10
516.6274746940932
 20
31.76437336353361
 30
0.0
 11
516.7693750395968
 21
31.76499999999994
 31
0.0
  0
LINE
  5
272
  8
LAYER_1
 62
    18
 10
516.7693750395968
 20
31.76499999999994
 30
0.0
 11
516.910705644139
 21
31.76431924690496
 31
0.0
  0
LINE
  5
273
  8
LAYER_1
 62
    18
 10
516.910705644139
 20
31.76431924690496
 30
0.0
 11
517.051928438959
 21
31.75875818330718
 31
0.0
  0
LINE
  5
274
  8
LAYER_1
 62
    18
 10
517.051928438959
 20
31.75875818330718
 30
0.0
 11
517.1928749515309
 21
31.74832344330853
 31
0.0
  0
LINE
  5
275
  8
LAYER_1
 62
    18
 10
517.1928749515309
 20
31.74832344330853
 30
0.0
 11
517.3333770389223
 21
31.73302747509063
 31
0.0
  0
LINE
  5
276
  8
LAYER_1
 62
    18
 10
517.3333770389223
 20
31.73302747509063
 30
0.0
 11
517.4732670883797
 21
31.71288852606456
 31
0.0
  0
LINE
  5
277
  8
LAYER_1
 62
    18
 10
517.4732670883797
 20
31.71288852606456
 30
0.0
 11
517.6123782172838
 21
31.68793062110256
 31
0.0
  0
LINE
  5
278
  8
LAYER_1
 62
    18
 10
517.6123782172838
 20
31.68793062110256
 30
0.0
 11
517.750544472233
 21
31.65818353387736
 31
0.0
  0
LINE
  5
279
  8
LAYER_1
 62
    18
 10
517.750544472233
 20
31.65818353387736
 30
0.0
 11
517.8876010270183
 21
31.62368275134354
 31
0.0
  0
LINE
  5
27A
  8
LAYER_1
 62
    18
 10
517.8876010270183
 20
31.62368275134354
 30
0.0
 11
518.0233843792538
 21
31.58446943140317
 31
0.0
  0
LINE
  5
27B
  8
LAYER_1
 62
    18
 10
518.0233843792538
 20
31.58446943140317
 30
0.0
 11
518.1577325454277
 21
31.54059035380627
 31
0.0
  0
LINE
  5
27C
  8
LAYER_1
 62
    18
 10
518.1577325454277
 20
31.54059035380627
 30
0.0
 11
518.2904852541416
 21
31.49209786434459
 31
0.0
  0
LINE
  5
27D
  8
LAYER_1
 62
    18
 10
518.2904852541416
 20
31.49209786434459
 30
0.0
 11
518.4214841373068
 21
31.43904981240551
 31
0.0
  0
LINE
  5
27E
  8
LAYER_1
 62
    18
 10
518.4214841373068
 20
31.43904981240551
 30
0.0
 11
518.5505729190709
 21
31.38150948196016
 31
0.0
  0
LINE
  5
27F
  8
LAYER_1
 62
    18
 10
518.5505729190709
 20
31.38150948196016
 30
0.0
 11
518.677597602247
 21
31.31954551606855
 31
0.0
  0
LINE
  5
280
  8
LAYER_1
 62
    18
 10
518.677597602247
 20
31.31954551606855
 30
0.0
 11
518.8024066520273
 21
31.25323183499141
 31
0.0
  0
LINE
  5
281
  8
LAYER_1
 62
    18
 10
518.8024066520273
 20
31.25323183499141
 30
0.0
 11
518.9248511767555
 21
31.18264754800659
 31
0.0
  0
LINE
  5
282
  8
LAYER_1
 62
    18
 10
518.9248511767555
 20
31.18264754800659
 30
0.0
 11
519.0447851055488
 21
31.10787685903522
 31
0.0
  0
LINE
  5
283
  8
LAYER_1
 62
    18
 10
519.0447851055488
 20
31.10787685903522
 30
0.0
 11
519.1620653625544
 21
31.02900896619017
 31
0.0
  0
LINE
  5
284
  8
LAYER_1
 62
    18
 10
519.1620653625544
 20
31.02900896619017
 30
0.0
 11
519.2765520376311
 21
30.94613795536666
 31
0.0
  0
LINE
  5
285
  8
LAYER_1
 62
    18
 10
519.2765520376311
 20
30.94613795536666
 30
0.0
 11
519.3881085532582
 21
30.85936268800194
 31
0.0
  0
LINE
  5
286
  8
LAYER_1
 62
    18
 10
519.3881085532582
 20
30.85936268800194
 30
0.0
 11
519.4966018274642
 21
30.76878668313802
 31
0.0
  0
LINE
  5
287
  8
LAYER_1
 62
    18
 10
519.4966018274642
 20
30.76878668313802
 30
0.0
 11
519.6019024325892
 21
30.67451799392804
 31
0.0
  0
LINE
  5
288
  8
LAYER_1
 62
    18
 10
519.6019024325892
 20
30.67451799392804
 30
0.0
 11
519.7038847496856
 21
30.57666907873363
 31
0.0
  0
LINE
  5
289
  8
LAYER_1
 62
    18
 10
519.7038847496856
 20
30.57666907873363
 30
0.0
 11
519.8024271183759
 21
30.47535666696709
 31
0.0
  0
LINE
  5
28A
  8
LAYER_1
 62
    18
 10
519.8024271183759
 20
30.47535666696709
 30
0.0
 11
519.8974119819887
 21
30.3707016198384
 31
0.0
  0
LINE
  5
28B
  8
LAYER_1
 62
    18
 10
519.8974119819887
 20
30.3707016198384
 30
0.0
 11
519.9887260277983
 21
30.26282878617313
 31
0.0
  0
LINE
  5
28C
  8
LAYER_1
 62
    18
 10
519.9887260277983
 20
30.26282878617313
 30
0.0
 11
520.076260322201
 21
30.15186685347337
 31
0.0
  0
LINE
  5
28D
  8
LAYER_1
 62
    18
 10
520.076260322201
 20
30.15186685347337
 30
0.0
 11
520.1599104406696
 21
30.03794819439922
 31
0.0
  0
LINE
  5
28E
  8
LAYER_1
 62
    18
 10
520.1599104406696
 20
30.03794819439922
 30
0.0
 11
520.239576592326
 21
29.9212087088541
 31
0.0
  0
LINE
  5
28F
  8
LAYER_1
 62
    18
 10
520.239576592326
 20
29.9212087088541
 30
0.0
 11
520.3151637389874
 21
29.8017876618622
 31
0.0
  0
LINE
  5
290
  8
LAYER_1
 62
    18
 10
520.3151637389874
 20
29.8017876618622
 30
0.0
 11
520.3865817085433
 21
29.67982751743146
 31
0.0
  0
LINE
  5
291
  8
LAYER_1
 62
    18
 10
520.3865817085433
 20
29.67982751743146
 30
0.0
 11
520.4537453025264
 21
29.55547376860037
 31
0.0
  0
LINE
  5
292
  8
LAYER_1
 62
    18
 10
520.4537453025264
 20
29.55547376860037
 30
0.0
 11
520.5165743977502
 21
29.42887476387122
 31
0.0
  0
LINE
  5
293
  8
LAYER_1
 62
    18
 10
520.5165743977502
 20
29.42887476387122
 30
0.0
 11
520.5749940418933
 21
29.30018153023692
 31
0.0
  0
LINE
  5
294
  8
LAYER_1
 62
    18
 10
520.5749940418933
 20
29.30018153023692
 30
0.0
 11
520.6289345429135
 21
29.16954759301248
 31
0.0
  0
LINE
  5
295
  8
LAYER_1
 62
    18
 10
520.6289345429135
 20
29.16954759301248
 30
0.0
 11
520.6783315521874
 21
29.03712879268617
 31
0.0
  0
LINE
  5
296
  8
LAYER_1
 62
    18
 10
520.6783315521874
 20
29.03712879268617
 30
0.0
 11
520.7231261412757
 21
28.90308309900869
 31
0.0
  0
LINE
  5
297
  8
LAYER_1
 62
    18
 10
520.7231261412757
 20
28.90308309900869
 30
0.0
 11
520.763264872222
 21
28.76757042254231
 31
0.0
  0
LINE
  5
298
  8
LAYER_1
 62
    18
 10
520.763264872222
 20
28.76757042254231
 30
0.0
 11
520.798699861302
 21
28.63075242389465
 31
0.0
  0
LINE
  5
299
  8
LAYER_1
 62
    18
 10
520.798699861302
 20
28.63075242389465
 30
0.0
 11
520.829388836147
 21
28.49279232086471
 31
0.0
  0
LINE
  5
29A
  8
LAYER_1
 62
    18
 10
520.829388836147
 20
28.49279232086471
 30
0.0
 11
520.855295186172
 21
28.35385469373136
 31
0.0
  0
LINE
  5
29B
  8
LAYER_1
 62
    18
 10
520.855295186172
 20
28.35385469373136
 30
0.0
 11
520.8763880062514
 21
28.21410528891632
 31
0.0
  0
LINE
  5
29C
  8
LAYER_1
 62
    18
 10
520.8763880062514
 20
28.21410528891632
 30
0.0
 11
520.8926421335874
 21
28.07371082125605
 31
0.0
  0
LINE
  5
29D
  8
LAYER_1
 62
    18
 10
520.8926421335874
 20
28.07371082125605
 30
0.0
 11
520.9040381777273
 21
27.93283877511835
 31
0.0
  0
LINE
  5
29E
  8
LAYER_1
 62
    18
 10
520.9040381777273
 20
27.93283877511835
 30
0.0
 11
520.9105625436965
 21
27.79165720460094
 31
0.0
  0
LINE
  5
29F
  8
LAYER_1
 62
    18
 10
520.9105625436965
 20
27.79165720460094
 30
0.0
 11
520.912207448216
 21
27.6503345330504
 31
0.0
  0
LINE
  5
2A0
  8
LAYER_1
 62
    18
 10
520.912207448216
 20
27.6503345330504
 30
0.0
 11
520.9089709289877
 21
27.50903935214054
 31
0.0
  0
LINE
  5
2A1
  8
LAYER_1
 62
    18
 10
520.9089709289877
 20
27.50903935214054
 30
0.0
 11
520.9008568470355
 21
27.36794022075012
 31
0.0
  0
LINE
  5
2A2
  8
LAYER_1
 62
    18
 10
520.9008568470355
 20
27.36794022075012
 30
0.0
 11
520.8878748820987
 21
27.22720546387946
 31
0.0
  0
LINE
  5
2A3
  8
LAYER_1
 62
    18
 10
520.8878748820987
 20
27.22720546387946
 30
0.0
 11
520.8700405210855
 21
27.08700297184629
 31
0.0
  0
LINE
  5
2A4
  8
LAYER_1
 62
    18
 10
520.8700405210855
 20
27.08700297184629
 30
0.0
 11
520.8473750395966
 21
26.94750000000002
 31
0.0
  0
LINE
  5
2A5
  8
LAYER_1
 62
    18
 10
520.8473750395966
 20
26.94750000000002
 30
0.0
 11
521.9032941933084
 21
26.80245904540594
 31
0.0
  0
LINE
  5
2A6
  8
LAYER_1
 62
    18
 10
521.9032941933084
 20
26.80245904540594
 30
0.0
 11
522.9535192313276
 21
26.62071882640529
 31
0.0
  0
LINE
  5
2A7
  8
LAYER_1
 62
    18
 10
522.9535192313276
 20
26.62071882640529
 30
0.0
 11
523.9967750395967
 21
26.4025
 31
0.0
  0
LINE
  5
2A8
  8
LAYER_1
 62
    18
 10
523.9967750395967
 20
26.4025
 30
0.0
 11
523.996775491765
 21
26.40249989537264
 31
0.0
  0
LINE
  5
2A9
  8
LAYER_1
 62
    18
 10
523.996775491765
 20
26.40249989537264
 30
0.0
 11
525.2956639556398
 21
26.08786245571264
 31
0.0
  0
LINE
  5
2AA
  8
LAYER_1
 62
    18
 10
525.2956639556398
 20
26.08786245571264
 30
0.0
 11
526.5957095789133
 21
25.74592513227785
 31
0.0
  0
LINE
  5
2AB
  8
LAYER_1
 62
    18
 10
526.5957095789133
 20
25.74592513227785
 30
0.0
 11
529.1967392974648
 21
24.98758955842553
 31
0.0
  0
LINE
  5
2AC
  8
LAYER_1
 62
    18
 10
529.1967392974648
 20
24.98758955842553
 30
0.0
 11
531.7947745879083
 21
24.14237618677301
 31
0.0
  0
LINE
  5
2AD
  8
LAYER_1
 62
    18
 10
531.7947745879083
 20
24.14237618677301
 30
0.0
 11
534.3847205813072
 21
23.22516914313246
 31
0.0
  0
LINE
  5
2AE
  8
LAYER_1
 62
    18
 10
534.3847205813072
 20
23.22516914313246
 30
0.0
 11
539.5199652012234
 21
21.2343105431358
 31
0.0
  0
LINE
  5
2AF
  8
LAYER_1
 62
    18
 10
539.5199652012234
 20
21.2343105431358
 30
0.0
 11
554.2016895624677
 21
15.08183569989609
 31
0.0
  0
LINE
  5
2B0
  8
LAYER_1
 62
    18
 10
554.2016895624677
 20
15.08183569989609
 30
0.0
 11
556.4895627803064
 21
14.18647126990977
 31
0.0
  0
LINE
  5
2B1
  8
LAYER_1
 62
    18
 10
556.4895627803064
 20
14.18647126990977
 30
0.0
 11
558.718398011732
 21
13.36795442605689
 31
0.0
  0
LINE
  5
2B2
  8
LAYER_1
 62
    18
 10
558.718398011732
 20
13.36795442605689
 30
0.0
 11
560.8831003878076
 21
12.64116929414958
 31
0.0
  0
LINE
  5
2B3
  8
LAYER_1
 62
    18
 10
560.8831003878076
 20
12.64116929414958
 30
0.0
 11
561.9398096085466
 21
12.31682740949181
 31
0.0
  0
LINE
  5
2B4
  8
LAYER_1
 62
    18
 10
561.9398096085466
 20
12.31682740949181
 30
0.0
 11
562.9785750395968
 21
12.021
 31
0.0
  0
LINE
  5
2B5
  8
LAYER_1
 62
    18
 10
562.9785750395968
 20
12.021
 30
0.0
 11
564.2582093254113
 21
11.67878964600013
 31
0.0
  0
LINE
  5
2B6
  8
LAYER_1
 62
    18
 10
564.2582093254113
 20
11.67878964600013
 30
0.0
 11
565.5487281438789
 21
11.38023812448758
 31
0.0
  0
LINE
  5
2B7
  8
LAYER_1
 62
    18
 10
565.5487281438789
 20
11.38023812448758
 30
0.0
 11
566.8486423901453
 21
11.12568992832343
 31
0.0
  0
LINE
  5
2B8
  8
LAYER_1
 62
    18
 10
566.8486423901453
 20
11.12568992832343
 30
0.0
 11
568.1564521181523
 21
10.91543877577753
 31
0.0
  0
LINE
  5
2B9
  8
LAYER_1
 62
    18
 10
568.1564521181523
 20
10.91543877577753
 30
0.0
 11
569.4706482713973
 21
10.74972727161276
 31
0.0
  0
LINE
  5
2BA
  8
LAYER_1
 62
    18
 10
569.4706482713973
 20
10.74972727161276
 30
0.0
 11
570.7897144242044
 21
10.62874662714799
 31
0.0
  0
LINE
  5
2BB
  8
LAYER_1
 62
    18
 10
570.7897144242044
 20
10.62874662714799
 30
0.0
 11
572.1121285314989
 21
10.55263643962302
 31
0.0
  0
LINE
  5
2BC
  8
LAYER_1
 62
    18
 10
572.1121285314989
 20
10.55263643962302
 30
0.0
 11
573.4363646850657
 21
10.52148453112001
 31
0.0
  0
LINE
  5
2BD
  8
LAYER_1
 62
    18
 10
573.4363646850657
 20
10.52148453112001
 30
0.0
 11
574.7608948742654
 21
10.53532684722731
 31
0.0
  0
LINE
  5
2BE
  8
LAYER_1
 62
    18
 10
574.7608948742654
 20
10.53532684722731
 30
0.0
 11
576.0841907491767
 21
10.59414741556247
 31
0.0
  0
LINE
  5
2BF
  8
LAYER_1
 62
    18
 10
576.0841907491767
 20
10.59414741556247
 30
0.0
 11
577.40472538413
 21
10.6978783642025
 31
0.0
  0
LINE
  5
2C0
  8
LAYER_1
 62
    18
 10
577.40472538413
 20
10.6978783642025
 30
0.0
 11
578.7209750395967
 21
10.8464
 31
0.0
  0
LINE
  5
2C1
  8
LAYER_1
 62
    18
 10
578.7209750395967
 20
10.8464
 30
0.0
 11
578.7209754174296
 21
10.84640005254717
 31
0.0
  0
LINE
  5
2C2
  8
LAYER_1
 62
    18
 10
578.7209754174296
 20
10.84640005254717
 30
0.0
 11
579.7738266754203
 21
11.01038177089328
 31
0.0
  0
LINE
  5
2C3
  8
LAYER_1
 62
    18
 10
579.7738266754203
 20
11.01038177089328
 30
0.0
 11
580.2767372031525
 21
11.10211787809071
 31
0.0
  0
LINE
  5
2C4
  8
LAYER_1
 62
    18
 10
580.2767372031525
 20
11.10211787809071
 30
0.0
 11
580.7642983829271
 21
11.20026170621051
 31
0.0
  0
LINE
  5
2C5
  8
LAYER_1
 62
    18
 10
580.7642983829271
 20
11.20026170621051
 30
0.0
 11
581.2367547497159
 21
11.30474628220452
 31
0.0
  0
LINE
  5
2C6
  8
LAYER_1
 62
    18
 10
581.2367547497159
 20
11.30474628220452
 30
0.0
 11
581.6943508384908
 21
11.41550463302457
 31
0.0
  0
LINE
  5
2C7
  8
LAYER_1
 62
    18
 10
581.6943508384908
 20
11.41550463302457
 30
0.0
 11
582.1373311842234
 21
11.53246978562252
 31
0.0
  0
LINE
  5
2C8
  8
LAYER_1
 62
    18
 10
582.1373311842234
 20
11.53246978562252
 30
0.0
 11
582.5659403218857
 21
11.65557476695021
 31
0.0
  0
LINE
  5
2C9
  8
LAYER_1
 62
    18
 10
582.5659403218857
 20
11.65557476695021
 30
0.0
 11
582.9804227864494
 21
11.78475260395948
 31
0.0
  0
LINE
  5
2CA
  8
LAYER_1
 62
    18
 10
582.9804227864494
 20
11.78475260395948
 30
0.0
 11
583.3810231128859
 21
11.91993632360216
 31
0.0
  0
LINE
  5
2CB
  8
LAYER_1
 62
    18
 10
583.3810231128859
 20
11.91993632360216
 30
0.0
 11
583.7679858361674
 21
12.06105895283011
 31
0.0
  0
LINE
  5
2CC
  8
LAYER_1
 62
    18
 10
583.7679858361674
 20
12.06105895283011
 30
0.0
 11
584.1415554912656
 21
12.20805351859516
 31
0.0
  0
LINE
  5
2CD
  8
LAYER_1
 62
    18
 10
584.1415554912656
 20
12.20805351859516
 30
0.0
 11
584.5019766131522
 21
12.36085304784916
 31
0.0
  0
LINE
  5
2CE
  8
LAYER_1
 62
    18
 10
584.5019766131522
 20
12.36085304784916
 30
0.0
 11
584.8494937367991
 21
12.51939056754395
 31
0.0
  0
LINE
  5
2CF
  8
LAYER_1
 62
    18
 10
584.8494937367991
 20
12.51939056754395
 30
0.0
 11
585.1843513971778
 21
12.68359910463136
 31
0.0
  0
LINE
  5
2D0
  8
LAYER_1
 62
    18
 10
585.1843513971778
 20
12.68359910463136
 30
0.0
 11
585.5067941292605
 21
12.85341168606326
 31
0.0
  0
LINE
  5
2D1
  8
LAYER_1
 62
    18
 10
585.5067941292605
 20
12.85341168606326
 30
0.0
 11
585.8170664680185
 21
13.02876133879146
 31
0.0
  0
LINE
  5
2D2
  8
LAYER_1
 62
    18
 10
585.8170664680185
 20
13.02876133879146
 30
0.0
 11
586.1154129484239
 21
13.20958108976783
 31
0.0
  0
LINE
  5
2D3
  8
LAYER_1
 62
    18
 10
586.1154129484239
 20
13.20958108976783
 30
0.0
 11
586.4020781054485
 21
13.39580396594419
 31
0.0
  0
LINE
  5
2D4
  8
LAYER_1
 62
    18
 10
586.4020781054485
 20
13.39580396594419
 30
0.0
 11
586.6773064740638
 21
13.58736299427239
 31
0.0
  0
LINE
  5
2D5
  8
LAYER_1
 62
    18
 10
586.6773064740638
 20
13.58736299427239
 30
0.0
 11
586.9413425892418
 21
13.78419120170428
 31
0.0
  0
LINE
  5
2D6
  8
LAYER_1
 62
    18
 10
586.9413425892418
 20
13.78419120170428
 30
0.0
 11
587.1944309859541
 21
13.9862216151917
 31
0.0
  0
LINE
  5
2D7
  8
LAYER_1
 62
    18
 10
587.1944309859541
 20
13.9862216151917
 30
0.0
 11
587.4368161991725
 21
14.19338726168648
 31
0.0
  0
LINE
  5
2D8
  8
LAYER_1
 62
    18
 10
587.4368161991725
 20
14.19338726168648
 30
0.0
 11
587.668742763869
 21
14.40562116814047
 31
0.0
  0
LINE
  5
2D9
  8
LAYER_1
 62
    18
 10
587.668742763869
 20
14.40562116814047
 30
0.0
 11
587.8904552150151
 21
14.62285636150551
 31
0.0
  0
LINE
  5
2DA
  8
LAYER_1
 62
    18
 10
587.8904552150151
 20
14.62285636150551
 30
0.0
 11
588.1021980875828
 21
14.84502586873345
 31
0.0
  0
LINE
  5
2DB
  8
LAYER_1
 62
    18
 10
588.1021980875828
 20
14.84502586873345
 30
0.0
 11
588.3042159165436
 21
15.07206271677613
 31
0.0
  0
LINE
  5
2DC
  8
LAYER_1
 62
    18
 10
588.3042159165436
 20
15.07206271677613
 30
0.0
 11
588.4967532368696
 21
15.30389993258538
 31
0.0
  0
LINE
  5
2DD
  8
LAYER_1
 62
    18
 10
588.4967532368696
 20
15.30389993258538
 30
0.0
 11
588.6800545835324
 21
15.54047054311305
 31
0.0
  0
LINE
  5
2DE
  8
LAYER_1
 62
    18
 10
588.6800545835324
 20
15.54047054311305
 30
0.0
 11
588.8543644915037
 21
15.78170757531099
 31
0.0
  0
LINE
  5
2DF
  8
LAYER_1
 62
    18
 10
588.8543644915037
 20
15.78170757531099
 30
0.0
 11
589.0199274957554
 21
16.02754405613103
 31
0.0
  0
LINE
  5
2E0
  8
LAYER_1
 62
    18
 10
589.0199274957554
 20
16.02754405613103
 30
0.0
 11
589.1769881312591
 21
16.27791301252502
 31
0.0
  0
LINE
  5
2E1
  8
LAYER_1
 62
    18
 10
589.1769881312591
 20
16.27791301252502
 30
0.0
 11
589.3257909329868
 21
16.5327474714448
 31
0.0
  0
LINE
  5
2E2
  8
LAYER_1
 62
    18
 10
589.3257909329868
 20
16.5327474714448
 30
0.0
 11
589.4665804359101
 21
16.79198045984221
 31
0.0
  0
LINE
  5
2E3
  8
LAYER_1
 62
    18
 10
589.4665804359101
 20
16.79198045984221
 30
0.0
 11
589.599601175001
 21
17.05554500466909
 31
0.0
  0
LINE
  5
2E4
  8
LAYER_1
 62
    18
 10
589.599601175001
 20
17.05554500466909
 30
0.0
 11
589.725097685231
 21
17.32337413287729
 31
0.0
  0
LINE
  5
2E5
  8
LAYER_1
 62
    18
 10
589.725097685231
 20
17.32337413287729
 30
0.0
 11
589.843314501572
 21
17.59540087141864
 31
0.0
  0
LINE
  5
2E6
  8
LAYER_1
 62
    18
 10
589.843314501572
 20
17.59540087141864
 30
0.0
 11
589.9544961589959
 21
17.871558247245
 31
0.0
  0
LINE
  5
2E7
  8
LAYER_1
 62
    18
 10
589.9544961589959
 20
17.871558247245
 30
0.0
 11
590.0588871924742
 21
18.1517792873082
 31
0.0
  0
LINE
  5
2E8
  8
LAYER_1
 62
    18
 10
590.0588871924742
 20
18.1517792873082
 30
0.0
 11
590.1567321369789
 21
18.43599701856008
 31
0.0
  0
LINE
  5
2E9
  8
LAYER_1
 62
    18
 10
590.1567321369789
 20
18.43599701856008
 30
0.0
 11
590.2482755274818
 21
18.72414446795248
 31
0.0
  0
LINE
  5
2EA
  8
LAYER_1
 62
    18
 10
590.2482755274818
 20
18.72414446795248
 30
0.0
 11
590.3337618989544
 21
19.01615466243726
 31
0.0
  0
LINE
  5
2EB
  8
LAYER_1
 62
    18
 10
590.3337618989544
 20
19.01615466243726
 30
0.0
 11
590.4134357863686
 21
19.31196062896625
 31
0.0
  0
LINE
  5
2EC
  8
LAYER_1
 62
    18
 10
590.4134357863686
 20
19.31196062896625
 30
0.0
 11
590.4875417246963
 21
19.61149539449129
 31
0.0
  0
LINE
  5
2ED
  8
LAYER_1
 62
    18
 10
590.4875417246963
 20
19.61149539449129
 30
0.0
 11
590.5563242489092
 21
19.91469198596422
 31
0.0
  0
LINE
  5
2EE
  8
LAYER_1
 62
    18
 10
590.5563242489092
 20
19.91469198596422
 30
0.0
 11
590.6200278939789
 21
20.22148343033689
 31
0.0
  0
LINE
  5
2EF
  8
LAYER_1
 62
    18
 10
590.6200278939789
 20
20.22148343033689
 30
0.0
 11
590.7331766865765
 21
20.84558298558881
 31
0.0
  0
LINE
  5
2F0
  8
LAYER_1
 62
    18
 10
590.7331766865765
 20
20.84558298558881
 30
0.0
 11
590.8289443822632
 21
21.48325827586179
 31
0.0
  0
LINE
  5
2F1
  8
LAYER_1
 62
    18
 10
590.8289443822632
 20
21.48325827586179
 30
0.0
 11
590.9092872608131
 21
22.13397351677055
 31
0.0
  0
LINE
  5
2F2
  8
LAYER_1
 62
    18
 10
590.9092872608131
 20
22.13397351677055
 30
0.0
 11
590.9761616020006
 21
22.79719292392984
 31
0.0
  0
LINE
  5
2F3
  8
LAYER_1
 62
    18
 10
590.9761616020006
 20
22.79719292392984
 30
0.0
 11
591.0315236855997
 21
23.4723807129544
 31
0.0
  0
LINE
  5
2F4
  8
LAYER_1
 62
    18
 10
591.0315236855997
 20
23.4723807129544
 30
0.0
 11
591.1155361991298
 21
24.85651829905825
 31
0.0
  0
LINE
  5
2F5
  8
LAYER_1
 62
    18
 10
591.1155361991298
 20
24.85651829905825
 30
0.0
 11
591.1769750395968
 21
26.2821
 31
0.0
  0
LINE
  5
2F6
  8
LAYER_1
 62
    18
 10
591.1769750395968
 20
26.2821
 30
0.0
 11
591.5467750395966
 21
52.3245
 31
0.0
  0
LINE
  5
2F7
  8
LAYER_1
 62
    18
 10
591.5467750395966
 20
52.3245
 30
0.0
 11
591.5467750420262
 21
52.32450029538558
 31
0.0
  0
LINE
  5
2F8
  8
LAYER_1
 62
    18
 10
591.5467750420262
 20
52.32450029538558
 30
0.0
 11
591.5609547509512
 21
59.06021778041759
 31
0.0
  0
LINE
  5
2F9
  8
LAYER_1
 62
    18
 10
591.5609547509512
 20
59.06021778041759
 30
0.0
 11
591.4743127542358
 21
62.38941602702079
 31
0.0
  0
LINE
  5
2FA
  8
LAYER_1
 62
    18
 10
591.4743127542358
 20
62.38941602702079
 30
0.0
 11
591.3893247878148
 21
64.0436316283378
 31
0.0
  0
LINE
  5
2FB
  8
LAYER_1
 62
    18
 10
591.3893247878148
 20
64.0436316283378
 30
0.0
 11
591.2696125537327
 21
65.69065105662324
 31
0.0
  0
LINE
  5
2FC
  8
LAYER_1
 62
    18
 10
591.2696125537327
 20
65.69065105662324
 30
0.0
 11
591.1099663352758
 21
67.33026894309566
 31
0.0
  0
LINE
  5
2FD
  8
LAYER_1
 62
    18
 10
591.1099663352758
 20
67.33026894309566
 30
0.0
 11
590.9051764157297
 21
68.96227991897366
 31
0.0
  0
LINE
  5
2FE
  8
LAYER_1
 62
    18
 10
590.9051764157297
 20
68.96227991897366
 30
0.0
 11
590.6500330783806
 21
70.58647861547584
 31
0.0
  0
LINE
  5
2FF
  8
LAYER_1
 62
    18
 10
590.6500330783806
 20
70.58647861547584
 30
0.0
 11
590.5019508415567
 21
71.39558418121679
 31
0.0
  0
LINE
  5
300
  8
LAYER_1
 62
    18
 10
590.5019508415567
 20
71.39558418121679
 30
0.0
 11
590.3393266065142
 21
72.20265966382078
 31
0.0
  0
LINE
  5
301
  8
LAYER_1
 62
    18
 10
590.3393266065142
 20
72.20265966382078
 30
0.0
 11
590.1615091586639
 21
73.00767939219008
 31
0.0
  0
LINE
  5
302
  8
LAYER_1
 62
    18
 10
590.1615091586639
 20
73.00767939219008
 30
0.0
 11
589.9678472834166
 21
73.81061769522708
 31
0.0
  0
LINE
  5
303
  8
LAYER_1
 62
    18
 10
589.9678472834166
 20
73.81061769522708
 30
0.0
 11
589.757689766183
 21
74.61144890183404
 31
0.0
  0
LINE
  5
304
  8
LAYER_1
 62
    18
 10
589.757689766183
 20
74.61144890183404
 30
0.0
 11
589.530385392374
 21
75.41014734091331
 31
0.0
  0
LINE
  5
305
  8
LAYER_1
 62
    18
 10
589.530385392374
 20
75.41014734091331
 30
0.0
 11
589.2852829474
 21
76.20668734136723
 31
0.0
  0
LINE
  5
306
  8
LAYER_1
 62
    18
 10
589.2852829474
 20
76.20668734136723
 30
0.0
 11
589.021731216672
 21
77.0010432320981
 31
0.0
  0
LINE
  5
307
  8
LAYER_1
 62
    18
 10
589.021731216672
 20
77.0010432320981
 30
0.0
 11
588.7390789856006
 21
77.79318934200825
 31
0.0
  0
LINE
  5
308
  8
LAYER_1
 62
    18
 10
588.7390789856006
 20
77.79318934200825
 30
0.0
 11
588.4366750395966
 21
78.58309999999999
 31
0.0
  0
LINE
  5
309
  8
LAYER_1
 62
    18
 10
588.4366750395966
 20
78.58309999999999
 30
0.0
 11
588.1139001595506
 21
79.37065394734476
 31
0.0
  0
LINE
  5
30A
  8
LAYER_1
 62
    18
 10
588.1139001595506
 20
79.37065394734476
 30
0.0
 11
587.7703282258335
 21
80.15526873053942
 31
0.0
  0
LINE
  5
30B
  8
LAYER_1
 62
    18
 10
587.7703282258335
 20
80.15526873053942
 30
0.0
 11
587.4055625733249
 21
80.93627212593783
 31
0.0
  0
LINE
  5
30C
  8
LAYER_1
 62
    18
 10
587.4055625733249
 20
80.93627212593783
 30
0.0
 11
587.019207803596
 21
81.71298871264986
 31
0.0
  0
LINE
  5
30D
  8
LAYER_1
 62
    18
 10
587.019207803596
 20
81.71298871264986
 30
0.0
 11
586.6108685182182
 21
82.48474306978538
 31
0.0
  0
LINE
  5
30E
  8
LAYER_1
 62
    18
 10
586.6108685182182
 20
82.48474306978538
 30
0.0
 11
586.1801493187631
 21
83.25085977645428
 31
0.0
  0
LINE
  5
30F
  8
LAYER_1
 62
    18
 10
586.1801493187631
 20
83.25085977645428
 30
0.0
 11
585.726654806802
 21
84.01066341176642
 31
0.0
  0
LINE
  5
310
  8
LAYER_1
 62
    18
 10
585.726654806802
 20
84.01066341176642
 30
0.0
 11
585.2499895839061
 21
84.76347855483168
 31
0.0
  0
LINE
  5
311
  8
LAYER_1
 62
    18
 10
585.2499895839061
 20
84.76347855483168
 30
0.0
 11
584.7497582516469
 21
85.50862978475993
 31
0.0
  0
LINE
  5
312
  8
LAYER_1
 62
    18
 10
584.7497582516469
 20
85.50862978475993
 30
0.0
 11
584.2255654115958
 21
86.24544168066103
 31
0.0
  0
LINE
  5
313
  8
LAYER_1
 62
    18
 10
584.2255654115958
 20
86.24544168066103
 30
0.0
 11
583.677015665324
 21
86.97323882164486
 31
0.0
  0
LINE
  5
314
  8
LAYER_1
 62
    18
 10
583.677015665324
 20
86.97323882164486
 30
0.0
 11
583.1037136144032
 21
87.6913457868213
 31
0.0
  0
LINE
  5
315
  8
LAYER_1
 62
    18
 10
583.1037136144032
 20
87.6913457868213
 30
0.0
 11
582.5052638604046
 21
88.3990871553002
 31
0.0
  0
LINE
  5
316
  8
LAYER_1
 62
    18
 10
582.5052638604046
 20
88.3990871553002
 30
0.0
 11
581.8812710048995
 21
89.09578750619146
 31
0.0
  0
LINE
  5
317
  8
LAYER_1
 62
    18
 10
581.8812710048995
 20
89.09578750619146
 30
0.0
 11
581.2313396494595
 21
89.78077141860493
 31
0.0
  0
LINE
  5
318
  8
LAYER_1
 62
    18
 10
581.2313396494595
 20
89.78077141860493
 30
0.0
 11
580.5550743956559
 21
90.4533634716505
 31
0.0
  0
LINE
  5
319
  8
LAYER_1
 62
    18
 10
580.5550743956559
 20
90.4533634716505
 30
0.0
 11
579.85207984506
 21
91.11288824443804
 31
0.0
  0
LINE
  5
31A
  8
LAYER_1
 62
    18
 10
579.85207984506
 20
91.11288824443804
 30
0.0
 11
579.1219605992433
 21
91.75867031607741
 31
0.0
  0
LINE
  5
31B
  8
LAYER_1
 62
    18
 10
579.1219605992433
 20
91.75867031607741
 30
0.0
 11
578.3643212597772
 21
92.3900342656785
 31
0.0
  0
LINE
  5
31C
  8
LAYER_1
 62
    18
 10
578.3643212597772
 20
92.3900342656785
 30
0.0
 11
577.5787664282329
 21
93.00630467235115
 31
0.0
  0
LINE
  5
31D
  8
LAYER_1
 62
    18
 10
577.5787664282329
 20
93.00630467235115
 30
0.0
 11
576.764900706182
 21
93.60680611520527
 31
0.0
  0
LINE
  5
31E
  8
LAYER_1
 62
    18
 10
576.764900706182
 20
93.60680611520527
 30
0.0
 11
575.9223286951958
 21
94.19086317335072
 31
0.0
  0
LINE
  5
31F
  8
LAYER_1
 62
    18
 10
575.9223286951958
 20
94.19086317335072
 30
0.0
 11
575.0506549968457
 21
94.75780042589734
 31
0.0
  0
LINE
  5
320
  8
LAYER_1
 62
    18
 10
575.0506549968457
 20
94.75780042589734
 30
0.0
 11
574.1494842127031
 21
95.30694245195505
 31
0.0
  0
LINE
  5
321
  8
LAYER_1
 62
    18
 10
574.1494842127031
 20
95.30694245195505
 30
0.0
 11
573.2184209443393
 21
95.83761383063371
 31
0.0
  0
LINE
  5
322
  8
LAYER_1
 62
    18
 10
573.2184209443393
 20
95.83761383063371
 30
0.0
 11
572.2570697933256
 21
96.3491391410432
 31
0.0
  0
LINE
  5
323
  8
LAYER_1
 62
    18
 10
572.2570697933256
 20
96.3491391410432
 30
0.0
 11
571.2650353612337
 21
96.84084296229335
 31
0.0
  0
LINE
  5
324
  8
LAYER_1
 62
    18
 10
571.2650353612337
 20
96.84084296229335
 30
0.0
 11
570.2419222496349
 21
97.31204987349408
 31
0.0
  0
LINE
  5
325
  8
LAYER_1
 62
    18
 10
570.2419222496349
 20
97.31204987349408
 30
0.0
 11
569.1873350601004
 21
97.76208445375524
 31
0.0
  0
LINE
  5
326
  8
LAYER_1
 62
    18
 10
569.1873350601004
 20
97.76208445375524
 30
0.0
 11
568.1008783942015
 21
98.19027128218667
 31
0.0
  0
LINE
  5
327
  8
LAYER_1
 62
    18
 10
568.1008783942015
 20
98.19027128218667
 30
0.0
 11
566.9821568535099
 21
98.5959349378983
 31
0.0
  0
LINE
  5
328
  8
LAYER_1
 62
    18
 10
566.9821568535099
 20
98.5959349378983
 30
0.0
 11
565.8307750395967
 21
98.97839999999998
 31
0.0
  0
LINE
  5
329
  8
LAYER_1
 62
    18
 10
565.8307750395967
 20
98.97839999999998
 30
0.0
 11
564.6482720300558
 21
99.3367459451114
 31
0.0
  0
LINE
  5
32A
  8
LAYER_1
 62
    18
 10
564.6482720300558
 20
99.3367459451114
 30
0.0
 11
563.4338696269124
 21
99.67207860068528
 31
0.0
  0
LINE
  5
32B
  8
LAYER_1
 62
    18
 10
563.4338696269124
 20
99.67207860068528
 30
0.0
 11
562.1886208841572
 21
99.98519489510355
 31
0.0
  0
LINE
  5
32C
  8
LAYER_1
 62
    18
 10
562.1886208841572
 20
99.98519489510355
 30
0.0
 11
560.9135835827526
 21
100.2768902565463
 31
0.0
  0
LINE
  5
32D
  8
LAYER_1
 62
    18
 10
560.9135835827526
 20
100.2768902565463
 30
0.0
 11
559.6098155036611
 21
100.5479601131936
 31
0.0
  0
LINE
  5
32E
  8
LAYER_1
 62
    18
 10
559.6098155036611
 20
100.5479601131936
 30
0.0
 11
558.2783744278453
 21
100.7991998932256
 31
0.0
  0
LINE
  5
32F
  8
LAYER_1
 62
    18
 10
558.2783744278453
 20
100.7991998932256
 30
0.0
 11
555.5367044098906
 21
101.2453709361637
 31
0.0
  0
LINE
  5
330
  8
LAYER_1
 62
    18
 10
555.5367044098906
 20
101.2453709361637
 30
0.0
 11
552.6970357765886
 21
101.6217668108013
 31
0.0
  0
LINE
  5
331
  8
LAYER_1
 62
    18
 10
552.6970357765886
 20
101.6217668108013
 30
0.0
 11
549.7678307756396
 21
101.934750942579
 31
0.0
  0
LINE
  5
332
  8
LAYER_1
 62
    18
 10
549.7678307756396
 20
101.934750942579
 30
0.0
 11
546.7575516547436
 21
102.1906867569374
 31
0.0
  0
LINE
  5
333
  8
LAYER_1
 62
    18
 10
546.7575516547436
 20
102.1906867569374
 30
0.0
 11
543.674660661601
 21
102.3959376793172
 31
0.0
  0
LINE
  5
334
  8
LAYER_1
 62
    18
 10
543.674660661601
 20
102.3959376793172
 30
0.0
 11
537.3248920493761
 21
102.6798385499035
 31
0.0
  0
LINE
  5
335
  8
LAYER_1
 62
    18
 10
537.3248920493761
 20
102.6798385499035
 30
0.0
 11
517.4129750395967
 21
102.9769
 31
0.0
  0
LINE
  5
336
  8
LAYER_1
 62
    18
 10
517.4129750395967
 20
102.9769
 30
0.0
 11
497.5010923771646
 21
102.6798384707994
 31
0.0
  0
LINE
  5
337
  8
LAYER_1
 62
    18
 10
497.5010923771646
 20
102.6798384707994
 30
0.0
 11
491.1513104015789
 21
102.3959375003325
 31
0.0
  0
LINE
  5
338
  8
LAYER_1
 62
    18
 10
491.1513104015789
 20
102.3959375003325
 30
0.0
 11
488.0684089810441
 21
102.1906865008173
 31
0.0
  0
LINE
  5
339
  8
LAYER_1
 62
    18
 10
488.0684089810441
 20
102.1906865008173
 30
0.0
 11
485.0581173303023
 21
101.9347505883863
 31
0.0
  0
LINE
  5
33A
  8
LAYER_1
 62
    18
 10
485.0581173303023
 20
101.9347505883863
 30
0.0
 11
482.1288979930696
 21
101.6217663354937
 31
0.0
  0
LINE
  5
33B
  8
LAYER_1
 62
    18
 10
482.1288979930696
 20
101.6217663354937
 30
0.0
 11
479.2892135130617
 21
101.2453703145936
 31
0.0
  0
LINE
  5
33C
  8
LAYER_1
 62
    18
 10
479.2892135130617
 20
101.2453703145936
 30
0.0
 11
476.5475264339947
 21
100.79919909814
 31
0.0
  0
LINE
  5
33D
  8
LAYER_1
 62
    18
 10
476.5475264339947
 20
100.79919909814
 30
0.0
 11
475.2160764647251
 21
100.5479592204726
 31
0.0
  0
LINE
  5
33E
  8
LAYER_1
 62
    18
 10
475.2160764647251
 20
100.5479592204726
 30
0.0
 11
473.9122992995842
 21
100.2768892585872
 31
0.0
  0
LINE
  5
33F
  8
LAYER_1
 62
    18
 10
473.9122992995842
 20
100.2768892585872
 30
0.0
 11
472.6372527565364
 21
99.98519378404045
 31
0.0
  0
LINE
  5
340
  8
LAYER_1
 62
    18
 10
472.6372527565364
 20
99.98519378404045
 30
0.0
 11
471.3919946535462
 21
99.67207736838915
 31
0.0
  0
LINE
  5
341
  8
LAYER_1
 62
    18
 10
471.3919946535462
 20
99.67207736838915
 30
0.0
 11
470.1775828085782
 21
99.33674458319008
 31
0.0
  0
LINE
  5
342
  8
LAYER_1
 62
    18
 10
470.1775828085782
 20
99.33674458319008
 30
0.0
 11
468.9950750395968
 21
98.9784
 31
0.0
  0
LINE
  5
343
  8
LAYER_1
 62
    18
 10
468.9950750395968
 20
98.9784
 30
0.0
 11
467.8436890943534
 21
98.59593343342848
 31
0.0
  0
LINE
  5
344
  8
LAYER_1
 62
    18
 10
467.8436890943534
 20
98.59593343342848
 30
0.0
 11
466.7249687041043
 21
98.19026977540155
 31
0.0
  0
LINE
  5
345
  8
LAYER_1
 62
    18
 10
466.7249687041043
 20
98.19026977540155
 30
0.0
 11
465.6385137190851
 21
97.76208294416878
 31
0.0
  0
LINE
  5
346
  8
LAYER_1
 62
    18
 10
465.6385137190851
 20
97.76208294416878
 30
0.0
 11
464.5839287231915
 21
97.31204836031
 31
0.0
  0
LINE
  5
347
  8
LAYER_1
 62
    18
 10
464.5839287231915
 20
97.31204836031
 30
0.0
 11
463.5608183003193
 21
96.84084144440496
 31
0.0
  0
LINE
  5
348
  8
LAYER_1
 62
    18
 10
463.5608183003193
 20
96.84084144440496
 30
0.0
 11
462.568787034364
 21
96.34913761703343
 31
0.0
  0
LINE
  5
349
  8
LAYER_1
 62
    18
 10
462.568787034364
 20
96.34913761703343
 30
0.0
 11
461.6074395092214
 21
95.83761229877521
 31
0.0
  0
LINE
  5
34A
  8
LAYER_1
 62
    18
 10
461.6074395092214
 20
95.83761229877521
 30
0.0
 11
460.676380308787
 21
95.30694091021009
 31
0.0
  0
LINE
  5
34B
  8
LAYER_1
 62
    18
 10
460.676380308787
 20
95.30694091021009
 30
0.0
 11
459.7752140169567
 21
94.75779887191783
 31
0.0
  0
LINE
  5
34C
  8
LAYER_1
 62
    18
 10
459.7752140169567
 20
94.75779887191783
 30
0.0
 11
458.9035452176261
 21
94.19086160447821
 31
0.0
  0
LINE
  5
34D
  8
LAYER_1
 62
    18
 10
458.9035452176261
 20
94.19086160447821
 30
0.0
 11
458.0609784946906
 21
93.606804528471
 31
0.0
  0
LINE
  5
34E
  8
LAYER_1
 62
    18
 10
458.0609784946906
 20
93.606804528471
 30
0.0
 11
457.2471184320462
 21
93.00630306447603
 31
0.0
  0
LINE
  5
34F
  8
LAYER_1
 62
    18
 10
457.2471184320462
 20
93.00630306447603
 30
0.0
 11
456.4615696135885
 21
92.39003263307303
 31
0.0
  0
LINE
  5
350
  8
LAYER_1
 62
    18
 10
456.4615696135885
 20
92.39003263307303
 30
0.0
 11
455.7039366232131
 21
91.75866865484178
 31
0.0
  0
LINE
  5
351
  8
LAYER_1
 62
    18
 10
455.7039366232131
 20
91.75866865484178
 30
0.0
 11
454.9738240448157
 21
91.11288655036209
 31
0.0
  0
LINE
  5
352
  8
LAYER_1
 62
    18
 10
454.9738240448157
 20
91.11288655036209
 30
0.0
 11
454.270836462292
 21
90.45336174021372
 31
0.0
  0
LINE
  5
353
  8
LAYER_1
 62
    18
 10
454.270836462292
 20
90.45336174021372
 30
0.0
 11
453.5945784595376
 21
89.78076964497646
 31
0.0
  0
LINE
  5
354
  8
LAYER_1
 62
    18
 10
453.5945784595376
 20
89.78076964497646
 30
0.0
 11
452.9446546204481
 21
89.09578568523007
 31
0.0
  0
LINE
  5
355
  8
LAYER_1
 62
    18
 10
452.9446546204481
 20
89.09578568523007
 30
0.0
 11
452.3206695289194
 21
88.39908528155433
 31
0.0
  0
LINE
  5
356
  8
LAYER_1
 62
    18
 10
452.3206695289194
 20
88.39908528155433
 30
0.0
 11
451.7222277688471
 21
87.69134385452907
 31
0.0
  0
LINE
  5
357
  8
LAYER_1
 62
    18
 10
451.7222277688471
 20
87.69134385452907
 30
0.0
 11
451.1489339241267
 21
86.97323682473402
 31
0.0
  0
LINE
  5
358
  8
LAYER_1
 62
    18
 10
451.1489339241267
 20
86.97323682473402
 30
0.0
 11
450.600392578654
 21
86.24543961274895
 31
0.0
  0
LINE
  5
359
  8
LAYER_1
 62
    18
 10
450.600392578654
 20
86.24543961274895
 30
0.0
 11
450.0762083163247
 21
85.50862763915367
 31
0.0
  0
LINE
  5
35A
  8
LAYER_1
 62
    18
 10
450.0762083163247
 20
85.50862763915367
 30
0.0
 11
449.5759857210343
 21
84.76347632452796
 31
0.0
  0
LINE
  5
35B
  8
LAYER_1
 62
    18
 10
449.5759857210343
 20
84.76347632452796
 30
0.0
 11
449.0993293766787
 21
84.01066108945159
 31
0.0
  0
LINE
  5
35C
  8
LAYER_1
 62
    18
 10
449.0993293766787
 20
84.01066108945159
 30
0.0
 11
448.6458438671534
 21
83.25085735450433
 31
0.0
  0
LINE
  5
35D
  8
LAYER_1
 62
    18
 10
448.6458438671534
 20
83.25085735450433
 30
0.0
 11
448.2151337763542
 21
82.48474054026597
 31
0.0
  0
LINE
  5
35E
  8
LAYER_1
 62
    18
 10
448.2151337763542
 20
82.48474054026597
 30
0.0
 11
447.8068036881766
 21
81.71298606731631
 31
0.0
  0
LINE
  5
35F
  8
LAYER_1
 62
    18
 10
447.8068036881766
 20
81.71298606731631
 30
0.0
 11
447.4204581865164
 21
80.9362693562351
 31
0.0
  0
LINE
  5
360
  8
LAYER_1
 62
    18
 10
447.4204581865164
 20
80.9362693562351
 30
0.0
 11
447.0557018552693
 21
80.15526582760212
 31
0.0
  0
LINE
  5
361
  8
LAYER_1
 62
    18
 10
447.0557018552693
 20
80.15526582760212
 30
0.0
 11
446.7121392783308
 21
79.37065090199715
 31
0.0
  0
LINE
  5
362
  8
LAYER_1
 62
    18
 10
446.7121392783308
 20
79.37065090199715
 30
0.0
 11
446.3893750395968
 21
78.5831
 31
0.0
  0
LINE
  5
363
  8
LAYER_1
 62
    18
 10
446.3893750395968
 20
78.5831
 30
0.0
 11
446.0869611463334
 21
77.79318628332149
 31
0.0
  0
LINE
  5
364
  8
LAYER_1
 62
    18
 10
446.0869611463334
 20
77.79318628332149
 30
0.0
 11
445.804301344287
 21
77.00104030294946
 31
0.0
  0
LINE
  5
365
  8
LAYER_1
 62
    18
 10
445.804301344287
 20
77.00104030294946
 30
0.0
 11
445.540743097482
 21
76.20668453273161
 31
0.0
  0
LINE
  5
366
  8
LAYER_1
 62
    18
 10
445.540743097482
 20
76.20668453273161
 30
0.0
 11
445.2956351366347
 21
75.41014464372168
 31
0.0
  0
LINE
  5
367
  8
LAYER_1
 62
    18
 10
445.2956351366347
 20
75.41014464372168
 30
0.0
 11
445.0683261924613
 21
74.6114463069734
 31
0.0
  0
LINE
  5
368
  8
LAYER_1
 62
    18
 10
445.0683261924613
 20
74.6114463069734
 30
0.0
 11
444.858164995678
 21
73.8106151935405
 31
0.0
  0
LINE
  5
369
  8
LAYER_1
 62
    18
 10
444.858164995678
 20
73.8106151935405
 30
0.0
 11
444.6645002770009
 21
73.00767697447671
 31
0.0
  0
LINE
  5
36A
  8
LAYER_1
 62
    18
 10
444.6645002770009
 20
73.00767697447671
 30
0.0
 11
444.4866807671464
 21
72.20265732083575
 31
0.0
  0
LINE
  5
36B
  8
LAYER_1
 62
    18
 10
444.4866807671464
 20
72.20265732083575
 30
0.0
 11
444.3240551968306
 21
71.39558190367137
 31
0.0
  0
LINE
  5
36C
  8
LAYER_1
 62
    18
 10
444.3240551968306
 20
71.39558190367137
 30
0.0
 11
444.1759722967699
 21
70.58647639403726
 31
0.0
  0
LINE
  5
36D
  8
LAYER_1
 62
    18
 10
444.1759722967699
 20
70.58647639403726
 30
0.0
 11
443.9208294302783
 21
68.96227778157488
 31
0.0
  0
LINE
  5
36E
  8
LAYER_1
 62
    18
 10
443.9208294302783
 20
68.96227778157488
 30
0.0
 11
443.7160420134016
 21
67.33026685187843
 31
0.0
  0
LINE
  5
36F
  8
LAYER_1
 62
    18
 10
443.7160420134016
 20
67.33026685187843
 30
0.0
 11
443.5563998918694
 21
65.69064897337773
 31
0.0
  0
LINE
  5
370
  8
LAYER_1
 62
    18
 10
443.5563998918694
 20
65.69064897337773
 30
0.0
 11
443.4366929114117
 21
64.04362951450264
 31
0.0
  0
LINE
  5
371
  8
LAYER_1
 62
    18
 10
443.4366929114117
 20
64.04362951450264
 30
0.0
 11
443.3517109177581
 21
62.38941384368299
 31
0.0
  0
LINE
  5
372
  8
LAYER_1
 62
    18
 10
443.3517109177581
 20
62.38941384368299
 30
0.0
 11
443.2650812737832
 21
59.06021533992934
 31
0.0
  0
LINE
  5
373
  8
LAYER_1
 62
    18
 10
443.2650812737832
 20
59.06021533992934
 30
0.0
 11
443.2792750395968
 21
52.3245
 31
0.0
  0
LINE
  5
374
  8
LAYER_1
 62
    18
 10
443.2792750395968
 20
52.3245
 30
0.0
 11
443.6489750395967
 21
26.2821
 31
0.0
  0
LINE
  5
375
  8
LAYER_1
 62
    18
 10
443.6489750395967
 20
26.2821
 30
0.0
 11
443.6489750746755
 21
26.2820990849125
 31
0.0
  0
LINE
  5
376
  8
LAYER_1
 62
    18
 10
443.6489750746755
 20
26.2820990849125
 30
0.0
 11
443.7104304728474
 21
24.85651568166216
 31
0.0
  0
LINE
  5
377
  8
LAYER_1
 62
    18
 10
443.7104304728474
 20
24.85651568166216
 30
0.0
 11
443.7944552251395
 21
23.47237836846019
 31
0.0
  0
LINE
  5
378
  8
LAYER_1
 62
    18
 10
443.7944552251395
 20
23.47237836846019
 30
0.0
 11
443.8498219767463
 21
22.79719070270389
 31
0.0
  0
LINE
  5
379
  8
LAYER_1
 62
    18
 10
443.8498219767463
 20
22.79719070270389
 30
0.0
 11
443.9167000926473
 21
22.13397141059002
 31
0.0
  0
LINE
  5
37A
  8
LAYER_1
 62
    18
 10
443.9167000926473
 20
22.13397141059002
 30
0.0
 11
443.9970459083329
 21
21.48325627692808
 31
0.0
  0
LINE
  5
37B
  8
LAYER_1
 62
    18
 10
443.9970459083329
 20
21.48325627692808
 30
0.0
 11
444.0928157592933
 21
20.84558108652755
 31
0.0
  0
LINE
  5
37C
  8
LAYER_1
 62
    18
 10
444.0928157592933
 20
20.84558108652755
 30
0.0
 11
444.2059659810189
 21
20.22148162419791
 31
0.0
  0
LINE
  5
37D
  8
LAYER_1
 62
    18
 10
444.2059659810189
 20
20.22148162419791
 30
0.0
 11
444.2696700857594
 21
19.91469022381263
 31
0.0
  0
LINE
  5
37E
  8
LAYER_1
 62
    18
 10
444.2696700857594
 20
19.91469022381263
 30
0.0
 11
444.338452909
 21
19.61149367474864
 31
0.0
  0
LINE
  5
37F
  8
LAYER_1
 62
    18
 10
444.338452909
 20
19.61149367474864
 30
0.0
 11
444.4125589926771
 21
19.31195895010712
 31
0.0
  0
LINE
  5
380
  8
LAYER_1
 62
    18
 10
444.4125589926771
 20
19.31195895010712
 30
0.0
 11
444.4922328787268
 21
19.01615302298925
 31
0.0
  0
LINE
  5
381
  8
LAYER_1
 62
    18
 10
444.4922328787268
 20
19.01615302298925
 30
0.0
 11
444.5777191090857
 21
18.72414286649622
 31
0.0
  0
LINE
  5
382
  8
LAYER_1
 62
    18
 10
444.5777191090857
 20
18.72414286649622
 30
0.0
 11
444.6692622256898
 21
18.43599545372921
 31
0.0
  0
LINE
  5
383
  8
LAYER_1
 62
    18
 10
444.6692622256898
 20
18.43599545372921
 30
0.0
 11
444.7671067704756
 21
18.15177775778941
 31
0.0
  0
LINE
  5
384
  8
LAYER_1
 62
    18
 10
444.7671067704756
 20
18.15177775778941
 30
0.0
 11
444.8714972853792
 21
17.871556751778
 31
0.0
  0
LINE
  5
385
  8
LAYER_1
 62
    18
 10
444.8714972853792
 20
17.871556751778
 30
0.0
 11
444.9826783123369
 21
17.59539940879618
 31
0.0
  0
LINE
  5
386
  8
LAYER_1
 62
    18
 10
444.9826783123369
 20
17.59539940879618
 30
0.0
 11
445.1008943932852
 21
17.32337270194512
 31
0.0
  0
LINE
  5
387
  8
LAYER_1
 62
    18
 10
445.1008943932852
 20
17.32337270194512
 30
0.0
 11
445.2263900701602
 21
17.05554360432601
 31
0.0
  0
LINE
  5
388
  8
LAYER_1
 62
    18
 10
445.2263900701602
 20
17.05554360432601
 30
0.0
 11
445.3594098848982
 21
16.79197908904004
 31
0.0
  0
LINE
  5
389
  8
LAYER_1
 62
    18
 10
445.3594098848982
 20
16.79197908904004
 30
0.0
 11
445.5001983794355
 21
16.53274612918839
 31
0.0
  0
LINE
  5
38A
  8
LAYER_1
 62
    18
 10
445.5001983794355
 20
16.53274612918839
 30
0.0
 11
445.6490000957085
 21
16.27791169787226
 31
0.0
  0
LINE
  5
38B
  8
LAYER_1
 62
    18
 10
445.6490000957085
 20
16.27791169787226
 30
0.0
 11
445.8060595756534
 21
16.02754276819281
 31
0.0
  0
LINE
  5
38C
  8
LAYER_1
 62
    18
 10
445.8060595756534
 20
16.02754276819281
 30
0.0
 11
445.9716213612065
 21
15.78170631325125
 31
0.0
  0
LINE
  5
38D
  8
LAYER_1
 62
    18
 10
445.9716213612065
 20
15.78170631325125
 30
0.0
 11
446.145929994304
 21
15.54046930614875
 31
0.0
  0
LINE
  5
38E
  8
LAYER_1
 62
    18
 10
446.145929994304
 20
15.54046930614875
 30
0.0
 11
446.3292300168823
 21
15.30389871998651
 31
0.0
  0
LINE
  5
38F
  8
LAYER_1
 62
    18
 10
446.3292300168823
 20
15.30389871998651
 30
0.0
 11
446.5217659708777
 21
15.0720615278657
 31
0.0
  0
LINE
  5
390
  8
LAYER_1
 62
    18
 10
446.5217659708777
 20
15.0720615278657
 30
0.0
 11
446.7237823982264
 21
14.84502470288752
 31
0.0
  0
LINE
  5
391
  8
LAYER_1
 62
    18
 10
446.7237823982264
 20
14.84502470288752
 30
0.0
 11
446.9355238408647
 21
14.62285521815315
 31
0.0
  0
LINE
  5
392
  8
LAYER_1
 62
    18
 10
446.9355238408647
 20
14.62285521815315
 30
0.0
 11
447.157234840729
 21
14.40562004676377
 31
0.0
  0
LINE
  5
393
  8
LAYER_1
 62
    18
 10
447.157234840729
 20
14.40562004676377
 30
0.0
 11
447.3891599397555
 21
14.19338616182057
 31
0.0
  0
LINE
  5
394
  8
LAYER_1
 62
    18
 10
447.3891599397555
 20
14.19338616182057
 30
0.0
 11
447.6315436798805
 21
13.98622053642474
 31
0.0
  0
LINE
  5
395
  8
LAYER_1
 62
    18
 10
447.6315436798805
 20
13.98622053642474
 30
0.0
 11
447.8846306030403
 21
13.78419014367746
 31
0.0
  0
LINE
  5
396
  8
LAYER_1
 62
    18
 10
447.8846306030403
 20
13.78419014367746
 30
0.0
 11
448.1486652511711
 21
13.58736195667992
 31
0.0
  0
LINE
  5
397
  8
LAYER_1
 62
    18
 10
448.1486652511711
 20
13.58736195667992
 30
0.0
 11
448.4238921662093
 21
13.3958029485333
 31
0.0
  0
LINE
  5
398
  8
LAYER_1
 62
    18
 10
448.4238921662093
 20
13.3958029485333
 30
0.0
 11
448.7105558900911
 21
13.20958009233879
 31
0.0
  0
LINE
  5
399
  8
LAYER_1
 62
    18
 10
448.7105558900911
 20
13.20958009233879
 30
0.0
 11
449.0089009647529
 21
13.02876036119758
 31
0.0
  0
LINE
  5
39A
  8
LAYER_1
 62
    18
 10
449.0089009647529
 20
13.02876036119758
 30
0.0
 11
449.3191719321308
 21
12.85341072821084
 31
0.0
  0
LINE
  5
39B
  8
LAYER_1
 62
    18
 10
449.3191719321308
 20
12.85341072821084
 30
0.0
 11
449.6416133341613
 21
12.68359816647978
 31
0.0
  0
LINE
  5
39C
  8
LAYER_1
 62
    18
 10
449.6416133341613
 20
12.68359816647978
 30
0.0
 11
449.9764697127806
 21
12.51938964910556
 31
0.0
  0
LINE
  5
39D
  8
LAYER_1
 62
    18
 10
449.9764697127806
 20
12.51938964910556
 30
0.0
 11
450.323985609925
 21
12.36085214918938
 31
0.0
  0
LINE
  5
39E
  8
LAYER_1
 62
    18
 10
450.323985609925
 20
12.36085214918938
 30
0.0
 11
450.6844055675308
 21
12.20805263983243
 31
0.0
  0
LINE
  5
39F
  8
LAYER_1
 62
    18
 10
450.6844055675308
 20
12.20805263983243
 30
0.0
 11
451.0579741275343
 21
12.06105809413588
 31
0.0
  0
LINE
  5
3A0
  8
LAYER_1
 62
    18
 10
451.0579741275343
 20
12.06105809413588
 30
0.0
 11
451.4449358318716
 21
11.91993548520093
 31
0.0
  0
LINE
  5
3A1
  8
LAYER_1
 62
    18
 10
451.4449358318716
 20
11.91993548520093
 30
0.0
 11
451.8455352224793
 21
11.78475178612876
 31
0.0
  0
LINE
  5
3A2
  8
LAYER_1
 62
    18
 10
451.8455352224793
 20
11.78475178612876
 30
0.0
 11
452.2600168412935
 21
11.65557397002056
 31
0.0
  0
LINE
  5
3A3
  8
LAYER_1
 62
    18
 10
452.2600168412935
 20
11.65557397002056
 30
0.0
 11
452.6886252302505
 21
11.53246900997751
 31
0.0
  0
LINE
  5
3A4
  8
LAYER_1
 62
    18
 10
452.6886252302505
 20
11.53246900997751
 30
0.0
 11
453.1316049312867
 21
11.41550387910079
 31
0.0
  0
LINE
  5
3A5
  8
LAYER_1
 62
    18
 10
453.1316049312867
 20
11.41550387910079
 30
0.0
 11
453.5892004863382
 21
11.3047455504916
 31
0.0
  0
LINE
  5
3A6
  8
LAYER_1
 62
    18
 10
453.5892004863382
 20
11.3047455504916
 30
0.0
 11
454.0616564373414
 21
11.20026099725112
 31
0.0
  0
LINE
  5
3A7
  8
LAYER_1
 62
    18
 10
454.0616564373414
 20
11.20026099725112
 30
0.0
 11
454.5492173262325
 21
11.10211719248053
 31
0.0
  0
LINE
  5
3A8
  8
LAYER_1
 62
    18
 10
454.5492173262325
 20
11.10211719248053
 30
0.0
 11
455.052127694948
 21
11.01038110928103
 31
0.0
  0
LINE
  5
3A9
  8
LAYER_1
 62
    18
 10
455.052127694948
 20
11.01038110928103
 30
0.0
 11
456.1049750395968
 21
10.8464
 31
0.0
  0
LINE
  5
3AA
  8
LAYER_1
 62
    18
 10
456.1049750395968
 20
10.8464
 30
0.0
 11
457.4212163932295
 21
10.69787845136688
 31
0.0
  0
LINE
  5
3AB
  8
LAYER_1
 62
    18
 10
457.4212163932295
 20
10.69787845136688
 30
0.0
 11
458.741742749088
 21
10.59414757407158
 31
0.0
  0
LINE
  5
3AC
  8
LAYER_1
 62
    18
 10
458.741742749088
 20
10.59414757407158
 30
0.0
 11
460.0650303591152
 21
10.53532706259956
 31
0.0
  0
LINE
  5
3AD
  8
LAYER_1
 62
    18
 10
460.0650303591152
 20
10.53532706259956
 30
0.0
 11
461.3895522890581
 21
10.52148478961362
 31
0.0
  0
LINE
  5
3AE
  8
LAYER_1
 62
    18
 10
461.3895522890581
 20
10.52148478961362
 30
0.0
 11
462.7137801803891
 21
10.55263672763599
 31
0.0
  0
LINE
  5
3AF
  8
LAYER_1
 62
    18
 10
462.7137801803891
 20
10.55263672763599
 30
0.0
 11
464.0361860138697
 21
10.62874693061772
 31
0.0
  0
LINE
  5
3B0
  8
LAYER_1
 62
    18
 10
464.0361860138697
 20
10.62874693061772
 30
0.0
 11
465.355243872724
 21
10.74972757541659
 31
0.0
  0
LINE
  5
3B1
  8
LAYER_1
 62
    18
 10
465.355243872724
 20
10.74972757541659
 30
0.0
 11
466.6694317033857
 21
10.91543906313586
 31
0.0
  0
LINE
  5
3B2
  8
LAYER_1
 62
    18
 10
466.6694317033857
 20
10.91543906313586
 30
0.0
 11
467.9772330717868
 21
11.12569018020652
 31
0.0
  0
LINE
  5
3B3
  8
LAYER_1
 62
    18
 10
467.9772330717868
 20
11.12569018020652
 30
0.0
 11
469.277138913163
 21
11.3802383190277
 31
0.0
  0
LINE
  5
3B4
  8
LAYER_1
 62
    18
 10
469.277138913163
 20
11.3802383190277
 30
0.0
 11
470.5676492733548
 21
11.67878975791011
 31
0.0
  0
LINE
  5
3B5
  8
LAYER_1
 62
    18
 10
470.5676492733548
 20
11.67878975791011
 30
0.0
 11
471.8472750395968
 21
12.02099999999999
 31
0.0
  0
LINE
  5
3B6
  8
LAYER_1
 62
    18
 10
471.8472750395968
 20
12.02099999999999
 30
0.0
 11
471.8472756718218
 21
12.02100017252001
 31
0.0
  0
LINE
  5
3B7
  8
LAYER_1
 62
    18
 10
471.8472756718218
 20
12.02100017252001
 30
0.0
 11
472.8541639343592
 21
12.30739489676015
 31
0.0
  0
LINE
  5
3B8
  8
LAYER_1
 62
    18
 10
472.8541639343592
 20
12.30739489676015
 30
0.0
 11
473.8779376865685
 21
12.62064740283978
 31
0.0
  0
LINE
  5
3B9
  8
LAYER_1
 62
    18
 10
473.8779376865685
 20
12.62064740283978
 30
0.0
 11
475.9738238369807
 21
13.32094394138459
 31
0.0
  0
LINE
  5
3BA
  8
LAYER_1
 62
    18
 10
475.9738238369807
 20
13.32094394138459
 30
0.0
 11
478.130291522539
 21
14.10832425216856
 31
0.0
  0
LINE
  5
3BB
  8
LAYER_1
 62
    18
 10
478.130291522539
 20
14.10832425216856
 30
0.0
 11
480.3426967518293
 21
14.96922241966174
 31
0.0
  0
LINE
  5
3BC
  8
LAYER_1
 62
    18
 10
480.3426967518293
 20
14.96922241966174
 30
0.0
 11
494.5317530267403
 21
20.91879514583758
 31
0.0
  0
LINE
  5
3BD
  8
LAYER_1
 62
    18
 10
494.5317530267403
 20
20.91879514583758
 30
0.0
 11
499.4984111907843
 21
22.87514073754591
 31
0.0
  0
LINE
  5
3BE
  8
LAYER_1
 62
    18
 10
499.4984111907843
 20
22.87514073754591
 30
0.0
 11
502.0052747000183
 21
23.78723341657466
 31
0.0
  0
LINE
  5
3BF
  8
LAYER_1
 62
    18
 10
502.0052747000183
 20
23.78723341657466
 30
0.0
 11
504.5216358388412
 21
24.63718479701322
 31
0.0
  0
LINE
  5
3C0
  8
LAYER_1
 62
    18
 10
504.5216358388412
 20
24.63718479701322
 30
0.0
 11
507.0428506158388
 21
25.41142896333165
 31
0.0
  0
LINE
  5
3C1
  8
LAYER_1
 62
    18
 10
507.0428506158388
 20
25.41142896333165
 30
0.0
 11
508.3038268713361
 21
25.7659214925927
 31
0.0
  0
LINE
  5
3C2
  8
LAYER_1
 62
    18
 10
508.3038268713361
 20
25.7659214925927
 30
0.0
 11
509.5642750395967
 21
26.0964
 31
0.0
  0
ENDSEC
  0
EOF
