  0
SECTION
  2
HEADER
  9
$ACADVER
  1
AC1009
  9
$DWGCODEPAGE
  3
ansi_1252
  9
$INSBASE
 10
0.0
 20
0.0
 30
0.0
  9
$EXTMIN
 10
122.465234248037
 20
-54.98583706510761
 30
-45.14539661710545
  9
$EXTMAX
 10
270.7612939630707
 20
37.47901554251715
 30
-45.12894643883198
  9
$LIMMIN
 10
0.0
 20
0.0
  9
$LIMMAX
 10
12.0
 20
9.0
  9
$ORTHOMODE
 70
     0
  9
$REGENMODE
 70
     1
  9
$FILLMODE
 70
     1
  9
$QTEXTMODE
 70
     0
  9
$MIRRTEXT
 70
     1
  9
$DRAGMODE
 70
     2
  9
$LTSCALE
 40
1.0
  9
$OSMODE
 70
    37
  9
$ATTMODE
 70
     1
  9
$TEXTSIZE
 40
0.2
  9
$TRACEWID
 40
0.05
  9
$TEXTSTYLE
  7
STANDARD
  9
$CLAYER
  8
PCB
  9
$CELTYPE
  6
BYLAYER
  9
$CECOLOR
 62
   256
  9
$DIMSCALE
 40
1.0
  9
$DIMASZ
 40
0.18
  9
$DIMEXO
 40
0.0625
  9
$DIMDLI
 40
0.38
  9
$DIMRND
 40
0.0
  9
$DIMDLE
 40
0.0
  9
$DIMEXE
 40
0.18
  9
$DIMTP
 40
0.0
  9
$DIMTM
 40
0.0
  9
$DIMTXT
 40
0.18
  9
$DIMCEN
 40
0.09
  9
$DIMTSZ
 40
0.0
  9
$DIMTOL
 70
     0
  9
$DIMLIM
 70
     0
  9
$DIMTIH
 70
     1
  9
$DIMTOH
 70
     1
  9
$DIMSE1
 70
     0
  9
$DIMSE2
 70
     0
  9
$DIMTAD
 70
     0
  9
$DIMZIN
 70
     0
  9
$DIMBLK
  1

  9
$DIMASO
 70
     1
  9
$DIMSHO
 70
     1
  9
$DIMPOST
  1

  9
$DIMAPOST
  1

  9
$DIMALT
 70
     0
  9
$DIMALTD
 70
     2
  9
$DIMALTF
 40
25.4
  9
$DIMLFAC
 40
1.0
  9
$DIMTOFL
 70
     0
  9
$DIMTVP
 40
0.0
  9
$DIMTIX
 70
     0
  9
$DIMSOXD
 70
     0
  9
$DIMSAH
 70
     0
  9
$DIMBLK1
  1

  9
$DIMBLK2
  1

  9
$DIMSTYLE
  2
STANDARD_ACAD
  9
$DIMCLRD
 70
     0
  9
$DIMCLRE
 70
     0
  9
$DIMCLRT
 70
     0
  9
$DIMTFAC
 40
1.0
  9
$DIMGAP
 40
0.09
  9
$LUNITS
 70
     2
  9
$LUPREC
 70
     3
  9
$SKETCHINC
 40
0.1
  9
$FILLETRAD
 40
0.0
  9
$AUNITS
 70
     0
  9
$AUPREC
 70
     0
  9
$MENU
  1
.
  9
$ELEVATION
 40
0.0
  9
$PELEVATION
 40
0.0
  9
$THICKNESS
 40
0.0
  9
$LIMCHECK
 70
     0
  9
$CHAMFERA
 40
0.0
  9
$CHAMFERB
 40
0.0
  9
$SKPOLY
 70
     0
  9
$TDCREATE
 40
2460273.865233831
  9
$TDUPDATE
 40
2460273.8652814
  9
$TDINDWG
 40
0.0000000116
  9
$TDUSRTIMER
 40
0.0000000116
  9
$USRTIMER
 70
     1
  9
$ANGBASE
 50
0.0
  9
$ANGDIR
 70
     0
  9
$PDMODE
 70
     0
  9
$PDSIZE
 40
0.0
  9
$PLINEWID
 40
0.0
  9
$COORDS
 70
     1
  9
$SPLFRAME
 70
     0
  9
$SPLINETYPE
 70
     6
  9
$SPLINESEGS
 70
     8
  9
$ATTDIA
 70
     0
  9
$ATTREQ
 70
     1
  9
$HANDLING
 70
     1
  9
$HANDSEED
  5
3B0
  9
$SURFTAB1
 70
     6
  9
$SURFTAB2
 70
     6
  9
$SURFTYPE
 70
     6
  9
$SURFU
 70
     6
  9
$SURFV
 70
     6
  9
$UCSNAME
  2

  9
$UCSORG
 10
0.0
 20
0.0
 30
0.0
  9
$UCSXDIR
 10
1.0
 20
0.0
 30
0.0
  9
$UCSYDIR
 10
0.0
 20
1.0
 30
0.0
  9
$PUCSNAME
  2

  9
$PUCSORG
 10
0.0
 20
0.0
 30
0.0
  9
$PUCSXDIR
 10
1.0
 20
0.0
 30
0.0
  9
$PUCSYDIR
 10
0.0
 20
1.0
 30
0.0
  9
$USERI1
 70
     0
  9
$USERI2
 70
     0
  9
$USERI3
 70
     0
  9
$USERI4
 70
     0
  9
$USERI5
 70
     0
  9
$USERR1
 40
0.0
  9
$USERR2
 40
0.0
  9
$USERR3
 40
0.0
  9
$USERR4
 40
0.0
  9
$USERR5
 40
0.0
  9
$WORLDVIEW
 70
     1
  9
$SHADEDGE
 70
     3
  9
$SHADEDIF
 70
    70
  9
$TILEMODE
 70
     1
  9
$MAXACTVP
 70
    64
  9
$PLIMCHECK
 70
     0
  9
$PEXTMIN
 10
1.000000000000000E+20
 20
1.000000000000000E+20
 30
1.000000000000000E+20
  9
$PEXTMAX
 10
-1.000000000000000E+20
 20
-1.000000000000000E+20
 30
-1.000000000000000E+20
  9
$PLIMMIN
 10
0.0
 20
0.0
  9
$PLIMMAX
 10
12.0
 20
9.0
  9
$UNITMODE
 70
     0
  9
$VISRETAIN
 70
     1
  9
$PLINEGEN
 70
     0
  9
$PSLTSCALE
 70
     1
  0
ENDSEC
  0
SECTION
  2
TABLES
  0
TABLE
  2
VPORT
 70
     1
  0
VPORT
  2
*ACTIVE
 70
     0
 10
0.0
 20
0.0
 11
1.0
 21
1.0
 12
10.42990654205607
 22
4.5
 13
0.0
 23
0.0
 14
0.5
 24
0.5
 15
0.5
 25
0.5
 16
0.0
 26
0.0
 36
1.0
 17
0.0
 27
0.0
 37
0.0
 40
9.0
 41
1.972972972850329
 42
50.0
 43
0.0
 44
0.0
 50
0.0
 51
0.0
 71
     0
 72
   100
 73
     1
 74
     3
 75
     0
 76
     0
 77
     0
 78
     0
  0
ENDTAB
  0
TABLE
  2
LTYPE
 70
     1
  0
LTYPE
  2
CONTINUOUS
 70
     0
  3
Solid line
 72
    65
 73
     0
 40
0.0
  0
ENDTAB
  0
TABLE
  2
LAYER
 70
     3
  0
LAYER
  2
0
 70
     0
 62
     7
  6
CONTINUOUS
  0
LAYER
  2
PCB
 70
     0
 62
     7
  6
CONTINUOUS
  0
LAYER
  2
PCB$TRACES
 70
     0
 62
     7
  6
CONTINUOUS
  0
ENDTAB
  0
TABLE
  2
STYLE
 70
     1
  0
STYLE
  2
STANDARD
 70
     0
 40
0.0
 41
1.0
 50
0.0
 71
     0
 42
0.2
  3
txt
  4

  0
ENDTAB
  0
TABLE
  2
VIEW
 70
     0
  0
ENDTAB
  0
TABLE
  2
UCS
 70
     0
  0
ENDTAB
  0
TABLE
  2
APPID
 70
     2
  0
APPID
  2
ACAD
 70
     0
  0
APPID
  2
RHINO
 70
     0
  0
ENDTAB
  0
TABLE
  2
DIMSTYLE
 70
     1
  0
DIMSTYLE
  2
STANDARD_ACAD
 70
     0
  3

  4

  5

  6

  7

 40
1.0
 41
0.18
 42
0.0625
 43
0.38
 44
0.18
 45
0.0
 46
0.0
 47
0.0
 48
0.0
140
0.18
141
0.09
142
0.0
143
25.4
144
1.0
145
0.0
146
1.0
147
0.09
 71
     0
 72
     0
 73
     1
 74
     1
 75
     0
 76
     0
 77
     0
 78
     0
170
     0
171
     2
172
     0
173
     0
174
     0
175
     0
176
     0
177
     0
178
     0
  0
ENDTAB
  0
ENDSEC
  0
SECTION
  2
BLOCKS
  0
BLOCK
  8
0
  2
$MODEL_SPACE
 70
     0
 10
0.0
 20
0.0
 30
0.0
  3
$MODEL_SPACE
  1

  0
ENDBLK
  5
21
  8
0
  0
BLOCK
 67
     1
  8
0
  2
$PAPER_SPACE
 70
     0
 10
0.0
 20
0.0
 30
0.0
  3
$PAPER_SPACE
  1

  0
ENDBLK
  5
1D
 67
     1
  8
0
  0
ENDSEC
  0
SECTION
  2
ENTITIES
  0
LINE
  5
60
  8
PCB
 10
196.613264105554
 20
37.47901554251715
 30
-45.12894643883205
 11
216.5251883185213
 21
37.18197461038516
 31
-45.12894643883206
  0
LINE
  5
61
  8
PCB
 10
216.5251883185213
 20
37.18197461038516
 30
-45.12894643883206
 11
222.8749740114504
 21
36.89807195831734
 31
-45.12894643883206
  0
LINE
  5
62
  8
PCB
 10
222.8749740114504
 20
36.89807195831734
 30
-45.12894643883206
 11
225.9578747070984
 21
36.69281963214352
 31
-45.12894643883206
  0
LINE
  5
63
  8
PCB
 10
225.9578747070984
 20
36.69281963214352
 30
-45.12894643883206
 11
228.9681638340747
 21
36.43688239887334
 31
-45.12894643883206
  0
LINE
  5
64
  8
PCB
 10
228.9681638340747
 20
36.43688239887334
 30
-45.12894643883206
 11
231.8973787912836
 21
36.12389707825448
 31
-45.12894643883205
  0
LINE
  5
65
  8
PCB
 10
231.8973787912836
 20
36.12389707825448
 30
-45.12894643883205
 11
234.7370569776294
 21
35.74750049003461
 31
-45.12894643883205
  0
LINE
  5
66
  8
PCB
 10
234.7370569776294
 20
35.74750049003461
 30
-45.12894643883205
 11
237.4787357920166
 21
35.30132945396143
 31
-45.12894643883205
  0
LINE
  5
67
  8
PCB
 10
237.4787357920166
 20
35.30132945396143
 30
-45.12894643883205
 11
238.8101808718833
 21
35.05009002415098
 31
-45.12894643883203
  0
LINE
  5
68
  8
PCB
 10
238.8101808718833
 20
35.05009002415098
 30
-45.12894643883203
 11
240.1139526333495
 21
34.77902078978259
 31
-45.12894643883203
  0
LINE
  5
69
  8
PCB
 10
240.1139526333495
 20
34.77902078978259
 30
-45.12894643883203
 11
241.3889932512783
 21
34.48732635332471
 31
-45.12894643883203
  0
LINE
  5
6A
  8
PCB
 10
241.3889932512783
 20
34.48732635332471
 30
-45.12894643883203
 11
242.6342449005326
 21
34.1742113172458
 31
-45.12894643883203
  0
LINE
  5
6B
  8
PCB
 10
242.6342449005326
 20
34.1742113172458
 30
-45.12894643883203
 11
243.8486497559756
 21
33.83888028401432
 31
-45.12894643883203
  0
LINE
  5
6C
  8
PCB
 10
243.8486497559756
 20
33.83888028401432
 30
-45.12894643883203
 11
245.0311499924703
 21
33.48053785609873
 31
-45.12894643883202
  0
LINE
  5
6D
  8
PCB
 10
245.0311499924703
 20
33.48053785609873
 30
-45.12894643883202
 11
246.1825348151483
 21
33.09807588948654
 31
-45.12894643883202
  0
LINE
  5
6E
  8
PCB
 10
246.1825348151483
 20
33.09807588948654
 30
-45.12894643883202
 11
247.3012591588455
 21
32.69241508770075
 31
-45.12894643883202
  0
LINE
  5
6F
  8
PCB
 10
247.3012591588455
 20
32.69241508770075
 30
-45.12894643883202
 11
248.3877184162029
 21
32.26423088487779
 31
-45.12894643883202
  0
LINE
  5
70
  8
PCB
 10
248.3877184162029
 20
32.26423088487779
 30
-45.12894643883202
 11
249.4423079798614
 21
31.81419871515403
 31
-45.12894643883202
  0
LINE
  5
71
  8
PCB
 10
249.4423079798614
 20
31.81419871515403
 30
-45.12894643883202
 11
250.465423242462
 21
31.3429940126659
 31
-45.12894643883202
  0
LINE
  5
72
  8
PCB
 10
250.465423242462
 20
31.3429940126659
 30
-45.12894643883202
 11
251.4574595966458
 21
30.8512922115498
 31
-45.12894643883202
  0
LINE
  5
73
  8
PCB
 10
251.4574595966458
 20
30.8512922115498
 30
-45.12894643883202
 11
252.4188124350537
 21
30.33976874594212
 31
-45.12894643883202
  0
LINE
  5
74
  8
PCB
 10
252.4188124350537
 20
30.33976874594212
 30
-45.12894643883202
 11
253.3498771503266
 21
29.80909904997926
 31
-45.12894643883202
  0
LINE
  5
75
  8
PCB
 10
253.3498771503266
 20
29.80909904997926
 30
-45.12894643883202
 11
254.2510491351056
 21
29.25995855779764
 31
-45.12894643883202
  0
LINE
  5
76
  8
PCB
 10
254.2510491351056
 20
29.25995855779764
 30
-45.12894643883202
 11
255.1227237820316
 21
28.69302270353364
 31
-45.12894643883202
  0
LINE
  5
77
  8
PCB
 10
255.1227237820316
 20
28.69302270353364
 30
-45.12894643883202
 11
255.9652964837456
 21
28.10896692132368
 31
-45.12894643883202
  0
LINE
  5
78
  8
PCB
 10
255.9652964837456
 20
28.10896692132368
 30
-45.12894643883202
 11
256.7791626328886
 21
27.50846664530415
 31
-45.12894643883202
  0
LINE
  5
79
  8
PCB
 10
256.7791626328886
 20
27.50846664530415
 30
-45.12894643883202
 11
257.5647176221017
 21
26.89219730961146
 31
-45.12894643883202
  0
LINE
  5
7A
  8
PCB
 10
257.5647176221017
 20
26.89219730961146
 30
-45.12894643883202
 11
258.3223568440256
 21
26.26083434838201
 31
-45.12894643883202
  0
LINE
  5
7B
  8
PCB
 10
258.3223568440256
 20
26.26083434838201
 30
-45.12894643883202
 11
259.0524756913015
 21
25.61505319575219
 31
-45.12894643883202
  0
LINE
  5
7C
  8
PCB
 10
259.0524756913015
 20
25.61505319575219
 30
-45.12894643883202
 11
259.7554695565703
 21
24.95552928585842
 31
-45.12894643883202
  0
LINE
  5
7D
  8
PCB
 10
259.7554695565703
 20
24.95552928585842
 30
-45.12894643883202
 11
260.4317338324731
 21
24.28293805283709
 31
-45.12894643883202
  0
LINE
  5
7E
  8
PCB
 10
260.4317338324731
 20
24.28293805283709
 30
-45.12894643883202
 11
261.0816639116506
 21
23.59795493082461
 31
-45.12894643883202
  0
LINE
  5
7F
  8
PCB
 10
261.0816639116506
 20
23.59795493082461
 30
-45.12894643883202
 11
261.705655186744
 21
22.90125535395737
 31
-45.12894643883202
  0
LINE
  5
80
  8
PCB
 10
261.705655186744
 20
22.90125535395737
 30
-45.12894643883202
 11
262.3041030503942
 21
22.19351475637179
 31
-45.12894643883202
  0
LINE
  5
81
  8
PCB
 10
262.3041030503942
 20
22.19351475637179
 30
-45.12894643883202
 11
262.8774028952423
 21
21.47540857220426
 31
-45.12894643883202
  0
LINE
  5
82
  8
PCB
 10
262.8774028952423
 20
21.47540857220426
 30
-45.12894643883202
 11
263.4259501139292
 21
20.74761223559118
 31
-45.12894643883202
  0
LINE
  5
83
  8
PCB
 10
263.4259501139292
 20
20.74761223559118
 30
-45.12894643883202
 11
263.9501400990958
 21
20.01080118066896
 31
-45.12894643883202
  0
LINE
  5
84
  8
PCB
 10
263.9501400990958
 20
20.01080118066896
 30
-45.12894643883202
 11
264.4503682433833
 21
19.265650841574
 31
-45.12894643883202
  0
LINE
  5
85
  8
PCB
 10
264.4503682433833
 20
19.265650841574
 30
-45.12894643883202
 11
264.9270299394324
 21
18.5128366524427
 31
-45.12894643883202
  0
LINE
  5
86
  8
PCB
 10
264.9270299394324
 20
18.5128366524427
 30
-45.12894643883202
 11
265.3805205798842
 21
17.75303404741146
 31
-45.12894643883202
  0
LINE
  5
87
  8
PCB
 10
265.3805205798842
 20
17.75303404741146
 30
-45.12894643883202
 11
265.8112355573797
 21
16.98691846061668
 31
-45.12894643883202
  0
LINE
  5
88
  8
PCB
 10
265.8112355573797
 20
16.98691846061668
 30
-45.12894643883202
 11
266.2195702645599
 21
16.21516532619476
 31
-45.12894643883202
  0
LINE
  5
89
  8
PCB
 10
266.2195702645599
 20
16.21516532619476
 30
-45.12894643883202
 11
266.6059200940658
 21
15.43845007828212
 31
-45.12894643883202
  0
LINE
  5
8A
  8
PCB
 10
266.6059200940658
 20
15.43845007828212
 30
-45.12894643883202
 11
266.9706804385384
 21
14.65744815101515
 31
-45.12894643883202
  0
LINE
  5
8B
  8
PCB
 10
266.9706804385384
 20
14.65744815101515
 30
-45.12894643883202
 11
267.3142466906185
 21
13.87283497853025
 31
-45.12894643883202
  0
LINE
  5
8C
  8
PCB
 10
267.3142466906185
 20
13.87283497853025
 30
-45.12894643883202
 11
267.6370142429471
 21
13.08528599496382
 31
-45.12894643883201
  0
LINE
  5
8D
  8
PCB
 10
267.6370142429471
 20
13.08528599496382
 30
-45.12894643883201
 11
267.9394211275985
 21
12.29536833305087
 31
-45.128946438832
  0
LINE
  5
8E
  8
PCB
 10
267.9394211275985
 20
12.29536833305087
 30
-45.128946438832
 11
268.222075934379
 21
11.50321591992081
 31
-45.128946438832
  0
LINE
  5
8F
  8
PCB
 10
268.222075934379
 20
11.50321591992081
 30
-45.128946438832
 11
268.4856298925282
 21
10.70885438130163
 31
-45.128946438832
  0
LINE
  5
90
  8
PCB
 10
268.4856298925282
 20
10.70885438130163
 30
-45.128946438832
 11
268.7307342312856
 21
9.912309342921358
 31
-45.128946438832
  0
LINE
  5
91
  8
PCB
 10
268.7307342312856
 20
9.912309342921358
 30
-45.128946438832
 11
268.9580401798909
 21
9.113606430507982
 31
-45.128946438832
  0
LINE
  5
92
  8
PCB
 10
268.9580401798909
 20
9.113606430507982
 30
-45.128946438832
 11
269.1681989675834
 21
8.312771269789515
 31
-45.12894643883199
  0
LINE
  5
93
  8
PCB
 10
269.1681989675834
 20
8.312771269789515
 30
-45.12894643883199
 11
269.3618618236028
 21
7.509829486493964
 31
-45.12894643883199
  0
LINE
  5
94
  8
PCB
 10
269.3618618236028
 20
7.509829486493964
 30
-45.12894643883199
 11
269.5396799771886
 21
6.704806706349336
 31
-45.12894643883199
  0
LINE
  5
95
  8
PCB
 10
269.5396799771886
 20
6.704806706349336
 30
-45.12894643883199
 11
269.7023046575804
 21
5.897728555083637
 31
-45.12894643883199
  0
LINE
  5
96
  8
PCB
 10
269.7023046575804
 20
5.897728555083637
 30
-45.12894643883199
 11
269.8503870940177
 21
5.088620658424874
 31
-45.12894643883199
  0
LINE
  5
97
  8
PCB
 10
269.8503870940177
 20
5.088620658424874
 30
-45.12894643883199
 11
270.1055301519873
 21
3.464418131840183
 31
-45.12894643883199
  0
LINE
  5
98
  8
PCB
 10
270.1055301519873
 20
3.464418131840183
 30
-45.12894643883199
 11
270.3103189850136
 21
1.832404132419314
 31
-45.12894643883199
  0
LINE
  5
99
  8
PCB
 10
270.3103189850136
 20
1.832404132419314
 30
-45.12894643883199
 11
270.4699634270131
 21
0.1927836659863207
 31
-45.12894643883199
  0
LINE
  5
9A
  8
PCB
 10
270.4699634270131
 20
0.1927836659863207
 30
-45.12894643883199
 11
270.5896733119021
 21
-1.454238261634743
 31
-45.12894643883199
  0
LINE
  5
9B
  8
PCB
 10
270.5896733119021
 20
-1.454238261634743
 30
-45.12894643883199
 11
270.6746584735971
 21
-3.108456644619825
 31
-45.12894643883199
  0
LINE
  5
9C
  8
PCB
 10
270.6746584735971
 20
-3.108456644619825
 30
-45.12894643883199
 11
270.7612939630707
 21
-6.43766275338583
 31
-45.12894643883199
  0
LINE
  5
9D
  8
PCB
 10
270.7612939630707
 20
-6.43766275338583
 30
-45.12894643883199
 11
270.7471009560117
 21
-13.17341217902771
 31
-45.12894643883198
  0
LINE
  5
9E
  8
PCB
 10
270.7471009560117
 20
-13.17341217902771
 30
-45.12894643883198
 11
270.3773554061183
 21
-39.21588967266734
 31
-45.12894643883198
  0
LINE
  5
9F
  8
PCB
 10
270.3773554061183
 20
-39.21588967266734
 30
-45.12894643883198
 11
270.3159117119652
 21
-40.64145731209355
 31
-45.12894643883199
  0
LINE
  5
A0
  8
PCB
 10
270.3159117119652
 20
-40.64145731209355
 30
-45.12894643883199
 11
270.231895708132
 21
-42.02558359863188
 31
-45.12894643883199
  0
LINE
  5
A1
  8
PCB
 10
270.231895708132
 20
-42.02558359863188
 30
-45.12894643883199
 11
270.1765323049057
 21
-42.70076669877777
 31
-45.12894643883199
  0
LINE
  5
A2
  8
PCB
 10
270.1765323049057
 20
-42.70076669877777
 30
-45.12894643883199
 11
270.1096568820436
 21
-43.36398201775329
 31
-45.12894643883199
  0
LINE
  5
A3
  8
PCB
 10
270.1096568820436
 20
-43.36398201775329
 30
-45.12894643883199
 11
270.0293131254739
 21
-44.01469374124233
 31
-45.12894643883199
  0
LINE
  5
A4
  8
PCB
 10
270.0293131254739
 20
-44.01469374124233
 30
-45.12894643883199
 11
269.9335447211247
 21
-44.65236605492873
 31
-45.12894643883199
  0
LINE
  5
A5
  8
PCB
 10
269.9335447211247
 20
-44.65236605492873
 30
-45.12894643883199
 11
269.820395354924
 21
-45.27646314449639
 31
-45.12894643883199
  0
LINE
  5
A6
  8
PCB
 10
269.820395354924
 20
-45.27646314449639
 30
-45.12894643883199
 11
269.7566914629818
 21
-45.58325353826189
 31
-45.12894643883199
  0
LINE
  5
A7
  8
PCB
 10
269.7566914629818
 20
-45.58325353826189
 30
-45.12894643883199
 11
269.6879087128
 21
-45.88644919562917
 31
-45.12894643883199
  0
LINE
  5
A8
  8
PCB
 10
269.6879087128
 20
-45.88644919562917
 30
-45.12894643883199
 11
269.6138025651193
 21
-46.18598313980868
 31
-45.12894643883199
  0
LINE
  5
A9
  8
PCB
 10
269.6138025651193
 20
-46.18598313980868
 30
-45.12894643883199
 11
269.5341284806807
 21
-46.48178839401092
 31
-45.12894643883199
  0
LINE
  5
AA
  8
PCB
 10
269.5341284806807
 20
-46.48178839401092
 30
-45.12894643883199
 11
269.4486419202254
 21
-46.77379798144638
 31
-45.12894643883199
  0
LINE
  5
AB
  8
PCB
 10
269.4486419202254
 20
-46.77379798144638
 30
-45.12894643883199
 11
269.3570983444943
 21
-47.06194492532553
 31
-45.12894643883199
  0
LINE
  5
AC
  8
PCB
 10
269.3570983444943
 20
-47.06194492532553
 30
-45.12894643883199
 11
269.2592532142285
 21
-47.34616224885886
 31
-45.12894643883199
  0
LINE
  5
AD
  8
PCB
 10
269.2592532142285
 20
-47.34616224885886
 30
-45.12894643883199
 11
269.1548619901688
 21
-47.62638297525685
 31
-45.12894643883199
  0
LINE
  5
AE
  8
PCB
 10
269.1548619901688
 20
-47.62638297525685
 30
-45.12894643883199
 11
269.0436801330565
 21
-47.90254012773
 31
-45.12894643883199
  0
LINE
  5
AF
  8
PCB
 10
269.0436801330565
 20
-47.90254012773
 30
-45.12894643883199
 11
268.9254631036324
 21
-48.17456672948877
 31
-45.12894643883199
  0
LINE
  5
B0
  8
PCB
 10
268.9254631036324
 20
-48.17456672948877
 30
-45.12894643883199
 11
268.7999663626375
 21
-48.44239580374366
 31
-45.12894643883199
  0
LINE
  5
B1
  8
PCB
 10
268.7999663626375
 20
-48.44239580374366
 30
-45.12894643883199
 11
268.666945370813
 21
-48.70596037370515
 31
-45.12894643883199
  0
LINE
  5
B2
  8
PCB
 10
268.666945370813
 20
-48.70596037370515
 30
-45.12894643883199
 11
268.5261555888998
 21
-48.96519346258373
 31
-45.12894643883199
  0
LINE
  5
B3
  8
PCB
 10
268.5261555888998
 20
-48.96519346258373
 30
-45.12894643883199
 11
268.3773524776389
 21
-49.22002809358986
 31
-45.128946438832
  0
LINE
  5
B4
  8
PCB
 10
268.3773524776389
 20
-49.22002809358986
 30
-45.128946438832
 11
268.2202914977713
 21
-49.47039728993405
 31
-45.128946438832
  0
LINE
  5
B5
  8
PCB
 10
268.2202914977713
 20
-49.47039728993405
 30
-45.128946438832
 11
268.054728110038
 21
-49.71623407482677
 31
-45.128946438832
  0
LINE
  5
B6
  8
PCB
 10
268.054728110038
 20
-49.71623407482677
 30
-45.128946438832
 11
267.8804177751801
 21
-49.95747147147851
 31
-45.128946438832
  0
LINE
  5
B7
  8
PCB
 10
267.8804177751801
 20
-49.95747147147851
 30
-45.128946438832
 11
267.6971159539386
 21
-50.19404250309974
 31
-45.128946438832
  0
LINE
  5
B8
  8
PCB
 10
267.6971159539386
 20
-50.19404250309974
 30
-45.128946438832
 11
267.5045781070545
 21
-50.42588019290096
 31
-45.128946438832
  0
LINE
  5
B9
  8
PCB
 10
267.5045781070545
 20
-50.42588019290096
 30
-45.128946438832
 11
267.3025596952688
 21
-50.65291756409266
 31
-45.128946438832
  0
LINE
  5
BA
  8
PCB
 10
267.3025596952688
 20
-50.65291756409266
 30
-45.128946438832
 11
267.0908161793224
 21
-50.8750876398853
 31
-45.128946438832
  0
LINE
  5
BB
  8
PCB
 10
267.0908161793224
 20
-50.8750876398853
 30
-45.128946438832
 11
266.8691030199564
 21
-51.09232344348937
 31
-45.128946438832
  0
LINE
  5
BC
  8
PCB
 10
266.8691030199564
 20
-51.09232344348937
 30
-45.128946438832
 11
266.6371756779119
 21
-51.30455799811536
 31
-45.128946438832
  0
LINE
  5
BD
  8
PCB
 10
266.6371756779119
 20
-51.30455799811536
 30
-45.128946438832
 11
266.3947896139298
 21
-51.51172432697376
 31
-45.128946438832
  0
LINE
  5
BE
  8
PCB
 10
266.3947896139298
 20
-51.51172432697376
 30
-45.128946438832
 11
266.1417002887512
 21
-51.71375545327504
 31
-45.128946438832
  0
LINE
  5
BF
  8
PCB
 10
266.1417002887512
 20
-51.71375545327504
 30
-45.128946438832
 11
265.8776631631169
 21
-51.91058440022969
 31
-45.128946438832
  0
LINE
  5
C0
  8
PCB
 10
265.8776631631169
 20
-51.91058440022969
 30
-45.128946438832
 11
265.6024336977682
 21
-52.1021441910482
 31
-45.128946438832
  0
LINE
  5
C1
  8
PCB
 10
265.6024336977682
 20
-52.1021441910482
 30
-45.128946438832
 11
265.315767353446
 21
-52.28836784894104
 31
-45.128946438832
  0
LINE
  5
C2
  8
PCB
 10
265.315767353446
 20
-52.28836784894104
 30
-45.128946438832
 11
265.0174195908913
 21
-52.4691883971187
 31
-45.128946438832
  0
LINE
  5
C3
  8
PCB
 10
265.0174195908913
 20
-52.4691883971187
 30
-45.128946438832
 11
264.707145870845
 21
-52.64453885879166
 31
-45.12894643883201
  0
LINE
  5
C4
  8
PCB
 10
264.707145870845
 20
-52.64453885879166
 30
-45.12894643883201
 11
264.3847016540483
 21
-52.81435225717041
 31
-45.12894643883202
  0
LINE
  5
C5
  8
PCB
 10
264.3847016540483
 20
-52.81435225717041
 30
-45.12894643883202
 11
264.0498424012421
 21
-52.97856161546544
 31
-45.12894643883202
  0
LINE
  5
C6
  8
PCB
 10
264.0498424012421
 20
-52.97856161546544
 30
-45.12894643883202
 11
263.7023235731675
 21
-53.13709995688721
 31
-45.12894643883202
  0
LINE
  5
C7
  8
PCB
 10
263.7023235731675
 20
-53.13709995688721
 30
-45.12894643883202
 11
263.3419006305654
 21
-53.28990030464623
 31
-45.12894643883202
  0
LINE
  5
C8
  8
PCB
 10
263.3419006305654
 20
-53.28990030464623
 30
-45.12894643883202
 11
262.9683290341768
 21
-53.43689568195298
 31
-45.12894643883202
  0
LINE
  5
C9
  8
PCB
 10
262.9683290341768
 20
-53.43689568195298
 30
-45.12894643883202
 11
262.5813642447429
 21
-53.57801911201791
 31
-45.12894643883202
  0
LINE
  5
CA
  8
PCB
 10
262.5813642447429
 20
-53.57801911201791
 30
-45.12894643883202
 11
262.1807617230045
 21
-53.71320361805155
 31
-45.12894643883202
  0
LINE
  5
CB
  8
PCB
 10
262.1807617230045
 20
-53.71320361805155
 30
-45.12894643883202
 11
261.7662769297027
 21
-53.84238222326435
 31
-45.12894643883202
  0
LINE
  5
CC
  8
PCB
 10
261.7662769297027
 20
-53.84238222326435
 30
-45.12894643883202
 11
261.3376653255785
 21
-53.96548795086682
 31
-45.12894643883202
  0
LINE
  5
CD
  8
PCB
 10
261.3376653255785
 20
-53.96548795086682
 30
-45.12894643883202
 11
260.8946823713729
 21
-54.08245382406942
 31
-45.12894643883202
  0
LINE
  5
CE
  8
PCB
 10
260.8946823713729
 20
-54.08245382406942
 30
-45.12894643883202
 11
260.4370835278271
 21
-54.19321286608264
 31
-45.12894643883202
  0
LINE
  5
CF
  8
PCB
 10
260.4370835278271
 20
-54.19321286608264
 30
-45.12894643883202
 11
259.9646242556818
 21
-54.29769810011697
 31
-45.12894643883202
  0
LINE
  5
D0
  8
PCB
 10
259.9646242556818
 20
-54.29769810011697
 30
-45.12894643883202
 11
259.4770600156781
 21
-54.3958425493829
 31
-45.12894643883202
  0
LINE
  5
D1
  8
PCB
 10
259.4770600156781
 20
-54.3958425493829
 30
-45.12894643883202
 11
258.9741462685572
 21
-54.4875792370909
 31
-45.12894643883202
  0
LINE
  5
D2
  8
PCB
 10
258.9741462685572
 20
-54.4875792370909
 30
-45.12894643883202
 11
257.9212920959274
 21
-54.65156142067506
 31
-45.12894643883202
  0
LINE
  5
D3
  8
PCB
 10
257.9212920959274
 20
-54.65156142067506
 30
-45.12894643883202
 11
257.1542202438201
 21
-54.74945599461079
 31
-45.12894643883203
  0
LINE
  5
D4
  8
PCB
 10
257.1542202438201
 20
-54.74945599461079
 30
-45.12894643883203
 11
256.3566039122066
 21
-54.83286513360115
 31
-45.12894643883203
  0
LINE
  5
D5
  8
PCB
 10
256.3566039122066
 20
-54.83286513360115
 30
-45.12894643883203
 11
255.5287933894684
 21
-54.89999832389606
 31
-45.12894643883203
  0
LINE
  5
D6
  8
PCB
 10
255.5287933894684
 20
-54.89999832389606
 30
-45.12894643883203
 11
254.6711389639868
 21
-54.94906505174548
 31
-45.12894643883203
  0
LINE
  5
D7
  8
PCB
 10
254.6711389639868
 20
-54.94906505174548
 30
-45.12894643883203
 11
253.7839909241431
 21
-54.97827480339934
 31
-45.12894643883203
  0
LINE
  5
D8
  8
PCB
 10
253.7839909241431
 20
-54.97827480339934
 30
-45.12894643883203
 11
252.8676995583186
 21
-54.98583706510761
 31
-45.12894643883203
  0
LINE
  5
D9
  8
PCB
 10
252.8676995583186
 20
-54.98583706510761
 30
-45.12894643883203
 11
251.9226151548947
 21
-54.96996132312022
 31
-45.12894643883203
  0
LINE
  5
DA
  8
PCB
 10
251.9226151548947
 20
-54.96996132312022
 30
-45.12894643883203
 11
250.9490880022528
 21
-54.92885706368713
 31
-45.12894643883204
  0
LINE
  5
DB
  8
PCB
 10
250.9490880022528
 20
-54.92885706368713
 30
-45.12894643883204
 11
249.947468388774
 21
-54.86073377305828
 31
-45.12894643883205
  0
LINE
  5
DC
  8
PCB
 10
249.947468388774
 20
-54.86073377305828
 30
-45.12894643883205
 11
248.9181066028399
 21
-54.76380093748361
 31
-45.12894643883205
  0
LINE
  5
DD
  8
PCB
 10
248.9181066028399
 20
-54.76380093748361
 30
-45.12894643883205
 11
247.8613529328316
 21
-54.63626804321306
 31
-45.12894643883205
  0
LINE
  5
DE
  8
PCB
 10
247.8613529328316
 20
-54.63626804321306
 30
-45.12894643883205
 11
246.7775576671306
 21
-54.47634457649659
 31
-45.12894643883205
  0
LINE
  5
DF
  8
PCB
 10
246.7775576671306
 20
-54.47634457649659
 30
-45.12894643883205
 11
245.6670710941181
 21
-54.28224002358415
 31
-45.12894643883205
  0
LINE
  5
E0
  8
PCB
 10
245.6670710941181
 20
-54.28224002358415
 30
-45.12894643883205
 11
244.5302435021754
 21
-54.05216387072567
 31
-45.12894643883205
  0
LINE
  5
E1
  8
PCB
 10
244.5302435021754
 20
-54.05216387072567
 30
-45.12894643883205
 11
243.367425179684
 21
-53.78432560417112
 31
-45.12894643883205
  0
LINE
  5
E2
  8
PCB
 10
243.367425179684
 20
-53.78432560417112
 30
-45.12894643883205
 11
242.1789664150252
 21
-53.47693471017042
 31
-45.12894643883204
  0
LINE
  5
E3
  8
PCB
 10
242.1789664150252
 20
-53.47693471017042
 30
-45.12894643883204
 11
240.8424339638039
 21
-53.09200757066215
 31
-45.12894643883204
  0
LINE
  5
E4
  8
PCB
 10
240.8424339638039
 20
-53.09200757066215
 30
-45.12894643883204
 11
239.4780548441769
 21
-52.66153592421315
 31
-45.12894643883204
  0
LINE
  5
E5
  8
PCB
 10
239.4780548441769
 20
-52.66153592421315
 30
-45.12894643883204
 11
238.0884168651063
 21
-52.18996797387214
 31
-45.12894643883205
  0
LINE
  5
E6
  8
PCB
 10
238.0884168651063
 20
-52.18996797387214
 30
-45.12894643883205
 11
236.675897577026
 21
-51.68167013243445
 31
-45.12894643883205
  0
LINE
  5
E7
  8
PCB
 10
236.675897577026
 20
-51.68167013243445
 30
-45.12894643883205
 11
233.7906347612871
 21
-50.57188299246055
 31
-45.12894643883207
  0
LINE
  5
E8
  8
PCB
 10
233.7906347612871
 20
-50.57188299246055
 30
-45.12894643883207
 11
218.4967336345756
 21
-44.17254341379353
 31
-45.12894643883207
  0
LINE
  5
E9
  8
PCB
 10
218.4967336345756
 20
-44.17254341379353
 30
-45.12894643883207
 11
218.3224688448221
 21
-44.11096498177081
 31
-45.12894643883207
  0
LINE
  5
EA
  8
PCB
 10
218.3224688448221
 20
-44.11096498177081
 30
-45.12894643883207
 11
218.1503567761529
 21
-44.04360359775428
 31
-45.12894643883207
  0
LINE
  5
EB
  8
PCB
 10
218.1503567761529
 20
-44.04360359775428
 30
-45.12894643883207
 11
217.9805892741107
 21
-43.97053434643367
 31
-45.12894643883207
  0
LINE
  5
EC
  8
PCB
 10
217.9805892741107
 20
-43.97053434643367
 30
-45.12894643883207
 11
217.8133555708557
 21
-43.89183867480038
 31
-45.12894643883207
  0
LINE
  5
ED
  8
PCB
 10
217.8133555708557
 20
-43.89183867480038
 30
-45.12894643883207
 11
217.6488420742371
 21
-43.80760430136212
 31
-45.12894643883207
  0
LINE
  5
EE
  8
PCB
 10
217.6488420742371
 20
-43.80760430136212
 30
-45.12894643883207
 11
217.4872321600128
 21
-43.71792511836715
 31
-45.12894643883207
  0
LINE
  5
EF
  8
PCB
 10
217.4872321600128
 20
-43.71792511836715
 30
-45.12894643883207
 11
217.3287059674487
 21
-43.62290108714686
 31
-45.12894643883207
  0
LINE
  5
F0
  8
PCB
 10
217.3287059674487
 20
-43.62290108714686
 30
-45.12894643883207
 11
217.1734401985256
 21
-43.52263812669337
 31
-45.12894643883207
  0
LINE
  5
F1
  8
PCB
 10
217.1734401985256
 20
-43.52263812669337
 30
-45.12894643883207
 11
217.0216079209772
 21
-43.41724799559621
 31
-45.12894643883207
  0
LINE
  5
F2
  8
PCB
 10
217.0216079209772
 20
-43.41724799559621
 30
-45.12894643883207
 11
216.8733783753798
 21
-43.30684816747045
 31
-45.12894643883207
  0
LINE
  5
F3
  8
PCB
 10
216.8733783753798
 20
-43.30684816747045
 30
-45.12894643883207
 11
216.7289167865071
 21
-43.19156170001389
 31
-45.12894643883207
  0
LINE
  5
F4
  8
PCB
 10
216.7289167865071
 20
-43.19156170001389
 30
-45.12894643883207
 11
216.5883841791621
 21
-43.07151709784032
 31
-45.12894643883207
  0
LINE
  5
F5
  8
PCB
 10
216.5883841791621
 20
-43.07151709784032
 30
-45.12894643883207
 11
216.4519371986893
 21
-42.9468481692412
 31
-45.12894643883207
  0
LINE
  5
F6
  8
PCB
 10
216.4519371986893
 20
-42.9468481692412
 30
-45.12894643883207
 11
216.3197279363698
 21
-42.81769387703556
 31
-45.12894643883207
  0
LINE
  5
F7
  8
PCB
 10
216.3197279363698
 20
-42.81769387703556
 30
-45.12894643883207
 11
216.1919037598917
 21
-42.68419818367456
 31
-45.12894643883207
  0
LINE
  5
F8
  8
PCB
 10
216.1919037598917
 20
-42.68419818367456
 30
-45.12894643883207
 11
216.0686071490865
 21
-42.54650989077298
 31
-45.12894643883207
  0
LINE
  5
F9
  8
PCB
 10
216.0686071490865
 20
-42.54650989077298
 30
-45.12894643883207
 11
215.9499755371125
 21
-42.4047824732467
 31
-45.12894643883207
  0
LINE
  5
FA
  8
PCB
 10
215.9499755371125
 20
-42.4047824732467
 30
-45.12894643883207
 11
215.836141157265
 21
-42.25917390824133
 31
-45.12894643883207
  0
LINE
  5
FB
  8
PCB
 10
215.836141157265
 20
-42.25917390824133
 30
-45.12894643883207
 11
215.7272308955811
 21
-42.10984649904202
 31
-45.12894643883207
  0
LINE
  5
FC
  8
PCB
 10
215.7272308955811
 20
-42.10984649904202
 30
-45.12894643883207
 11
215.3189260611298
 21
-41.53259903968831
 31
-45.12894643883207
  0
LINE
  5
FD
  8
PCB
 10
215.3189260611298
 20
-41.53259903968831
 30
-45.12894643883207
 11
214.8905877691362
 21
-40.96883099099485
 31
-45.12894643883206
  0
LINE
  5
FE
  8
PCB
 10
214.8905877691362
 20
-40.96883099099485
 30
-45.12894643883206
 11
214.4426957312893
 21
-40.41921889338149
 31
-45.12894643883207
  0
LINE
  5
FF
  8
PCB
 10
214.4426957312893
 20
-40.41921889338149
 30
-45.12894643883207
 11
213.9757851789852
 21
-39.88441976726993
 31
-45.12894643883207
  0
LINE
  5
100
  8
PCB
 10
213.9757851789852
 20
-39.88441976726993
 30
-45.12894643883207
 11
213.4904458831573
 21
-39.36506774190815
 31
-45.12894643883207
  0
LINE
  5
101
  8
PCB
 10
213.4904458831573
 20
-39.36506774190815
 30
-45.12894643883207
 11
212.9873207922114
 21
-38.86177074894311
 31
-45.12894643883206
  0
LINE
  5
102
  8
PCB
 10
212.9873207922114
 20
-38.86177074894311
 30
-45.12894643883206
 11
212.4671042896716
 21
-38.37510731267479
 31
-45.12894643883206
  0
LINE
  5
103
  8
PCB
 10
212.4671042896716
 20
-38.37510731267479
 30
-45.12894643883206
 11
211.9305400778287
 21
-37.90562346873678
 31
-45.12894643883206
  0
LINE
  5
104
  8
PCB
 10
211.9305400778287
 20
-37.90562346873678
 30
-45.12894643883206
 11
211.3784186984204
 21
-37.45382984225491
 31
-45.12894643883206
  0
LINE
  5
105
  8
PCB
 10
211.3784186984204
 20
-37.45382984225491
 30
-45.12894643883206
 11
210.8115747060748
 21
-37.02019891533311
 31
-45.12894643883206
  0
LINE
  5
106
  8
PCB
 10
210.8115747060748
 20
-37.02019891533311
 30
-45.12894643883206
 11
210.2308835148271
 21
-36.60516251201395
 31
-45.12894643883207
  0
LINE
  5
107
  8
PCB
 10
210.2308835148271
 20
-36.60516251201395
 30
-45.12894643883207
 11
209.6372579423652
 21
-36.20910952667862
 31
-45.12894643883207
  0
LINE
  5
108
  8
PCB
 10
209.6372579423652
 20
-36.20910952667862
 30
-45.12894643883207
 11
209.0316444806998
 21
-35.83238391922264
 31
-45.12894643883207
  0
LINE
  5
109
  8
PCB
 10
209.0316444806998
 20
-35.83238391922264
 30
-45.12894643883207
 11
208.415019325594
 21
-35.47528299731233
 31
-45.12894643883206
  0
LINE
  5
10A
  8
PCB
 10
208.415019325594
 20
-35.47528299731233
 30
-45.12894643883206
 11
207.7883842002516
 21
-35.13805600264664
 31
-45.12894643883206
  0
LINE
  5
10B
  8
PCB
 10
207.7883842002516
 20
-35.13805600264664
 30
-45.12894643883206
 11
207.1527620113839
 21
-34.82090301448574
 31
-45.12894643883206
  0
LINE
  5
10C
  8
PCB
 10
207.1527620113839
 20
-34.82090301448574
 30
-45.12894643883206
 11
206.5091923778082
 21
-34.52397417982923
 31
-45.12894643883206
  0
LINE
  5
10D
  8
PCB
 10
206.5091923778082
 20
-34.52397417982923
 30
-45.12894643883206
 11
205.8587270731218
 21
-34.24736927561192
 31
-45.12894643883206
  0
LINE
  5
10E
  8
PCB
 10
205.8587270731218
 20
-34.24736927561192
 30
-45.12894643883206
 11
205.2024254247343
 21
-33.99113760421061
 31
-45.12894643883206
  0
LINE
  5
10F
  8
PCB
 10
205.2024254247343
 20
-33.99113760421061
 30
-45.12894643883206
 11
204.5413497116102
 21
-33.75527821950337
 31
-45.12894643883206
  0
LINE
  5
110
  8
PCB
 10
204.5413497116102
 20
-33.75527821950337
 30
-45.12894643883206
 11
203.8765606024855
 21
-33.53974047676946
 31
-45.12894643883207
  0
LINE
  5
111
  8
PCB
 10
203.8765606024855
 20
-33.53974047676946
 30
-45.12894643883207
 11
203.2091126750972
 21
-33.34442489594036
 31
-45.12894643883206
  0
LINE
  5
112
  8
PCB
 10
203.2091126750972
 20
-33.34442489594036
 30
-45.12894643883206
 11
202.5400500551434
 21
-33.16918432417716
 31
-45.12894643883208
  0
LINE
  5
113
  8
PCB
 10
202.5400500551434
 20
-33.16918432417716
 30
-45.12894643883208
 11
201.8704022113191
 21
-33.01382538051975
 31
-45.12894643883207
  0
LINE
  5
114
  8
PCB
 10
201.8704022113191
 20
-33.01382538051975
 30
-45.12894643883207
 11
201.2011799399193
 21
-32.87811016248124
 31
-45.12894643883207
  0
LINE
  5
115
  8
PCB
 10
201.2011799399193
 20
-32.87811016248124
 30
-45.12894643883207
 11
200.5333715692271
 21
-32.76175819198719
 31
-45.12894643883208
  0
LINE
  5
116
  8
PCB
 10
200.5333715692271
 20
-32.76175819198719
 30
-45.12894643883208
 11
199.8679394102987
 21
-32.66444857601832
 31
-45.12894643883207
  0
LINE
  5
117
  8
PCB
 10
199.8679394102987
 20
-32.66444857601832
 30
-45.12894643883207
 11
199.2058164768907
 21
-32.58582235572391
 31
-45.12894643883207
  0
LINE
  5
118
  8
PCB
 10
199.2058164768907
 20
-32.58582235572391
 30
-45.12894643883207
 11
198.5479034932407
 21
-32.52548501664257
 31
-45.12894643883207
  0
LINE
  5
119
  8
PCB
 10
198.5479034932407
 20
-32.52548501664257
 30
-45.12894643883207
 11
197.8950662042878
 21
-32.48300913199439
 31
-45.12894643883207
  0
LINE
  5
11A
  8
PCB
 10
197.8950662042878
 20
-32.48300913199439
 30
-45.12894643883207
 11
197.2481329987873
 21
-32.45793711078123
 31
-45.12894643883207
  0
LINE
  5
11B
  8
PCB
 10
197.2481329987873
 20
-32.45793711078123
 30
-45.12894643883207
 11
196.607892851709
 21
-32.44978402262961
 31
-45.12894643883207
  0
LINE
  5
11C
  8
PCB
 10
196.607892851709
 20
-32.44978402262961
 30
-45.12894643883207
 11
195.967934586468
 21
-32.45823075298191
 31
-45.12894643883207
  0
LINE
  5
11D
  8
PCB
 10
195.967934586468
 20
-32.45823075298191
 30
-45.12894643883207
 11
195.3212008098575
 21
-32.48372247180281
 31
-45.12894643883207
  0
LINE
  5
11E
  8
PCB
 10
195.3212008098575
 20
-32.48372247180281
 30
-45.12894643883207
 11
194.6683793062926
 21
-32.52688738007767
 31
-45.12894643883207
  0
LINE
  5
11F
  8
PCB
 10
194.6683793062926
 20
-32.52688738007767
 30
-45.12894643883207
 11
194.0101938131043
 21
-32.58833198346134
 31
-45.12894643883207
  0
LINE
  5
120
  8
PCB
 10
194.0101938131043
 20
-32.58833198346134
 30
-45.12894643883207
 11
193.3474022715385
 21
-32.66863784403542
 31
-45.12894643883207
  0
LINE
  5
121
  8
PCB
 10
193.3474022715385
 20
-32.66863784403542
 30
-45.12894643883207
 11
192.6807947873532
 21
-32.76835835609608
 31
-45.12894643883207
  0
LINE
  5
122
  8
PCB
 10
192.6807947873532
 20
-32.76835835609608
 30
-45.12894643883207
 11
192.0111913053875
 21
-32.88801557599948
 31
-45.12894643883207
  0
LINE
  5
123
  8
PCB
 10
192.0111913053875
 20
-32.88801557599948
 30
-45.12894643883207
 11
191.3394390061464
 21
-33.02809713704185
 31
-45.12894643883207
  0
LINE
  5
124
  8
PCB
 10
191.3394390061464
 20
-33.02809713704185
 30
-45.12894643883207
 11
190.666409436189
 21
-33.18905328087514
 31
-45.12894643883208
  0
LINE
  5
125
  8
PCB
 10
190.666409436189
 20
-33.18905328087514
 30
-45.12894643883208
 11
189.9929953878767
 21
-33.37129403702255
 31
-45.12894643883207
  0
LINE
  5
126
  8
PCB
 10
189.9929953878767
 20
-33.37129403702255
 30
-45.12894643883207
 11
189.3201075477598
 21
-33.57518658163316
 31
-45.12894643883207
  0
LINE
  5
127
  8
PCB
 10
189.3201075477598
 20
-33.57518658163316
 30
-45.12894643883207
 11
188.6486709364688
 21
-33.80105280568027
 31
-45.12894643883207
  0
LINE
  5
128
  8
PCB
 10
188.6486709364688
 20
-33.80105280568027
 30
-45.12894643883207
 11
187.9796211663634
 21
-34.04916712136024
 31
-45.12894643883207
  0
LINE
  5
129
  8
PCB
 10
187.9796211663634
 20
-34.04916712136024
 30
-45.12894643883207
 11
187.3139005463066
 21
-34.31975453349042
 31
-45.12894643883207
  0
LINE
  5
12A
  8
PCB
 10
187.3139005463066
 20
-34.31975453349042
 30
-45.12894643883207
 11
186.6524540656726
 21
-34.61298900025269
 31
-45.12894643883207
  0
LINE
  5
12B
  8
PCB
 10
186.6524540656726
 20
-34.61298900025269
 30
-45.12894643883207
 11
185.9962252920473
 21
-34.92899210471666
 31
-45.12894643883208
  0
LINE
  5
12C
  8
PCB
 10
185.9962252920473
 20
-34.92899210471666
 30
-45.12894643883208
 11
185.3461522189168
 21
-35.26783205524153
 31
-45.12894643883208
  0
LINE
  5
12D
  8
PCB
 10
185.3461522189168
 20
-35.26783205524153
 30
-45.12894643883208
 11
184.7031631009764
 21
-35.6295230291563
 31
-45.12894643883208
  0
LINE
  5
12E
  8
PCB
 10
184.7031631009764
 20
-35.6295230291563
 30
-45.12894643883208
 11
184.0681723154311
 21
-36.01402487011529
 31
-45.12894643883207
  0
LINE
  5
12F
  8
PCB
 10
184.0681723154311
 20
-36.01402487011529
 30
-45.12894643883207
 11
183.4420762878241
 21
-36.42124314529623
 31
-45.12894643883207
  0
LINE
  5
130
  8
PCB
 10
183.4420762878241
 20
-36.42124314529623
 30
-45.12894643883207
 11
182.8257495204689
 21
-36.85102956422877
 31
-45.12894643883208
  0
LINE
  5
131
  8
PCB
 10
182.8257495204689
 20
-36.85102956422877
 30
-45.12894643883208
 11
182.2200407605039
 21
-37.30318275659997
 31
-45.12894643883209
  0
LINE
  5
132
  8
PCB
 10
182.2200407605039
 20
-37.30318275659997
 30
-45.12894643883209
 11
181.6257693429378
 21
-37.77744940196579
 31
-45.12894643883209
  0
LINE
  5
133
  8
PCB
 10
181.6257693429378
 20
-37.77744940196579
 30
-45.12894643883209
 11
181.0437217418442
 21
-38.27352569999108
 31
-45.12894643883208
  0
LINE
  5
134
  8
PCB
 10
181.0437217418442
 20
-38.27352569999108
 30
-45.12894643883208
 11
180.4746483601435
 21
-38.79105916573086
 31
-45.12894643883209
  0
LINE
  5
135
  8
PCB
 10
180.4746483601435
 20
-38.79105916573086
 30
-45.12894643883209
 11
179.9192605852292
 21
-39.32965073063095
 31
-45.12894643883208
  0
LINE
  5
136
  8
PCB
 10
179.9192605852292
 20
-39.32965073063095
 30
-45.12894643883208
 11
179.3782281341288
 21
-39.88885712643926
 31
-45.12894643883209
  0
LINE
  5
137
  8
PCB
 10
179.3782281341288
 20
-39.88885712643926
 30
-45.12894643883209
 11
178.8521767080034
 21
-40.46819352614185
 31
-45.12894643883209
  0
LINE
  5
138
  8
PCB
 10
178.8521767080034
 20
-40.46819352614185
 30
-45.12894643883209
 11
178.3416859716771
 21
-41.06713641342417
 31
-45.12894643883208
  0
LINE
  5
139
  8
PCB
 10
178.3416859716771
 20
-41.06713641342417
 30
-45.12894643883208
 11
177.8472878696209
 21
-41.685126650045
 31
-45.12894643883209
  0
LINE
  5
13A
  8
PCB
 10
177.8472878696209
 20
-41.685126650045
 30
-45.12894643883209
 11
177.3694652854942
 21
-42.32157270892686
 31
-45.12894643883208
  0
LINE
  5
13B
  8
PCB
 10
177.3694652854942
 20
-42.32157270892686
 30
-45.12894643883208
 11
176.9086510480423
 21
-42.97585403972553
 31
-45.12894643883208
  0
LINE
  5
13C
  8
PCB
 10
176.9086510480423
 20
-42.97585403972553
 30
-45.12894643883208
 11
176.6842615868327
 21
-43.13844631323393
 31
-45.12894643883208
  0
LINE
  5
13D
  8
PCB
 10
176.6842615868327
 20
-43.13844631323393
 30
-45.12894643883208
 11
176.4549094879074
 21
-43.29395995386596
 31
-45.12894643883209
  0
LINE
  5
13E
  8
PCB
 10
176.4549094879074
 20
-43.29395995386596
 30
-45.12894643883209
 11
176.2208179741302
 21
-43.44224360394781
 31
-45.12894643883209
  0
LINE
  5
13F
  8
PCB
 10
176.2208179741302
 20
-43.44224360394781
 30
-45.12894643883209
 11
175.9822148811229
 21
-43.58315294258063
 31
-45.12894643883209
  0
LINE
  5
140
  8
PCB
 10
175.9822148811229
 20
-43.58315294258063
 30
-45.12894643883209
 11
175.7393324355302
 21
-43.71655082609836
 31
-45.12894643883209
  0
LINE
  5
141
  8
PCB
 10
175.7393324355302
 20
-43.71655082609836
 30
-45.12894643883209
 11
175.4924070289739
 21
-43.84230742156095
 31
-45.1289464388321
  0
LINE
  5
142
  8
PCB
 10
175.4924070289739
 20
-43.84230742156095
 30
-45.1289464388321
 11
175.241678988
 21
-43.96030033310532
 31
-45.1289464388321
  0
LINE
  5
143
  8
PCB
 10
175.241678988
 20
-43.96030033310532
 30
-45.1289464388321
 11
174.9873923401649
 21
-44.07041472107582
 31
-45.12894643883209
  0
LINE
  5
144
  8
PCB
 10
174.9873923401649
 20
-44.07041472107582
 30
-45.12894643883209
 11
174.7297945765313
 21
-44.17254341379386
 31
-45.12894643883209
  0
LINE
  5
145
  8
PCB
 10
174.7297945765313
 20
-44.17254341379386
 30
-45.12894643883209
 11
159.4358934498204
 21
-50.57188299246056
 31
-45.12894643883211
  0
LINE
  5
146
  8
PCB
 10
159.4358934498204
 20
-50.57188299246056
 30
-45.12894643883211
 11
156.5506306340815
 21
-51.68167013243445
 31
-45.12894643883212
  0
LINE
  5
147
  8
PCB
 10
156.5506306340815
 20
-51.68167013243445
 30
-45.12894643883212
 11
155.1381113460012
 21
-52.18996797387211
 31
-45.12894643883211
  0
LINE
  5
148
  8
PCB
 10
155.1381113460012
 20
-52.18996797387211
 30
-45.12894643883211
 11
153.7484733669305
 21
-52.66153592421313
 31
-45.1289464388321
  0
LINE
  5
149
  8
PCB
 10
153.7484733669305
 20
-52.66153592421313
 30
-45.1289464388321
 11
152.3840942473036
 21
-53.09200757066213
 31
-45.12894643883211
  0
LINE
  5
14A
  8
PCB
 10
152.3840942473036
 20
-53.09200757066213
 30
-45.12894643883211
 11
151.0475617960823
 21
-53.47693471017039
 31
-45.12894643883212
  0
LINE
  5
14B
  8
PCB
 10
151.0475617960823
 20
-53.47693471017039
 30
-45.12894643883212
 11
149.8591030314234
 21
-53.78432560417108
 31
-45.12894643883211
  0
LINE
  5
14C
  8
PCB
 10
149.8591030314234
 20
-53.78432560417108
 30
-45.12894643883211
 11
148.696284708932
 21
-54.05216387072564
 31
-45.12894643883211
  0
LINE
  5
14D
  8
PCB
 10
148.696284708932
 20
-54.05216387072564
 30
-45.12894643883211
 11
147.5594571169894
 21
-54.28224002358412
 31
-45.1289464388321
  0
LINE
  5
14E
  8
PCB
 10
147.5594571169894
 20
-54.28224002358412
 30
-45.1289464388321
 11
146.448970543977
 21
-54.47634457649656
 31
-45.1289464388321
  0
LINE
  5
14F
  8
PCB
 10
146.448970543977
 20
-54.47634457649656
 30
-45.1289464388321
 11
145.3651752782759
 21
-54.63626804321301
 31
-45.1289464388321
  0
LINE
  5
150
  8
PCB
 10
145.3651752782759
 20
-54.63626804321301
 30
-45.1289464388321
 11
144.3084216082677
 21
-54.76380093748356
 31
-45.1289464388321
  0
LINE
  5
151
  8
PCB
 10
144.3084216082677
 20
-54.76380093748356
 30
-45.1289464388321
 11
143.2790598223335
 21
-54.86073377305823
 31
-45.1289464388321
  0
LINE
  5
152
  8
PCB
 10
143.2790598223335
 20
-54.86073377305823
 30
-45.1289464388321
 11
142.2774402088548
 21
-54.92885706368709
 31
-45.1289464388321
  0
LINE
  5
153
  8
PCB
 10
142.2774402088548
 20
-54.92885706368709
 30
-45.1289464388321
 11
141.3039130562128
 21
-54.96996132312019
 31
-45.1289464388321
  0
LINE
  5
154
  8
PCB
 10
141.3039130562128
 20
-54.96996132312019
 30
-45.1289464388321
 11
140.358828652789
 21
-54.98583706510757
 31
-45.1289464388321
  0
LINE
  5
155
  8
PCB
 10
140.358828652789
 20
-54.98583706510757
 30
-45.1289464388321
 11
139.4425372869646
 21
-54.97827480339931
 31
-45.1289464388321
  0
LINE
  5
156
  8
PCB
 10
139.4425372869646
 20
-54.97827480339931
 30
-45.1289464388321
 11
138.5553892471209
 21
-54.94906505174544
 31
-45.1289464388321
  0
LINE
  5
157
  8
PCB
 10
138.5553892471209
 20
-54.94906505174544
 30
-45.1289464388321
 11
137.6977348216393
 21
-54.89999832389602
 31
-45.1289464388321
  0
LINE
  5
158
  8
PCB
 10
137.6977348216393
 20
-54.89999832389602
 30
-45.1289464388321
 11
136.8699242989012
 21
-54.83286513360112
 31
-45.12894643883211
  0
LINE
  5
159
  8
PCB
 10
136.8699242989012
 20
-54.83286513360112
 30
-45.12894643883211
 11
136.0723079672877
 21
-54.74945599461077
 31
-45.12894643883211
  0
LINE
  5
15A
  8
PCB
 10
136.0723079672877
 20
-54.74945599461077
 30
-45.12894643883211
 11
135.3052361151804
 21
-54.65156142067504
 31
-45.12894643883211
  0
LINE
  5
15B
  8
PCB
 10
135.3052361151804
 20
-54.65156142067504
 30
-45.12894643883211
 11
134.2523819425505
 21
-54.48757923709088
 31
-45.12894643883211
  0
LINE
  5
15C
  8
PCB
 10
134.2523819425505
 20
-54.48757923709088
 30
-45.12894643883211
 11
133.7494681954296
 21
-54.39584254938288
 31
-45.12894643883211
  0
LINE
  5
15D
  8
PCB
 10
133.7494681954296
 20
-54.39584254938288
 30
-45.12894643883211
 11
133.261903955426
 21
-54.29769810011695
 31
-45.12894643883211
  0
LINE
  5
15E
  8
PCB
 10
133.261903955426
 20
-54.29769810011695
 30
-45.12894643883211
 11
132.7894446832807
 21
-54.19321286608263
 31
-45.12894643883211
  0
LINE
  5
15F
  8
PCB
 10
132.7894446832807
 20
-54.19321286608263
 30
-45.12894643883211
 11
132.3318458397348
 21
-54.0824538240694
 31
-45.12894643883211
  0
LINE
  5
160
  8
PCB
 10
132.3318458397348
 20
-54.0824538240694
 30
-45.12894643883211
 11
131.8888628855292
 21
-53.96548795086679
 31
-45.12894643883211
  0
LINE
  5
161
  8
PCB
 10
131.8888628855292
 20
-53.96548795086679
 30
-45.12894643883211
 11
131.4602512814051
 21
-53.84238222326433
 31
-45.12894643883211
  0
LINE
  5
162
  8
PCB
 10
131.4602512814051
 20
-53.84238222326433
 30
-45.12894643883211
 11
131.0457664881033
 21
-53.71320361805152
 31
-45.12894643883211
  0
LINE
  5
163
  8
PCB
 10
131.0457664881033
 20
-53.71320361805152
 30
-45.12894643883211
 11
130.6451639663649
 21
-53.57801911201788
 31
-45.12894643883211
  0
LINE
  5
164
  8
PCB
 10
130.6451639663649
 20
-53.57801911201788
 30
-45.12894643883211
 11
130.258199176931
 21
-53.43689568195293
 31
-45.12894643883212
  0
LINE
  5
165
  8
PCB
 10
130.258199176931
 20
-53.43689568195293
 30
-45.12894643883212
 11
129.8846275805424
 21
-53.2899003046462
 31
-45.12894643883212
  0
LINE
  5
166
  8
PCB
 10
129.8846275805424
 20
-53.2899003046462
 30
-45.12894643883212
 11
129.5242046379403
 21
-53.13709995688718
 31
-45.12894643883212
  0
LINE
  5
167
  8
PCB
 10
129.5242046379403
 20
-53.13709995688718
 30
-45.12894643883212
 11
129.1766858098656
 21
-52.9785616154654
 31
-45.12894643883212
  0
LINE
  5
168
  8
PCB
 10
129.1766858098656
 20
-52.9785616154654
 30
-45.12894643883212
 11
128.8418265570594
 21
-52.81435225717038
 31
-45.12894643883212
  0
LINE
  5
169
  8
PCB
 10
128.8418265570594
 20
-52.81435225717038
 30
-45.12894643883212
 11
128.5193823402627
 21
-52.64453885879163
 31
-45.12894643883212
  0
LINE
  5
16A
  8
PCB
 10
128.5193823402627
 20
-52.64453885879163
 30
-45.12894643883212
 11
128.2091086202165
 21
-52.46918839711866
 31
-45.12894643883212
  0
LINE
  5
16B
  8
PCB
 10
128.2091086202165
 20
-52.46918839711866
 30
-45.12894643883212
 11
127.9107608576617
 21
-52.288367848941
 31
-45.12894643883212
  0
LINE
  5
16C
  8
PCB
 10
127.9107608576617
 20
-52.288367848941
 30
-45.12894643883212
 11
127.6240945133395
 21
-52.10214419104816
 31
-45.12894643883212
  0
LINE
  5
16D
  8
PCB
 10
127.6240945133395
 20
-52.10214419104816
 30
-45.12894643883212
 11
127.3488650479908
 21
-51.91058440022966
 31
-45.12894643883212
  0
LINE
  5
16E
  8
PCB
 10
127.3488650479908
 20
-51.91058440022966
 30
-45.12894643883212
 11
127.0848279223566
 21
-51.71375545327501
 31
-45.12894643883212
  0
LINE
  5
16F
  8
PCB
 10
127.0848279223566
 20
-51.71375545327501
 30
-45.12894643883212
 11
126.8317385971779
 21
-51.51172432697373
 31
-45.12894643883212
  0
LINE
  5
170
  8
PCB
 10
126.8317385971779
 20
-51.51172432697373
 30
-45.12894643883212
 11
126.5893525331958
 21
-51.30455799811534
 31
-45.12894643883212
  0
LINE
  5
171
  8
PCB
 10
126.5893525331958
 20
-51.30455799811534
 30
-45.12894643883212
 11
126.3574251911513
 21
-51.09232344348933
 31
-45.12894643883212
  0
LINE
  5
172
  8
PCB
 10
126.3574251911513
 20
-51.09232344348933
 30
-45.12894643883212
 11
126.1357120317854
 21
-50.87508763988527
 31
-45.12894643883212
  0
LINE
  5
173
  8
PCB
 10
126.1357120317854
 20
-50.87508763988527
 30
-45.12894643883212
 11
125.923968515839
 21
-50.65291756409263
 31
-45.12894643883212
  0
LINE
  5
174
  8
PCB
 10
125.923968515839
 20
-50.65291756409263
 30
-45.12894643883212
 11
125.7219501040532
 21
-50.42588019290094
 31
-45.12894643883212
  0
LINE
  5
175
  8
PCB
 10
125.7219501040532
 20
-50.42588019290094
 30
-45.12894643883212
 11
125.5294122571691
 21
-50.19404250309971
 31
-45.12894643883212
  0
LINE
  5
176
  8
PCB
 10
125.5294122571691
 20
-50.19404250309971
 30
-45.12894643883212
 11
125.3461104359276
 21
-49.95747147147848
 31
-45.12894643883212
  0
LINE
  5
177
  8
PCB
 10
125.3461104359276
 20
-49.95747147147848
 30
-45.12894643883212
 11
125.1718001010697
 21
-49.71623407482674
 31
-45.12894643883212
  0
LINE
  5
178
  8
PCB
 10
125.1718001010697
 20
-49.71623407482674
 30
-45.12894643883212
 11
125.0062367133365
 21
-49.47039728993402
 31
-45.12894643883212
  0
LINE
  5
179
  8
PCB
 10
125.0062367133365
 20
-49.47039728993402
 30
-45.12894643883212
 11
124.8491757334689
 21
-49.22002809358983
 31
-45.12894643883212
  0
LINE
  5
17A
  8
PCB
 10
124.8491757334689
 20
-49.22002809358983
 30
-45.12894643883212
 11
124.700372622208
 21
-48.9651934625837
 31
-45.12894643883212
  0
LINE
  5
17B
  8
PCB
 10
124.700372622208
 20
-48.9651934625837
 30
-45.12894643883212
 11
124.5595828402947
 21
-48.70596037370513
 31
-45.12894643883212
  0
LINE
  5
17C
  8
PCB
 10
124.5595828402947
 20
-48.70596037370513
 30
-45.12894643883212
 11
124.4265618484702
 21
-48.44239580374364
 31
-45.12894643883212
  0
LINE
  5
17D
  8
PCB
 10
124.4265618484702
 20
-48.44239580374364
 30
-45.12894643883212
 11
124.3010651074754
 21
-48.17456672948875
 31
-45.12894643883212
  0
LINE
  5
17E
  8
PCB
 10
124.3010651074754
 20
-48.17456672948875
 30
-45.12894643883212
 11
124.1828480780513
 21
-47.90254012772997
 31
-45.12894643883212
  0
LINE
  5
17F
  8
PCB
 10
124.1828480780513
 20
-47.90254012772997
 30
-45.12894643883212
 11
124.0716662209389
 21
-47.62638297525682
 31
-45.12894643883212
  0
LINE
  5
180
  8
PCB
 10
124.0716662209389
 20
-47.62638297525682
 30
-45.12894643883212
 11
123.9672749968793
 21
-47.34616224885882
 31
-45.12894643883212
  0
LINE
  5
181
  8
PCB
 10
123.9672749968793
 20
-47.34616224885882
 30
-45.12894643883212
 11
123.8694298666134
 21
-47.0619449253255
 31
-45.12894643883212
  0
LINE
  5
182
  8
PCB
 10
123.8694298666134
 20
-47.0619449253255
 30
-45.12894643883212
 11
123.7778862908823
 21
-46.77379798144634
 31
-45.12894643883212
  0
LINE
  5
183
  8
PCB
 10
123.7778862908823
 20
-46.77379798144634
 30
-45.12894643883212
 11
123.692399730427
 21
-46.48178839401088
 31
-45.12894643883212
  0
LINE
  5
184
  8
PCB
 10
123.692399730427
 20
-46.48178839401088
 30
-45.12894643883212
 11
123.6127256459885
 21
-46.18598313980864
 31
-45.12894643883212
  0
LINE
  5
185
  8
PCB
 10
123.6127256459885
 20
-46.18598313980864
 30
-45.12894643883212
 11
123.5386194983077
 21
-45.88644919562913
 31
-45.12894643883212
  0
LINE
  5
186
  8
PCB
 10
123.5386194983077
 20
-45.88644919562913
 30
-45.12894643883212
 11
123.4698367481258
 21
-45.58325353826186
 31
-45.12894643883212
  0
LINE
  5
187
  8
PCB
 10
123.4698367481258
 20
-45.58325353826186
 30
-45.12894643883212
 11
123.4061328561837
 21
-45.27646314449636
 31
-45.12894643883212
  0
LINE
  5
188
  8
PCB
 10
123.4061328561837
 20
-45.27646314449636
 30
-45.12894643883212
 11
123.292983489983
 21
-44.65236605492871
 31
-45.12894643883212
  0
LINE
  5
189
  8
PCB
 10
123.292983489983
 20
-44.65236605492871
 30
-45.12894643883212
 11
123.1972150856338
 21
-44.0146937412423
 31
-45.12894643883212
  0
LINE
  5
18A
  8
PCB
 10
123.1972150856338
 20
-44.0146937412423
 30
-45.12894643883212
 11
123.1168713290641
 21
-43.36398201775327
 31
-45.12894643883212
  0
LINE
  5
18B
  8
PCB
 10
123.1168713290641
 20
-43.36398201775327
 30
-45.12894643883212
 11
123.049995906202
 21
-42.70076669877774
 31
-45.12894643883212
  0
LINE
  5
18C
  8
PCB
 10
123.049995906202
 20
-42.70076669877774
 30
-45.12894643883212
 11
122.9946325029757
 21
-42.02558359863185
 31
-45.12894643883212
  0
LINE
  5
18D
  8
PCB
 10
122.9946325029757
 20
-42.02558359863185
 30
-45.12894643883212
 11
122.9106164991425
 21
-40.64145731209353
 31
-45.12894643883212
  0
LINE
  5
18E
  8
PCB
 10
122.9106164991425
 20
-40.64145731209353
 30
-45.12894643883212
 11
122.8491728049894
 21
-39.21588967266732
 31
-45.12894643883212
  0
LINE
  5
18F
  8
PCB
 10
122.8491728049894
 20
-39.21588967266732
 30
-45.12894643883212
 11
122.479427255096
 21
-13.17341217902769
 31
-45.12894643883212
  0
LINE
  5
190
  8
PCB
 10
122.479427255096
 20
-13.17341217902769
 30
-45.12894643883212
 11
122.465234248037
 21
-6.437662753385816
 31
-45.12894643883212
  0
LINE
  5
191
  8
PCB
 10
122.465234248037
 20
-6.437662753385816
 30
-45.12894643883212
 11
122.5518697375106
 21
-3.108456644619817
 31
-45.12894643883212
  0
LINE
  5
192
  8
PCB
 10
122.5518697375106
 20
-3.108456644619817
 30
-45.12894643883212
 11
122.6368548992056
 21
-1.454238261634738
 31
-45.12894643883212
  0
LINE
  5
193
  8
PCB
 10
122.6368548992056
 20
-1.454238261634738
 30
-45.12894643883212
 11
122.7565647840946
 21
0.1927836659863247
 31
-45.12894643883212
  0
LINE
  5
194
  8
PCB
 10
122.7565647840946
 20
0.1927836659863247
 30
-45.12894643883212
 11
122.9162092260941
 21
1.832404132419317
 31
-45.12894643883212
  0
LINE
  5
195
  8
PCB
 10
122.9162092260941
 20
1.832404132419317
 30
-45.12894643883212
 11
123.1209980591203
 21
3.464418131840184
 31
-45.12894643883212
  0
LINE
  5
196
  8
PCB
 10
123.1209980591203
 20
3.464418131840184
 30
-45.12894643883212
 11
123.3761411170899
 21
5.088620658424874
 31
-45.12894643883212
  0
LINE
  5
197
  8
PCB
 10
123.3761411170899
 20
5.088620658424874
 30
-45.12894643883212
 11
123.5242235535272
 21
5.897728555083638
 31
-45.12894643883212
  0
LINE
  5
198
  8
PCB
 10
123.5242235535272
 20
5.897728555083638
 30
-45.12894643883212
 11
123.686848233919
 21
6.704806706349336
 31
-45.12894643883212
  0
LINE
  5
199
  8
PCB
 10
123.686848233919
 20
6.704806706349336
 30
-45.12894643883212
 11
123.8646663875049
 21
7.509829486493963
 31
-45.12894643883212
  0
LINE
  5
19A
  8
PCB
 10
123.8646663875049
 20
7.509829486493963
 30
-45.12894643883212
 11
124.0583292435243
 21
8.312771269789513
 31
-45.12894643883212
  0
LINE
  5
19B
  8
PCB
 10
124.0583292435243
 20
8.312771269789513
 30
-45.12894643883212
 11
124.2684880312168
 21
9.113606430507978
 31
-45.12894643883212
  0
LINE
  5
19C
  8
PCB
 10
124.2684880312168
 20
9.113606430507978
 30
-45.12894643883212
 11
124.495793979822
 21
9.912309342921356
 31
-45.12894643883212
  0
LINE
  5
19D
  8
PCB
 10
124.495793979822
 20
9.912309342921356
 30
-45.12894643883212
 11
124.7408983185794
 21
10.70885438130163
 31
-45.12894643883212
  0
LINE
  5
19E
  8
PCB
 10
124.7408983185794
 20
10.70885438130163
 30
-45.12894643883212
 11
125.0044522767286
 21
11.50321591992081
 31
-45.12894643883212
  0
LINE
  5
19F
  8
PCB
 10
125.0044522767286
 20
11.50321591992081
 30
-45.12894643883212
 11
125.287107083509
 21
12.29536833305087
 31
-45.12894643883212
  0
LINE
  5
1A0
  8
PCB
 10
125.287107083509
 20
12.29536833305087
 30
-45.12894643883212
 11
125.5895139681604
 21
13.08528599496382
 31
-45.12894643883212
  0
LINE
  5
1A1
  8
PCB
 10
125.5895139681604
 20
13.08528599496382
 30
-45.12894643883212
 11
125.9122815204891
 21
13.87283497853024
 31
-45.12894643883212
  0
LINE
  5
1A2
  8
PCB
 10
125.9122815204891
 20
13.87283497853024
 30
-45.12894643883212
 11
126.2558477725693
 21
14.65744815101515
 31
-45.12894643883212
  0
LINE
  5
1A3
  8
PCB
 10
126.2558477725693
 20
14.65744815101515
 30
-45.12894643883212
 11
126.6206081170418
 21
15.43845007828212
 31
-45.12894643883212
  0
LINE
  5
1A4
  8
PCB
 10
126.6206081170418
 20
15.43845007828212
 30
-45.12894643883212
 11
127.0069579465476
 21
16.21516532619476
 31
-45.12894643883212
  0
LINE
  5
1A5
  8
PCB
 10
127.0069579465476
 20
16.21516532619476
 30
-45.12894643883212
 11
127.4152926537278
 21
16.98691846061668
 31
-45.12894643883212
  0
LINE
  5
1A6
  8
PCB
 10
127.4152926537278
 20
16.98691846061668
 30
-45.12894643883212
 11
127.8460076312234
 21
17.75303404741146
 31
-45.12894643883211
  0
LINE
  5
1A7
  8
PCB
 10
127.8460076312234
 20
17.75303404741146
 30
-45.12894643883211
 11
128.2994982716752
 21
18.5128366524427
 31
-45.12894643883211
  0
LINE
  5
1A8
  8
PCB
 10
128.2994982716752
 20
18.5128366524427
 30
-45.12894643883211
 11
128.7761599677243
 21
19.265650841574
 31
-45.12894643883211
  0
LINE
  5
1A9
  8
PCB
 10
128.7761599677243
 20
19.265650841574
 30
-45.12894643883211
 11
129.2763881120117
 21
20.01080118066897
 31
-45.12894643883211
  0
LINE
  5
1AA
  8
PCB
 10
129.2763881120117
 20
20.01080118066897
 30
-45.12894643883211
 11
129.8005780971784
 21
20.74761223559118
 31
-45.12894643883211
  0
LINE
  5
1AB
  8
PCB
 10
129.8005780971784
 20
20.74761223559118
 30
-45.12894643883211
 11
130.3491253158652
 21
21.47540857220426
 31
-45.12894643883211
  0
LINE
  5
1AC
  8
PCB
 10
130.3491253158652
 20
21.47540857220426
 30
-45.12894643883211
 11
130.9224251607133
 21
22.19351475637179
 31
-45.12894643883211
  0
LINE
  5
1AD
  8
PCB
 10
130.9224251607133
 20
22.19351475637179
 30
-45.12894643883211
 11
131.5208730243635
 21
22.90125535395737
 31
-45.12894643883211
  0
LINE
  5
1AE
  8
PCB
 10
131.5208730243635
 20
22.90125535395737
 30
-45.12894643883211
 11
132.144864299457
 21
23.5979549308246
 31
-45.12894643883211
  0
LINE
  5
1AF
  8
PCB
 10
132.144864299457
 20
23.5979549308246
 30
-45.12894643883211
 11
132.7947943786345
 21
24.28293805283709
 31
-45.12894643883211
  0
LINE
  5
1B0
  8
PCB
 10
132.7947943786345
 20
24.28293805283709
 30
-45.12894643883211
 11
133.4710586545372
 21
24.95552928585841
 31
-45.12894643883211
  0
LINE
  5
1B1
  8
PCB
 10
133.4710586545372
 20
24.95552928585841
 30
-45.12894643883211
 11
134.174052519806
 21
25.61505319575218
 31
-45.12894643883211
  0
LINE
  5
1B2
  8
PCB
 10
134.174052519806
 20
25.61505319575218
 30
-45.12894643883211
 11
134.9041713670819
 21
26.260834348382
 31
-45.12894643883211
  0
LINE
  5
1B3
  8
PCB
 10
134.9041713670819
 20
26.260834348382
 30
-45.12894643883211
 11
135.6618105890058
 21
26.89219730961145
 31
-45.12894643883211
  0
LINE
  5
1B4
  8
PCB
 10
135.6618105890058
 20
26.89219730961145
 30
-45.12894643883211
 11
136.4473655782188
 21
27.50846664530414
 31
-45.12894643883211
  0
LINE
  5
1B5
  8
PCB
 10
136.4473655782188
 20
27.50846664530414
 30
-45.12894643883211
 11
137.2612317273619
 21
28.10896692132367
 31
-45.12894643883211
  0
LINE
  5
1B6
  8
PCB
 10
137.2612317273619
 20
28.10896692132367
 30
-45.12894643883211
 11
138.1038044290759
 21
28.69302270353364
 31
-45.1289464388321
  0
LINE
  5
1B7
  8
PCB
 10
138.1038044290759
 20
28.69302270353364
 30
-45.1289464388321
 11
138.9754790760019
 21
29.25995855779763
 31
-45.1289464388321
  0
LINE
  5
1B8
  8
PCB
 10
138.9754790760019
 20
29.25995855779763
 30
-45.1289464388321
 11
139.8766510607809
 21
29.80909904997926
 31
-45.1289464388321
  0
LINE
  5
1B9
  8
PCB
 10
139.8766510607809
 20
29.80909904997926
 30
-45.1289464388321
 11
140.8077157760538
 21
30.33976874594212
 31
-45.1289464388321
  0
LINE
  5
1BA
  8
PCB
 10
140.8077157760538
 20
30.33976874594212
 30
-45.1289464388321
 11
141.7690686144616
 21
30.85129221154979
 31
-45.1289464388321
  0
LINE
  5
1BB
  8
PCB
 10
141.7690686144616
 20
30.85129221154979
 30
-45.1289464388321
 11
142.7611049686454
 21
31.3429940126659
 31
-45.1289464388321
  0
LINE
  5
1BC
  8
PCB
 10
142.7611049686454
 20
31.3429940126659
 30
-45.1289464388321
 11
143.7842202312461
 21
31.81419871515403
 31
-45.1289464388321
  0
LINE
  5
1BD
  8
PCB
 10
143.7842202312461
 20
31.81419871515403
 30
-45.1289464388321
 11
144.8388097949046
 21
32.26423088487778
 31
-45.1289464388321
  0
LINE
  5
1BE
  8
PCB
 10
144.8388097949046
 20
32.26423088487778
 30
-45.1289464388321
 11
145.9252690522619
 21
32.69241508770074
 31
-45.12894643883208
  0
LINE
  5
1BF
  8
PCB
 10
145.9252690522619
 20
32.69241508770074
 30
-45.12894643883208
 11
147.0439933959591
 21
33.09807588948652
 31
-45.12894643883208
  0
LINE
  5
1C0
  8
PCB
 10
147.0439933959591
 20
33.09807588948652
 30
-45.12894643883208
 11
148.1953782186371
 21
33.48053785609873
 31
-45.12894643883208
  0
LINE
  5
1C1
  8
PCB
 10
148.1953782186371
 20
33.48053785609873
 30
-45.12894643883208
 11
149.3778784551318
 21
33.83888028401431
 31
-45.12894643883208
  0
LINE
  5
1C2
  8
PCB
 10
149.3778784551318
 20
33.83888028401431
 30
-45.12894643883208
 11
150.5922833105747
 21
34.1742113172458
 31
-45.12894643883208
  0
LINE
  5
1C3
  8
PCB
 10
150.5922833105747
 20
34.1742113172458
 30
-45.12894643883208
 11
151.8375349598291
 21
34.4873263533247
 31
-45.12894643883208
  0
LINE
  5
1C4
  8
PCB
 10
151.8375349598291
 20
34.4873263533247
 30
-45.12894643883208
 11
153.1125755777579
 21
34.77902078978259
 31
-45.12894643883208
  0
LINE
  5
1C5
  8
PCB
 10
153.1125755777579
 20
34.77902078978259
 30
-45.12894643883208
 11
154.4163473392241
 21
35.05009002415098
 31
-45.12894643883208
  0
LINE
  5
1C6
  8
PCB
 10
154.4163473392241
 20
35.05009002415098
 30
-45.12894643883208
 11
155.7477924190908
 21
35.30132945396142
 31
-45.12894643883208
  0
LINE
  5
1C7
  8
PCB
 10
155.7477924190908
 20
35.30132945396142
 30
-45.12894643883208
 11
158.4894712334781
 21
35.7475004900346
 31
-45.12894643883208
  0
LINE
  5
1C8
  8
PCB
 10
158.4894712334781
 20
35.7475004900346
 30
-45.12894643883208
 11
161.3291494198239
 21
36.12389707825448
 31
-45.12894643883208
  0
LINE
  5
1C9
  8
PCB
 10
161.3291494198239
 20
36.12389707825448
 30
-45.12894643883208
 11
164.2583643770328
 21
36.43688239887334
 31
-45.12894643883208
  0
LINE
  5
1CA
  8
PCB
 10
164.2583643770328
 20
36.43688239887334
 30
-45.12894643883208
 11
167.2686535040091
 21
36.69281963214352
 31
-45.12894643883208
  0
LINE
  5
1CB
  8
PCB
 10
167.2686535040091
 20
36.69281963214352
 30
-45.12894643883208
 11
170.3515541996572
 21
36.89807195831733
 31
-45.12894643883208
  0
LINE
  5
1CC
  8
PCB
 10
170.3515541996572
 20
36.89807195831733
 30
-45.12894643883208
 11
176.7013398925864
 21
37.18197461038516
 31
-45.12894643883208
  0
LINE
  5
1CD
  8
PCB
 10
176.7013398925864
 20
37.18197461038516
 30
-45.12894643883208
 11
196.613264105554
 21
37.47901554251715
 31
-45.12894643883205
  0
ARC
  5
1CF
  8
PCB$TRACES
 10
-251.59430865238
 20
12.00683441074563
 30
45.14539661710429
 40
0.999999999999969
 50
71.12124836032834
 51
18.91348355883939
210
0.0
220
0.0
230
-1.0
  0
LINE
  5
1D0
  8
PCB$TRACES
 10
250.6482995480442
 20
12.33097446460176
 30
-45.1453966171043
 11
243.1734712131501
 21
19.80584888877448
 31
-45.1453966171043
  0
LINE
  5
1D1
  8
PCB$TRACES
 10
243.1734712131501
 20
19.80584888877448
 30
-45.1453966171043
 11
206.1350476985933
 21
19.80584888877448
 31
-45.1453966171043
  0
LINE
  5
1D2
  8
PCB$TRACES
 10
206.1350476985933
 20
19.80584888877448
 30
-45.1453966171043
 11
201.7533995340303
 21
22.40412300781166
 31
-45.14539661710435
  0
ARC
  5
1D3
  8
PCB$TRACES
 10
-201.3022080681792
 20
23.18285676279014
 30
45.14539661710438
 40
0.8999999999998956
 50
239.9123760081649
 51
304.0291671845757
210
0.0
220
0.0
230
-1.0
  0
LINE
  5
1D4
  8
PCB$TRACES
 10
200.7985546908624
 20
22.43697924233707
 30
-45.14539661710435
 11
198.8858869639611
 21
21.47480386094683
 31
-45.14539661710435
  0
LINE
  5
1D5
  8
PCB$TRACES
 10
198.8858869639611
 20
21.47480386094683
 30
-45.14539661710435
 11
198.8856512853045
 21
14.51544881030535
 31
-45.14539661710435
  0
LINE
  5
1D6
  8
PCB$TRACES
 10
198.8856512853045
 20
14.51544881030535
 30
-45.14539661710435
 11
203.5972711218578
 21
12.11421389376043
 31
-45.14539661710435
  0
LINE
  5
1D7
  8
PCB$TRACES
 10
203.5972711218578
 20
12.11421389376043
 30
-45.14539661710435
 11
207.8855405548439
 21
7.825891458976834
 31
-45.1453966171043
  0
LINE
  5
1D8
  8
PCB$TRACES
 10
207.8855405548439
 20
7.825891458976834
 30
-45.1453966171043
 11
207.8855405548439
 21
-19.54529335349228
 31
-45.1453966171043
  0
LINE
  5
1D9
  8
PCB$TRACES
 10
207.8855405548439
 20
-19.54529335349228
 30
-45.1453966171043
 11
198.1582546185751
 21
-28.43725499743343
 31
-45.14539661710435
  0
LINE
  5
1DA
  8
PCB$TRACES
 10
198.1582546185751
 20
-28.43725499743343
 30
-45.14539661710435
 11
194.3647380827104
 21
-28.43725499743343
 31
-45.14539661710435
  0
LINE
  5
1DB
  8
PCB$TRACES
 10
194.3647380827104
 20
-28.43725499743343
 30
-45.14539661710435
 11
192.3289884941476
 21
-26.40150540887047
 31
-45.14539661710436
  0
LINE
  5
1DC
  8
PCB$TRACES
 10
192.3289884941476
 20
-26.40150540887047
 30
-45.14539661710436
 11
192.3289884941476
 21
-24.04689753277783
 31
-45.14539661710436
  0
LINE
  5
1DD
  8
PCB$TRACES
 10
192.3289884941476
 20
-24.04689753277783
 30
-45.14539661710436
 11
193.2111916014672
 21
-23.12285790983831
 31
-45.14539661710436
  0
LINE
  5
1DE
  8
PCB$TRACES
 10
193.2111916014672
 20
-23.12285790983831
 30
-45.14539661710436
 11
194.4095566880632
 21
-21.86142084947405
 31
-45.14539661710435
  0
ARC
  5
1DF
  8
PCB$TRACES
 10
-195.2477019051089
 20
-20.88521537335411
 30
45.14539661710435
 40
1.286648567582912
 50
310.6485504042379
 51
76.292051974446
210
0.0
220
0.0
230
-1.0
  0
LINE
  5
1E0
  8
PCB$TRACES
 10
194.9428010417728
 20
-19.63521537335411
 30
-45.14539661710435
 11
196.9428010417728
 21
-19.63521537335411
 31
-45.14539661710433
  0
ARC
  5
1E1
  8
PCB$TRACES
 10
-196.6379001784367
 20
-20.8852153733541
 30
45.14539661710433
 40
1.286648567582872
 50
103.7079480255544
 51
256.2920519744456
210
0.0
220
0.0
230
-1.0
  0
LINE
  5
1E2
  8
PCB$TRACES
 10
196.9428010417728
 20
-22.13521537335411
 30
-45.14539661710433
 11
195.3632457291836
 21
-22.13521537335411
 31
-45.14539661710433
  0
LINE
  5
1E3
  8
PCB$TRACES
 10
195.3632457291836
 20
-22.13521537335411
 30
-45.14539661710433
 11
193.8488072308717
 21
-23.72936100044635
 31
-45.14539661710436
  0
LINE
  5
1E4
  8
PCB$TRACES
 10
193.8488072308717
 20
-23.72936100044635
 30
-45.14539661710436
 11
193.2089884941476
 21
-24.40114956125749
 31
-45.14539661710436
  0
LINE
  5
1E5
  8
PCB$TRACES
 10
193.2089884941476
 20
-24.40114956125749
 30
-45.14539661710436
 11
193.2089884941476
 21
-26.03699747398222
 31
-45.14539661710436
  0
LINE
  5
1E6
  8
PCB$TRACES
 10
193.2089884941476
 20
-26.03699747398222
 30
-45.14539661710436
 11
194.7292460175988
 21
-27.55725499743344
 31
-45.14539661710435
  0
LINE
  5
1E7
  8
PCB$TRACES
 10
194.7292460175988
 20
-27.55725499743344
 30
-45.14539661710435
 11
197.7937431977616
 21
-27.55725499743344
 31
-45.14539661710433
  0
LINE
  5
1E8
  8
PCB$TRACES
 10
197.7937431977616
 20
-27.55725499743344
 30
-45.14539661710433
 11
207.0055405548439
 21
-19.18078890451913
 31
-45.1453966171043
  0
LINE
  5
1E9
  8
PCB$TRACES
 10
207.0055405548439
 20
-19.18078890451913
 30
-45.1453966171043
 11
207.0055405548439
 21
7.461386709732814
 31
-45.1453966171043
  0
LINE
  5
1EA
  8
PCB$TRACES
 10
207.0055405548439
 20
7.461386709732814
 30
-45.1453966171043
 11
203.0735407472915
 21
11.3934351156909
 31
-45.14539661710435
  0
LINE
  5
1EB
  8
PCB$TRACES
 10
203.0735407472915
 20
11.3934351156909
 30
-45.14539661710435
 11
198.0056330247897
 21
13.97624896724339
 31
-45.14539661710435
  0
LINE
  5
1EC
  8
PCB$TRACES
 10
198.0056330247897
 20
13.97624896724339
 30
-45.14539661710435
 11
198.0058842851691
 21
22.01642395375999
 31
-45.14539661710435
  0
LINE
  5
1ED
  8
PCB$TRACES
 10
198.0058842851691
 20
22.01642395375999
 30
-45.14539661710435
 11
200.4031013821001
 21
23.22294625078846
 31
-45.14539661710435
  0
ARC
  5
1EE
  8
PCB$TRACES
 10
-201.3022080681791
 20
23.18285676279023
 30
45.14539661710434
 40
0.9000000000000075
 50
2.553020813110776
 51
181.3772184526203
210
0.0
220
0.0
230
-1.0
  0
LINE
  5
1EF
  8
PCB$TRACES
 10
202.2019480809567
 20
23.16122554906864
 30
-45.14539661710435
 11
206.3775401982349
 21
20.68584888877448
 31
-45.1453966171043
  0
LINE
  5
1F0
  8
PCB$TRACES
 10
206.3775401982349
 20
20.68584888877448
 30
-45.1453966171043
 11
243.5379807372789
 21
20.68584888877448
 31
-45.1453966171043
  0
LINE
  5
1F1
  8
PCB$TRACES
 10
243.5379807372789
 20
20.68584888877448
 30
-45.1453966171043
 11
251.2707421158446
 21
12.95303983053271
 31
-45.14539661710423
  0
ARC
  5
1F2
  8
PCB$TRACES
 10
-196.3912295995527
 20
-25.58524077340485
 30
45.14539661710427
 40
1.312793318765722
 50
140.3740912587117
 51
256.2920519744439
210
0.0
220
0.0
230
-1.0
  0
LINE
  5
1F3
  8
PCB$TRACES
 10
196.702326060823
 20
-26.86064082420499
 30
-45.14539661710433
 11
195.1832760227226
 21
-26.86064082420499
 31
-45.14539661710435
  0
ARC
  5
1F4
  8
PCB$TRACES
 10
-195.4943724839928
 20
-25.58524077340488
 30
45.14539661710435
 40
1.312793318765671
 50
283.7079480255541
 51
76.29205197444591
210
0.0
220
0.0
230
-1.0
  0
LINE
  5
1F5
  8
PCB$TRACES
 10
195.1832760227226
 20
-24.30984072260478
 30
-45.14539661710435
 11
196.5960075839288
 21
-24.30984072260478
 31
-45.14539661710433
  0
LINE
  5
1F6
  8
PCB$TRACES
 10
196.5960075839288
 20
-24.30984072260478
 30
-45.14539661710433
 11
204.0055405548439
 21
-17.73565337537551
 31
-45.14539661710435
  0
LINE
  5
1F7
  8
PCB$TRACES
 10
204.0055405548439
 20
-17.73565337537551
 30
-45.14539661710435
 11
204.0055405548439
 21
7.157623826491466
 31
-45.14539661710435
  0
LINE
  5
1F8
  8
PCB$TRACES
 10
204.0055405548439
 20
7.157623826491466
 30
-45.14539661710435
 11
201.5465033145225
 21
9.616621323191204
 31
-45.14539661710435
  0
ARC
  5
1F9
  8
PCB$TRACES
 10
-201.3022080681792
 20
10.4828313627394
 30
45.14539661710435
 40
0.9000000000000233
 50
254.2500766317506
 51
195.7149185967781
210
0.0
220
0.0
230
-1.0
  0
LINE
  5
1FA
  8
PCB$TRACES
 10
202.1685671978763
 20
10.23906537169402
 30
-45.14539661710435
 11
204.8855405548439
 21
7.522135927181161
 31
-45.14539661710433
  0
LINE
  5
1FB
  8
PCB$TRACES
 10
204.8855405548439
 20
7.522135927181161
 30
-45.14539661710433
 11
204.8855405548439
 21
-18.10015710209226
 31
-45.14539661710433
  0
LINE
  5
1FC
  8
PCB$TRACES
 10
204.8855405548439
 20
-18.10015710209226
 30
-45.14539661710433
 11
197.402375735623
 21
-24.74797749981279
 31
-45.14539661710426
  0
LINE
  5
1FD
  8
PCB$TRACES
 10
241.2336664896948
 20
-24.31453211198772
 30
-45.1453966171043
 11
243.264010095052
 21
-24.31453211198764
 31
-45.1453966171043
  0
LINE
  5
1FE
  8
PCB$TRACES
 10
243.264010095052
 20
-24.31453211198764
 30
-45.1453966171043
 11
253.5056241332823
 21
-14.07187745824016
 31
-45.14539661710429
  0
LINE
  5
1FF
  8
PCB$TRACES
 10
253.5056241332823
 20
-14.07187745824016
 30
-45.14539661710429
 11
253.5066073757638
 21
10.21363625092224
 31
-45.14539661710429
  0
LINE
  5
200
  8
PCB$TRACES
 10
253.5066073757638
 20
10.21363625092224
 30
-45.14539661710429
 11
253.5056552743448
 21
12.52858611256077
 31
-45.14539661710429
  0
LINE
  5
201
  8
PCB$TRACES
 10
253.5056552743448
 20
12.52858611256077
 30
-45.14539661710429
 11
252.0398263536713
 21
13.65156636045626
 31
-45.14539661710429
  0
ARC
  5
202
  8
PCB$TRACES
 10
-251.5943086523799
 20
14.54683949075572
 30
45.14539661710429
 40
1.000000000000071
 50
243.5435340988085
 51
191.33576955537
210
0.0
220
0.0
230
-1.0
  0
LINE
  5
203
  8
PCB$TRACES
 10
252.5748007913445
 20
14.35028119042548
 30
-45.14539661710429
 11
254.3854766373695
 21
12.963111663513
 31
-45.14539661710429
  0
LINE
  5
204
  8
PCB$TRACES
 10
254.3854766373695
 20
12.963111663513
 30
-45.14539661710429
 11
254.3866073381909
 21
10.21379939810229
 31
-45.14539661710429
  0
LINE
  5
205
  8
PCB$TRACES
 10
254.3866073381909
 20
10.21379939810229
 30
-45.14539661710429
 11
254.3856093769732
 21
-14.43637396394727
 31
-45.14539661710429
  0
LINE
  5
206
  8
PCB$TRACES
 10
254.3856093769732
 20
-14.43637396394727
 30
-45.14539661710429
 11
243.6285442175819
 21
-25.19453211198763
 31
-45.1453966171043
  0
LINE
  5
207
  8
PCB$TRACES
 10
243.6285442175819
 20
-25.19453211198763
 30
-45.1453966171043
 11
241.2332931249516
 21
-25.19453211198707
 31
-45.1453966171043
  0
ARC
  5
208
  8
PCB$TRACES
 10
-240.3354821347269
 20
-24.75415111122576
 30
45.14539661710435
 40
0.9999999999998261
 50
206.1281930081136
 51
288.8949729036392
210
0.0
220
0.0
230
-1.0
  0
LINE
  5
209
  8
PCB$TRACES
 10
240.0116477267215
 20
-25.70026488672601
 30
-45.14539661710432
 11
234.9867988402966
 21
-30.72511377315093
 31
-45.14539661710435
  0
LINE
  5
20A
  8
PCB$TRACES
 10
234.9867988402966
 20
-30.72511377315093
 30
-45.14539661710435
 11
197.8470315300712
 21
-30.72511377315085
 31
-45.14539661710433
  0
ARC
  5
20B
  8
PCB$TRACES
 10
-196.6174722313692
 20
-30.26246605270722
 30
45.14539661710439
 40
1.313719521913308
 50
200.6198720090341
 51
255.6621277775074
210
0.0
220
0.0
230
-1.0
  0
LINE
  5
20C
  8
PCB$TRACES
 10
196.9428010417728
 20
-31.53526617345577
 30
-45.14539661710433
 11
196.3830042421791
 21
-31.53526617345577
 31
-45.14539661710433
  0
LINE
  5
20D
  8
PCB$TRACES
 10
196.3830042421791
 20
-31.53526617345577
 30
-45.14539661710433
 11
195.5030042421791
 21
-31.53526617345577
 31
-45.14539661710433
  0
LINE
  5
20E
  8
PCB$TRACES
 10
195.5030042421791
 20
-31.53526617345577
 30
-45.14539661710433
 11
194.9428010417728
 21
-31.53526617345577
 31
-45.14539661710435
  0
ARC
  5
20F
  8
PCB$TRACES
 10
-195.247701905109
 20
-30.28526617345572
 30
45.14539661710438
 40
1.286648567582954
 50
283.7079480255587
 51
340.0100521878996
210
0.0
220
0.0
230
-1.0
  0
LINE
  5
210
  8
PCB$TRACES
 10
194.0385705534744
 20
-30.72511377315082
 30
-45.14539661710435
 11
186.5557244173987
 21
-30.72511377315083
 31
-45.14539661710437
  0
LINE
  5
211
  8
PCB$TRACES
 10
186.5557244173987
 20
-30.72511377315083
 30
-45.14539661710437
 11
178.8837760443099
 21
-38.58750606061486
 31
-45.14539661710437
  0
LINE
  5
212
  8
PCB$TRACES
 10
178.8837760443099
 20
-38.58750606061486
 30
-45.14539661710437
 11
164.2004620446398
 21
-38.58750606061486
 31
-45.14539661710438
  0
LINE
  5
213
  8
PCB$TRACES
 10
164.2004620446398
 20
-38.58750606061486
 30
-45.14539661710438
 11
163.0821922993493
 21
-36.22288272272338
 31
-45.14539661710438
  0
ARC
  5
214
  8
PCB$TRACES
 10
-163.6503646267404
 20
-35.3282850241678
 30
45.14539661710439
 40
1.059775842277013
 50
302.4202386037771
 51
346.9568268643852
210
0.0
220
0.0
230
-1.0
  0
LINE
  5
215
  8
PCB$TRACES
 10
162.617930699624
 20
-35.56746073784488
 30
-45.1453966171044
 11
162.617930699624
 21
-33.63705687703717
 31
-45.1453966171044
  0
ARC
  5
216
  8
PCB$TRACES
 10
-163.583132630029
 20
-33.87248959853741
 30
45.14539661710428
 40
0.9935005449472685
 50
13.70794802560716
 51
63.72538617782556
210
0.0
220
0.0
230
-1.0
  0
LINE
  5
217
  8
PCB$TRACES
 10
163.1433358304346
 20
-32.98163489215872
 30
-45.14539661710437
 11
163.1433358304342
 21
-28.43437307460588
 31
-45.14539661710438
  0
LINE
  5
218
  8
PCB$TRACES
 10
163.1433358304342
 20
-28.43437307460588
 30
-45.14539661710438
 11
145.9983015403655
 21
-11.2893387845372
 31
-45.14539661710437
  0
LINE
  5
219
  8
PCB$TRACES
 10
145.9983015403655
 20
-11.2893387845372
 30
-45.14539661710437
 11
145.9983015403655
 21
4.236595138611712
 31
-45.14539661710437
  0
ARC
  5
21A
  8
PCB$TRACES
 10
-146.4380983399593
 20
5.021820440717534
 30
45.14539661710437
 40
0.9000000000000886
 50
299.2527495352853
 51
52.05822927666803
210
0.0
220
0.0
230
-1.0
  0
LINE
  5
21B
  8
PCB$TRACES
 10
145.884724062738
 20
5.731592875593641
 30
-45.14539661710437
 11
145.5323916823099
 21
8.036718393813125
 31
-45.14539661710437
  0
LINE
  5
21C
  8
PCB$TRACES
 10
145.5323916823099
 20
8.036718393813125
 30
-45.14539661710437
 11
139.5055048680086
 21
14.06360520811436
 31
-45.1453966171044
  0
LINE
  5
21D
  8
PCB$TRACES
 10
139.5055048680086
 20
14.06360520811436
 30
-45.1453966171044
 11
139.506033442291
 21
23.4286200526361
 31
-45.1453966171044
  0
LINE
  5
21E
  8
PCB$TRACES
 10
139.506033442291
 20
23.4286200526361
 30
-45.1453966171044
 11
142.7636410969411
 21
26.6862552895872
 31
-45.14539661710437
  0
LINE
  5
21F
  8
PCB$TRACES
 10
142.7636410969411
 20
26.6862552895872
 30
-45.14539661710437
 11
183.1813632294257
 21
26.6862552895872
 31
-45.14539661710437
  0
LINE
  5
220
  8
PCB$TRACES
 10
183.1813632294257
 20
26.6862552895872
 30
-45.14539661710437
 11
185.7979005056778
 21
24.06971801333496
 31
-45.14539661710437
  0
ARC
  5
221
  8
PCB$TRACES
 10
-186.0621775881181
 20
23.18285676279029
 30
45.14539661710437
 40
0.9254000508000727
 50
73.40639260671173
 51
16.62647255038832
210
0.0
220
0.0
230
-1.0
  0
LINE
  5
222
  8
PCB$TRACES
 10
185.1754680741728
 20
23.44764250995154
 30
-45.14539661710437
 11
182.8168552945374
 21
25.80625528958721
 31
-45.14539661710437
  0
LINE
  5
223
  8
PCB$TRACES
 10
182.8168552945374
 20
25.80625528958721
 30
-45.14539661710437
 11
143.1281512141686
 21
25.80625528958721
 31
-45.14539661710437
  0
LINE
  5
224
  8
PCB$TRACES
 10
143.1281512141686
 20
25.80625528958721
 30
-45.14539661710437
 11
140.3860128693269
 21
23.06409372694484
 31
-45.1453966171044
  0
LINE
  5
225
  8
PCB$TRACES
 10
140.3860128693269
 20
23.06409372694484
 30
-45.1453966171044
 11
140.3855254415769
 21
14.42809256943438
 31
-45.1453966171044
  0
LINE
  5
226
  8
PCB$TRACES
 10
140.3855254415769
 20
14.42809256943438
 30
-45.1453966171044
 11
146.3621220535817
 21
8.452641349008083
 31
-45.14539661710437
  0
LINE
  5
227
  8
PCB$TRACES
 10
146.3621220535817
 20
8.452641349008083
 30
-45.14539661710437
 11
146.7546585864986
 21
5.864310565473239
 31
-45.14539661710437
  0
ARC
  5
228
  8
PCB$TRACES
 10
-146.4380983399591
 20
5.021820440717505
 30
45.14539661710437
 40
0.9000000000000339
 50
110.5933869943512
 51
240.7175921892596
210
0.0
220
0.0
230
-1.0
  0
LINE
  5
229
  8
PCB$TRACES
 10
146.8783015403655
 20
4.236822897821959
 30
-45.14539661710437
 11
146.8783015403655
 21
-10.92483084964889
 31
-45.14539661710437
  0
LINE
  5
22A
  8
PCB$TRACES
 10
146.8783015403655
 20
-10.92483084964889
 30
-45.14539661710437
 11
164.0233358304342
 21
-28.06986513971751
 31
-45.14539661710437
  0
LINE
  5
22B
  8
PCB$TRACES
 10
164.0233358304342
 20
-28.06986513971751
 30
-45.14539661710437
 11
164.0233358304342
 21
-32.98183563926811
 31
-45.14539661710437
  0
ARC
  5
22C
  8
PCB$TRACES
 10
-163.5618325872546
 20
-33.88955634601047
 30
45.14539661710429
 40
1.018303552441116
 50
116.9496883264004
 51
165.6431182927751
210
0.0
220
0.0
230
-1.0
  0
LINE
  5
22D
  8
PCB$TRACES
 10
164.5483345604317
 20
-33.63705687703717
 30
-45.14539661710437
 11
164.5483345604318
 21
-35.56746073784488
 31
-45.14539661710437
  0
ARC
  5
22E
  8
PCB$TRACES
 10
-163.3894865563599
 20
-35.33343955210688
 30
45.14539661710545
 40
1.1822413509583
 50
191.4169336132805
 51
228.7784031329776
210
0.0
220
0.0
230
-1.0
  0
LINE
  5
22F
  8
PCB$TRACES
 10
164.1685517167612
 20
-36.22268197561388
 30
-45.14539661710442
 11
164.8400654106922
 21
-37.60313992930171
 31
-45.14539661710437
  0
LINE
  5
230
  8
PCB$TRACES
 10
164.8400654106922
 20
-37.60313992930171
 30
-45.14539661710437
 11
178.318670278327
 21
-37.57542553602001
 31
-45.14539661710437
  0
LINE
  5
231
  8
PCB$TRACES
 10
178.318670278327
 20
-37.57542553602001
 30
-45.14539661710437
 11
185.9425255375722
 21
-29.84511377315076
 31
-45.14539661710437
  0
LINE
  5
232
  8
PCB$TRACES
 10
185.9425255375722
 20
-29.84511377315076
 30
-45.14539661710437
 11
194.0386814747733
 21
-29.84511377315079
 31
-45.14539661710435
  0
ARC
  5
233
  8
PCB$TRACES
 10
-195.2681359175624
 20
-30.30807884894992
 30
45.14539661710435
 40
1.31373318763877
 50
20.63443661827015
 51
75.66200708249269
210
0.0
220
0.0
230
-1.0
  0
LINE
  5
234
  8
PCB$TRACES
 10
194.9428010417728
 20
-29.03526617345577
 30
-45.14539661710435
 11
196.9428010417728
 21
-29.03526617345577
 31
-45.14539661710433
  0
ARC
  5
235
  8
PCB$TRACES
 10
-196.6379001784371
 20
-30.28526617345559
 30
45.14539661710451
 40
1.286648567582615
 50
103.7079480255416
 51
159.9956082736873
210
0.0
220
0.0
230
-1.0
  0
LINE
  5
236
  8
PCB$TRACES
 10
197.8469206087724
 20
-29.84511377315076
 30
-45.14539661710437
 11
234.6222909054084
 21
-29.84511377315093
 31
-45.14539661710435
  0
LINE
  5
237
  8
PCB$TRACES
 10
234.6222909054084
 20
-29.84511377315093
 30
-45.14539661710435
 11
239.3893813137872
 21
-25.07802336477202
 31
-45.14539661710432
  0
ARC
  5
238
  8
PCB$TRACES
 10
-240.3354821347269
 20
-24.75415111122556
 30
45.14539661710431
 40
1.00000000000002
 50
341.1027351895422
 51
153.9204256798799
210
0.0
220
0.0
230
-1.0
  0
ARC
  5
239
  8
PCB$TRACES
 10
-195.3430550422807
 20
-20.88511377315095
 30
45.14539661710433
 40
0.6000000000000014
 50
270.0000000000027
 51
89.99999999999729
210
0.0
220
0.0
230
-1.0
  0
LINE
  5
23A
  8
PCB$TRACES
 10
195.3430550422806
 20
-20.28511377315095
 30
-45.14539661710433
 11
196.5430550422807
 21
-20.28511377315095
 31
-45.14539661710433
  0
ARC
  5
23B
  8
PCB$TRACES
 10
-196.5430550422807
 20
-20.88511377315095
 30
45.14539661710433
 40
0.6000000000000014
 50
90.00000000000271
 51
269.9999999999972
210
0.0
220
0.0
230
-1.0
  0
LINE
  5
23C
  8
PCB$TRACES
 10
196.5430550422807
 20
-21.48511377315096
 30
-45.14539661710433
 11
195.3430550422806
 21
-21.48511377315095
 31
-45.14539661710433
  0
ARC
  5
23D
  8
PCB$TRACES
 10
-195.3430550422807
 20
-25.58511377315099
 30
45.14539661710433
 40
0.6000000000000014
 50
270.0000000000027
 51
89.99999999999729
210
0.0
220
0.0
230
-1.0
  0
LINE
  5
23E
  8
PCB$TRACES
 10
195.3430550422806
 20
-24.98511377315099
 30
-45.14539661710433
 11
196.5430550422807
 21
-24.98511377315099
 31
-45.14539661710433
  0
ARC
  5
23F
  8
PCB$TRACES
 10
-196.5430550422807
 20
-25.58511377315099
 30
45.14539661710433
 40
0.6000000000000014
 50
90.00000000000271
 51
269.9999999999972
210
0.0
220
0.0
230
-1.0
  0
LINE
  5
240
  8
PCB$TRACES
 10
196.5430550422807
 20
-26.18511377315101
 30
-45.14539661710433
 11
195.3430550422806
 21
-26.185113773151
 31
-45.14539661710433
  0
ARC
  5
241
  8
PCB$TRACES
 10
-195.3430550422806
 20
-30.28511377315087
 30
45.14539661710433
 40
0.6000000000000583
 50
269.9999999999972
 51
90.00000000000271
210
0.0
220
0.0
230
-1.0
  0
LINE
  5
242
  8
PCB$TRACES
 10
195.3430550422806
 20
-29.68511377315092
 30
-45.14539661710433
 11
196.5430550422807
 21
-29.68511377315092
 31
-45.14539661710433
  0
ARC
  5
243
  8
PCB$TRACES
 10
-196.5430550422807
 20
-30.28511377315093
 30
45.14539661710433
 40
0.6000000000000014
 50
90.00000000000271
 51
269.9999999999972
210
0.0
220
0.0
230
-1.0
  0
LINE
  5
244
  8
PCB$TRACES
 10
196.5430550422807
 20
-30.88511377315094
 30
-45.14539661710433
 11
195.3430550422806
 21
-30.88511377315093
 31
-45.14539661710433
  0
ARC
  5
245
  8
PCB$TRACES
 10
-186.0621775881181
 20
18.10284660276987
 30
45.14539661710436
 40
0.9000000000000001
 50
11.13647583855392
 51
312.6013204716054
210
0.0
220
0.0
230
-1.0
  0
LINE
  5
246
  8
PCB$TRACES
 10
185.452973947499
 20
17.44037326424488
 30
-45.14539661710436
 11
183.515678339431
 21
16.80584633666943
 31
-45.14539661710439
  0
LINE
  5
247
  8
PCB$TRACES
 10
183.515678339431
 20
16.80584633666943
 30
-45.14539661710439
 11
152.6946036480441
 21
16.80696673624792
 31
-45.1453966171044
  0
LINE
  5
248
  8
PCB$TRACES
 10
152.6946036480441
 20
16.80696673624792
 30
-45.1453966171044
 11
151.7654238643821
 21
16.80557946687995
 31
-45.14539661710442
  0
LINE
  5
249
  8
PCB$TRACES
 10
151.7654238643821
 20
16.80557946687995
 30
-45.14539661710442
 11
146.7092114688662
 21
21.79006033238162
 31
-45.14539661710437
  0
ARC
  5
24A
  8
PCB$TRACES
 10
-146.4380983399597
 20
22.67485574678837
 30
45.14539661710437
 40
0.9254000508004071
 50
252.9642362058148
 51
196.1843159656352
210
0.0
220
0.0
230
-1.0
  0
LINE
  5
24B
  8
PCB$TRACES
 10
147.3268248054168
 20
22.41692063166042
 30
-45.14539661710437
 11
152.1257081064877
 21
17.68611821313383
 31
-45.14539661710441
  0
LINE
  5
24C
  8
PCB$TRACES
 10
152.1257081064877
 20
17.68611821313383
 30
-45.14539661710441
 11
152.6939628566136
 21
17.68696624577152
 31
-45.1453966171044
  0
LINE
  5
24D
  8
PCB$TRACES
 10
152.6939628566136
 20
17.68696624577152
 30
-45.1453966171044
 11
183.3752503681593
 21
17.68585144029206
 31
-45.14539661710439
  0
LINE
  5
24E
  8
PCB$TRACES
 10
183.3752503681593
 20
17.68585144029206
 30
-45.14539661710439
 11
185.17912467709
 21
18.27667858004876
 31
-45.14539661710436
  0
ARC
  5
24F
  8
PCB$TRACES
 10
-240.335482134727
 20
-27.29415619123565
 30
45.1453966171043
 40
1.000000000000171
 50
206.0714731694441
 51
153.8637019106025
210
0.0
220
0.0
230
-1.0
  0
LINE
  5
250
  8
PCB$TRACES
 10
241.2332308195161
 20
-26.85364819021985
 30
-45.1453966171043
 11
245.2232590709637
 21
-26.85364819021979
 31
-45.1453966171043
  0
LINE
  5
251
  8
PCB$TRACES
 10
245.2232590709637
 20
-26.85364819021979
 30
-45.1453966171043
 11
256.5072283276933
 21
-15.57216220683748
 31
-45.14539661710429
  0
LINE
  5
252
  8
PCB$TRACES
 10
256.5072283276933
 20
-15.57216220683748
 30
-45.14539661710429
 11
256.5047163810488
 21
17.06309883791941
 31
-45.14539661710429
  0
LINE
  5
253
  8
PCB$TRACES
 10
256.5047163810488
 20
17.06309883791941
 30
-45.14539661710429
 11
244.7609782379827
 21
28.80688669014038
 31
-45.1453966171043
  0
LINE
  5
254
  8
PCB$TRACES
 10
244.7609782379827
 20
28.80688669014038
 30
-45.1453966171043
 11
190.9893806317457
 21
28.80582435426025
 31
-45.14539661710436
  0
LINE
  5
255
  8
PCB$TRACES
 10
190.9893806317457
 20
28.80582435426025
 30
-45.14539661710436
 11
186.9473029180118
 21
27.99283284273677
 31
-45.14539661710436
  0
ARC
  5
256
  8
PCB$TRACES
 10
-186.062177588118
 20
28.26286692281042
 30
45.14539661710433
 40
0.925400050800072
 50
196.9659019807794
 51
341.55576449778
210
0.0
220
0.0
230
-1.0
  0
LINE
  5
257
  8
PCB$TRACES
 10
185.1843134589924
 20
27.97008744126286
 30
-45.14539661710436
 11
180.4066133396725
 21
28.8068902908573
 31
-45.14539661710437
  0
LINE
  5
258
  8
PCB$TRACES
 10
180.4066133396725
 20
28.8068902908573
 30
-45.14539661710437
 11
141.762418496579
 21
28.8068902908573
 31
-45.1453966171044
  0
LINE
  5
259
  8
PCB$TRACES
 10
141.762418496579
 20
28.8068902908573
 30
-45.1453966171044
 11
136.7192718223062
 21
23.76359862635898
 31
-45.14539661710442
  0
LINE
  5
25A
  8
PCB$TRACES
 10
136.7192718223062
 20
23.76359862635898
 30
-45.14539661710442
 11
136.7192718223062
 21
12.94495827953646
 31
-45.14539661710442
  0
LINE
  5
25B
  8
PCB$TRACES
 10
136.7192718223062
 20
12.94495827953646
 30
-45.14539661710442
 11
143.6318090652381
 21
5.921820440717489
 31
-45.14539661710437
  0
LINE
  5
25C
  8
PCB$TRACES
 10
143.6318090652381
 20
5.921820440717489
 30
-45.14539661710437
 11
144.7483345604316
 21
5.921820440717489
 31
-45.14539661710437
  0
LINE
  5
25D
  8
PCB$TRACES
 10
144.7483345604316
 20
5.921820440717489
 30
-45.14539661710437
 11
144.7483345604316
 21
4.121820440717535
 31
-45.14539661710437
  0
LINE
  5
25E
  8
PCB$TRACES
 10
144.7483345604316
 20
4.121820440717535
 30
-45.14539661710437
 11
144.3382964603553
 21
4.121820440717535
 31
-45.14539661710437
  0
LINE
  5
25F
  8
PCB$TRACES
 10
144.3382964603553
 20
4.121820440717535
 30
-45.14539661710437
 11
144.3382964603553
 21
-12.69381579670446
 31
-45.14539661710437
  0
LINE
  5
260
  8
PCB$TRACES
 10
144.3382964603553
 20
-12.69381579670446
 30
-45.14539661710437
 11
161.3521924385711
 21
-28.56498741817425
 31
-45.1453966171044
  0
LINE
  5
261
  8
PCB$TRACES
 10
161.3521924385711
 20
-28.56498741817425
 30
-45.1453966171044
 11
161.4478483957765
 21
-32.96516144961974
 31
-45.1453966171044
  0
LINE
  5
262
  8
PCB$TRACES
 10
161.4478483957768
 20
-32.96516144961973
 30
-45.14539661710439
 11
161.4782584672737
 21
-32.97934659898004
 31
-45.1453966171044
  0
LINE
  5
263
  8
PCB$TRACES
 10
161.4782584672737
 20
-32.97934659898004
 30
-45.1453966171044
 11
161.5081721538181
 21
-32.99455062042645
 31
-45.1453966171044
  0
LINE
  5
264
  8
PCB$TRACES
 10
161.5081721538181
 20
-32.99455062042645
 30
-45.1453966171044
 11
161.5375553307287
 21
-33.01075616964448
 31
-45.1453966171044
  0
LINE
  5
265
  8
PCB$TRACES
 10
161.5375553307287
 20
-33.01075616964448
 30
-45.1453966171044
 11
161.5663744785145
 21
-33.02794475980532
 31
-45.1453966171044
  0
LINE
  5
266
  8
PCB$TRACES
 10
161.5663744785145
 20
-33.02794475980532
 30
-45.1453966171044
 11
161.5945967211128
 21
-33.04609678265507
 31
-45.1453966171044
  0
LINE
  5
267
  8
PCB$TRACES
 10
161.5945967211128
 20
-33.04609678265507
 30
-45.1453966171044
 11
161.6221898633935
 21
-33.06519153088325
 31
-45.14539661710441
  0
LINE
  5
268
  8
PCB$TRACES
 10
161.6221898633935
 20
-33.06519153088325
 30
-45.14539661710441
 11
161.6491224278859
 21
-33.08520722174514
 31
-45.14539661710441
  0
LINE
  5
269
  8
PCB$TRACES
 10
161.6491224278859
 20
-33.08520722174514
 30
-45.14539661710441
 11
161.675363690688
 21
-33.10612102191089
 31
-45.14539661710442
  0
LINE
  5
26A
  8
PCB$TRACES
 10
161.675363690688
 20
-33.10612102191089
 30
-45.14539661710442
 11
161.7008837165146
 21
-33.12790907351316
 31
-45.14539661710442
  0
LINE
  5
26B
  8
PCB$TRACES
 10
161.7008837165146
 20
-33.12790907351316
 30
-45.14539661710442
 11
161.7256533928476
 21
-33.15054652136349
 31
-45.14539661710442
  0
LINE
  5
26C
  8
PCB$TRACES
 10
161.7256533928476
 20
-33.15054652136349
 30
-45.14539661710442
 11
161.749644463146
 21
-33.17400754130635
 31
-45.14539661710442
  0
LINE
  5
26D
  8
PCB$TRACES
 10
161.749644463146
 20
-33.17400754130635
 30
-45.14539661710442
 11
161.7728295590801
 21
-33.19826536967865
 31
-45.14539661710442
  0
LINE
  5
26E
  8
PCB$TRACES
 10
161.7728295590801
 20
-33.19826536967865
 30
-45.14539661710442
 11
161.7951822317534
 21
-33.22329233384097
 31
-45.14539661710442
  0
LINE
  5
26F
  8
PCB$TRACES
 10
161.7951822317534
 20
-33.22329233384097
 30
-45.14539661710442
 11
161.8166769818735
 21
-33.24905988374564
 31
-45.14539661710442
  0
LINE
  5
270
  8
PCB$TRACES
 10
161.8166769818735
 20
-33.24905988374564
 30
-45.14539661710442
 11
161.8372892888421
 21
-33.27553862450593
 31
-45.14539661710442
  0
LINE
  5
271
  8
PCB$TRACES
 10
161.8372892888421
 20
-33.27553862450593
 30
-45.14539661710442
 11
161.8569956387266
 21
-33.30269834992882
 31
-45.14539661710441
  0
LINE
  5
272
  8
PCB$TRACES
 10
161.8569956387266
 20
-33.30269834992882
 30
-45.14539661710441
 11
161.8757735510846
 21
-33.33050807697339
 31
-45.14539661710441
  0
LINE
  5
273
  8
PCB$TRACES
 10
161.8757735510846
 20
-33.33050807697339
 30
-45.14539661710441
 11
161.8936016046087
 21
-33.35893608109541
 31
-45.14539661710442
  0
LINE
  5
274
  8
PCB$TRACES
 10
161.8936016046087
 20
-33.35893608109541
 30
-45.14539661710442
 11
161.9104594615633
 21
-33.38794993243773
 31
-45.14539661710441
  0
LINE
  5
275
  8
PCB$TRACES
 10
161.9104594615633
 20
-33.38794993243773
 30
-45.14539661710441
 11
161.9263278909856
 21
-33.41751653282544
 31
-45.14539661710441
  0
LINE
  5
276
  8
PCB$TRACES
 10
161.9263278909856
 20
-33.41751653282544
 30
-45.14539661710441
 11
161.9411887906235
 21
-33.44760215352323
 31
-45.1453966171044
  0
LINE
  5
277
  8
PCB$TRACES
 10
161.9411887906235
 20
-33.44760215352323
 30
-45.1453966171044
 11
161.955025207586
 21
-33.47817247371221
 31
-45.1453966171044
  0
LINE
  5
278
  8
PCB$TRACES
 10
161.955025207586
 20
-33.47817247371221
 30
-45.1453966171044
 11
161.967821357683
 21
-33.50919261964215
 31
-45.1453966171044
  0
LINE
  5
279
  8
PCB$TRACES
 10
161.967821357683
 20
-33.50919261964215
 30
-45.1453966171044
 11
161.9795626434309
 21
-33.54062720441441
 31
-45.14539661710439
  0
LINE
  5
27A
  8
PCB$TRACES
 10
161.9795626434309
 20
-33.54062720441441
 30
-45.14539661710439
 11
161.9902356707055
 21
-33.57244036835031
 31
-45.14539661710439
  0
LINE
  5
27B
  8
PCB$TRACES
 10
161.9902356707055
 20
-33.57244036835031
 30
-45.14539661710439
 11
161.9998282640215
 21
-33.60459581989888
 31
-45.14539661710438
  0
LINE
  5
27C
  8
PCB$TRACES
 10
161.9998282640215
 20
-33.60459581989888
 30
-45.14539661710438
 11
162.0083294804216
 21
-33.63705687703717
 31
-45.14539661710438
  0
LINE
  5
27D
  8
PCB$TRACES
 10
162.0083294804216
 20
-33.63705687703717
 30
-45.14539661710438
 11
162.0083294804216
 21
-35.56746073784488
 31
-45.14539661710438
  0
LINE
  5
27E
  8
PCB$TRACES
 10
162.0083294804216
 20
-35.56746073784488
 30
-45.14539661710438
 11
161.9996112962135
 21
-35.60069542425218
 31
-45.14539661710438
  0
LINE
  5
27F
  8
PCB$TRACES
 10
161.9996112962135
 20
-35.60069542425218
 30
-45.14539661710438
 11
161.9897491116187
 21
-35.63360877156745
 31
-45.14539661710438
  0
LINE
  5
280
  8
PCB$TRACES
 10
161.9897491116187
 20
-35.63360877156745
 30
-45.14539661710438
 11
161.9787547222823
 21
-35.66616141385036
 31
-45.14539661710438
  0
LINE
  5
281
  8
PCB$TRACES
 10
161.9787547222823
 20
-35.66616141385036
 30
-45.14539661710438
 11
161.966641278021
 21
-35.69831441658113
 31
-45.14539661710438
  0
LINE
  5
282
  8
PCB$TRACES
 10
161.966641278021
 20
-35.69831441658113
 30
-45.14539661710438
 11
161.9534232670943
 21
-35.73002932322799
 31
-45.14539661710438
  0
LINE
  5
283
  8
PCB$TRACES
 10
161.9534232670943
 20
-35.73002932322799
 30
-45.14539661710438
 11
161.9391164988766
 21
-35.76126820124311
 31
-45.14539661710438
  0
LINE
  5
284
  8
PCB$TRACES
 10
161.9391164988766
 20
-35.76126820124311
 30
-45.14539661710438
 11
161.9237380849481
 21
-35.79199368743166
 31
-45.14539661710438
  0
LINE
  5
285
  8
PCB$TRACES
 10
161.9237380849481
 20
-35.79199368743166
 30
-45.14539661710438
 11
161.9073064186288
 21
-35.82216903264009
 31
-45.14539661710438
  0
LINE
  5
286
  8
PCB$TRACES
 10
161.9073064186288
 20
-35.82216903264009
 30
-45.14539661710438
 11
161.8898411529787
 21
-35.85175814570977
 31
-45.14539661710438
  0
LINE
  5
287
  8
PCB$TRACES
 10
161.8898411529787
 20
-35.85175814570977
 30
-45.14539661710438
 11
161.8713631772924
 21
-35.88072563664385
 31
-45.14539661710438
  0
LINE
  5
288
  8
PCB$TRACES
 10
161.8713631772924
 20
-35.88072563664385
 30
-45.14539661710438
 11
161.8518945921141
 21
-35.90903685893527
 31
-45.14539661710438
  0
LINE
  5
289
  8
PCB$TRACES
 10
161.8518945921141
 20
-35.90903685893527
 30
-45.14539661710438
 11
161.8314586828045
 21
-35.93665795100577
 31
-45.14539661710438
  0
LINE
  5
28A
  8
PCB$TRACES
 10
161.8314586828045
 20
-35.93665795100577
 30
-45.14539661710438
 11
161.8100798916902
 21
-35.96355587670586
 31
-45.14539661710438
  0
LINE
  5
28B
  8
PCB$TRACES
 10
161.8100798916902
 20
-35.96355587670586
 30
-45.14539661710438
 11
161.7877837888296
 21
-35.9896984648277
 31
-45.14539661710438
  0
LINE
  5
28C
  8
PCB$TRACES
 10
161.7877837888296
 20
-35.9896984648277
 30
-45.14539661710438
 11
161.7645970414301
 21
-36.01505444758337
 31
-45.14539661710438
  0
LINE
  5
28D
  8
PCB$TRACES
 10
161.7645970414301
 20
-36.01505444758337
 30
-45.14539661710438
 11
161.7405473819522
 21
-36.03959349800266
 31
-45.14539661710438
  0
LINE
  5
28E
  8
PCB$TRACES
 10
161.7405473819522
 20
-36.03959349800266
 30
-45.14539661710438
 11
161.7156635749412
 21
-36.06328626620557
 31
-45.14539661710438
  0
LINE
  5
28F
  8
PCB$TRACES
 10
161.7156635749412
 20
-36.06328626620557
 30
-45.14539661710438
 11
161.6899753826224
 21
-36.08610441450617
 31
-45.14539661710438
  0
LINE
  5
290
  8
PCB$TRACES
 10
161.6899753826224
 20
-36.08610441450617
 30
-45.14539661710438
 11
161.6635135293045
 21
-36.10802065130586
 31
-45.14539661710438
  0
LINE
  5
291
  8
PCB$TRACES
 10
161.6635135293045
 20
-36.10802065130586
 30
-45.14539661710438
 11
161.6363096646319
 21
-36.12900876373541
 31
-45.14539661710438
  0
LINE
  5
292
  8
PCB$TRACES
 10
161.6363096646319
 20
-36.12900876373541
 30
-45.14539661710438
 11
161.6083963257302
 21
-36.14904364900675
 31
-45.14539661710438
  0
LINE
  5
293
  8
PCB$TRACES
 10
161.6083963257302
 20
-36.14904364900675
 30
-45.14539661710438
 11
161.57980689829
 21
-36.16810134443723
 31
-45.14539661710438
  0
LINE
  5
294
  8
PCB$TRACES
 10
161.57980689829
 20
-36.16810134443723
 30
-45.14539661710438
 11
161.5505755766364
 21
-36.18615905611003
 31
-45.14539661710438
  0
LINE
  5
295
  8
PCB$TRACES
 10
161.5505755766364
 20
-36.18615905611003
 30
-45.14539661710438
 11
161.5207373228304
 21
-36.20319518613682
 31
-45.14539661710438
  0
LINE
  5
296
  8
PCB$TRACES
 10
161.5207373228304
 20
-36.20319518613682
 30
-45.14539661710438
 11
161.4903278248533
 21
-36.21918935848986
 31
-45.14539661710438
  0
LINE
  5
297
  8
PCB$TRACES
 10
161.4903278248533
 20
-36.21918935848986
 30
-45.14539661710438
 11
161.4593834539216
 21
-36.23412244337273
 31
-45.14539661710438
  0
LINE
  5
298
  8
PCB$TRACES
 10
161.4593834539216
 20
-36.23412244337273
 30
-45.14539661710438
 11
161.4279412209855
 21
-36.24797658010043
 31
-45.14539661710438
  0
LINE
  5
299
  8
PCB$TRACES
 10
161.4279412209855
 20
-36.24797658010043
 30
-45.14539661710438
 11
161.396038732462
 21
-36.26073519846169
 31
-45.14539661710438
  0
LINE
  5
29A
  8
PCB$TRACES
 10
161.396038732462
 20
-36.26073519846169
 30
-45.14539661710438
 11
161.363714145256
 21
-36.27238303853765
 31
-45.14539661710438
  0
LINE
  5
29B
  8
PCB$TRACES
 10
161.363714145256
 20
-36.27238303853765
 30
-45.14539661710438
 11
161.3310061211223
 21
-36.28290616895352
 31
-45.14539661710438
  0
LINE
  5
29C
  8
PCB$TRACES
 10
161.3310061211223
 20
-36.28290616895352
 30
-45.14539661710438
 11
161.297953780425
 21
-36.29229200354114
 31
-45.14539661710439
  0
LINE
  5
29D
  8
PCB$TRACES
 10
161.297953780425
 20
-36.29229200354114
 30
-45.14539661710439
 11
161.2645966553471
 21
-36.30052931639268
 31
-45.14539661710439
  0
LINE
  5
29E
  8
PCB$TRACES
 10
161.2645966553471
 20
-36.30052931639268
 30
-45.14539661710439
 11
161.2309746426083
 21
-36.30760825528729
 31
-45.14539661710439
  0
LINE
  5
29F
  8
PCB$TRACES
 10
161.2309746426083
 20
-36.30760825528729
 30
-45.14539661710439
 11
161.1971279557469
 21
-36.3135203534749
 31
-45.14539661710439
  0
LINE
  5
2A0
  8
PCB$TRACES
 10
161.1971279557469
 20
-36.3135203534749
 30
-45.14539661710439
 11
161.1630970770218
 21
-36.31825853980281
 31
-45.14539661710439
  0
LINE
  5
2A1
  8
PCB$TRACES
 10
161.1630970770218
 20
-36.31825853980281
 30
-45.14539661710439
 11
161.1289227089946
 21
-36.32181714717318
 31
-45.14539661710439
  0
LINE
  5
2A2
  8
PCB$TRACES
 10
161.1289227089946
 20
-36.32181714717318
 30
-45.14539661710439
 11
161.0946457258466
 21
-36.32419191932108
 31
-45.14539661710439
  0
LINE
  5
2A3
  8
PCB$TRACES
 10
161.0946457258466
 20
-36.32419191932108
 30
-45.14539661710439
 11
161.0603071244921
 21
-36.32538001590525
 31
-45.14539661710439
  0
LINE
  5
2A4
  8
PCB$TRACES
 10
161.0603071244921
 20
-36.32538001590525
 30
-45.14539661710439
 11
161.0259479755434
 21
-36.32538001590525
 31
-45.14539661710439
  0
LINE
  5
2A5
  8
PCB$TRACES
 10
161.0259479755434
 20
-36.32538001590525
 30
-45.14539661710439
 11
160.9916093741889
 21
-36.32419191932108
 31
-45.14539661710439
  0
LINE
  5
2A6
  8
PCB$TRACES
 10
160.9916093741889
 20
-36.32419191932108
 30
-45.14539661710439
 11
160.9573323910409
 21
-36.32181714717318
 31
-45.14539661710439
  0
LINE
  5
2A7
  8
PCB$TRACES
 10
160.9573323910409
 20
-36.32181714717318
 30
-45.14539661710439
 11
160.9231580230137
 21
-36.31825853980281
 31
-45.14539661710439
  0
LINE
  5
2A8
  8
PCB$TRACES
 10
160.9231580230137
 20
-36.31825853980281
 30
-45.14539661710439
 11
160.8891271442887
 21
-36.3135203534749
 31
-45.14539661710439
  0
LINE
  5
2A9
  8
PCB$TRACES
 10
160.8891271442887
 20
-36.3135203534749
 30
-45.14539661710439
 11
160.8552804574272
 21
-36.30760825528729
 31
-45.14539661710439
  0
LINE
  5
2AA
  8
PCB$TRACES
 10
160.8552804574272
 20
-36.30760825528729
 30
-45.14539661710439
 11
160.8216584446885
 21
-36.30052931639268
 31
-45.14539661710439
  0
LINE
  5
2AB
  8
PCB$TRACES
 10
160.8216584446885
 20
-36.30052931639268
 30
-45.14539661710439
 11
160.7883013196105
 21
-36.29229200354114
 31
-45.14539661710439
  0
LINE
  5
2AC
  8
PCB$TRACES
 10
160.7883013196105
 20
-36.29229200354114
 30
-45.14539661710439
 11
160.7552489789132
 21
-36.28290616895352
 31
-45.14539661710439
  0
LINE
  5
2AD
  8
PCB$TRACES
 10
160.7552489789132
 20
-36.28290616895352
 30
-45.14539661710439
 11
160.7225409547796
 21
-36.27238303853764
 31
-45.14539661710439
  0
LINE
  5
2AE
  8
PCB$TRACES
 10
160.7225409547796
 20
-36.27238303853764
 30
-45.14539661710439
 11
160.6902163675735
 21
-36.26073519846169
 31
-45.14539661710439
  0
LINE
  5
2AF
  8
PCB$TRACES
 10
160.6902163675735
 20
-36.26073519846169
 30
-45.14539661710439
 11
160.65831387905
 21
-36.24797658010043
 31
-45.14539661710439
  0
LINE
  5
2B0
  8
PCB$TRACES
 10
160.65831387905
 20
-36.24797658010043
 30
-45.14539661710439
 11
160.6268716461139
 21
-36.23412244337272
 31
-45.14539661710439
  0
LINE
  5
2B1
  8
PCB$TRACES
 10
160.6268716461139
 20
-36.23412244337272
 30
-45.14539661710439
 11
160.5959272751822
 21
-36.21918935848985
 31
-45.14539661710439
  0
LINE
  5
2B2
  8
PCB$TRACES
 10
160.5959272751822
 20
-36.21918935848985
 30
-45.14539661710439
 11
160.5655177772051
 21
-36.20319518613681
 31
-45.14539661710439
  0
LINE
  5
2B3
  8
PCB$TRACES
 10
160.5655177772051
 20
-36.20319518613681
 30
-45.14539661710439
 11
160.5356795233992
 21
-36.18615905611002
 31
-45.14539661710439
  0
LINE
  5
2B4
  8
PCB$TRACES
 10
160.5356795233992
 20
-36.18615905611002
 30
-45.14539661710439
 11
160.5064482017455
 21
-36.16810134443723
 31
-45.14539661710439
  0
LINE
  5
2B5
  8
PCB$TRACES
 10
160.5064482017455
 20
-36.16810134443723
 30
-45.14539661710439
 11
160.4778587743053
 21
-36.14904364900675
 31
-45.14539661710439
  0
LINE
  5
2B6
  8
PCB$TRACES
 10
160.4778587743053
 20
-36.14904364900675
 30
-45.14539661710439
 11
160.4499454354036
 21
-36.12900876373539
 31
-45.14539661710439
  0
LINE
  5
2B7
  8
PCB$TRACES
 10
160.4499454354036
 20
-36.12900876373539
 30
-45.14539661710439
 11
160.422741570731
 21
-36.10802065130586
 31
-45.14539661710439
  0
LINE
  5
2B8
  8
PCB$TRACES
 10
160.422741570731
 20
-36.10802065130586
 30
-45.14539661710439
 11
160.3962797174131
 21
-36.08610441450617
 31
-45.14539661710439
  0
LINE
  5
2B9
  8
PCB$TRACES
 10
160.3962797174131
 20
-36.08610441450617
 30
-45.14539661710439
 11
160.3705915250943
 21
-36.06328626620555
 31
-45.14539661710439
  0
LINE
  5
2BA
  8
PCB$TRACES
 10
160.3705915250943
 20
-36.06328626620555
 30
-45.14539661710439
 11
160.3457077180833
 21
-36.03959349800265
 31
-45.1453966171044
  0
LINE
  5
2BB
  8
PCB$TRACES
 10
160.3457077180833
 20
-36.03959349800265
 30
-45.1453966171044
 11
160.3216580586055
 21
-36.01505444758337
 31
-45.1453966171044
  0
LINE
  5
2BC
  8
PCB$TRACES
 10
160.3216580586055
 20
-36.01505444758337
 30
-45.1453966171044
 11
160.2984713112059
 21
-35.9896984648277
 31
-45.1453966171044
  0
LINE
  5
2BD
  8
PCB$TRACES
 10
160.2984713112059
 20
-35.9896984648277
 30
-45.1453966171044
 11
160.2761752083453
 21
-35.96355587670585
 31
-45.1453966171044
  0
LINE
  5
2BE
  8
PCB$TRACES
 10
160.2761752083453
 20
-35.96355587670585
 30
-45.1453966171044
 11
160.254796417231
 21
-35.93665795100576
 31
-45.1453966171044
  0
LINE
  5
2BF
  8
PCB$TRACES
 10
160.254796417231
 20
-35.93665795100576
 30
-45.1453966171044
 11
160.2343605079214
 21
-35.90903685893526
 31
-45.1453966171044
  0
LINE
  5
2C0
  8
PCB$TRACES
 10
160.2343605079214
 20
-35.90903685893526
 30
-45.1453966171044
 11
160.2148919227431
 21
-35.88072563664383
 31
-45.1453966171044
  0
LINE
  5
2C1
  8
PCB$TRACES
 10
160.2148919227431
 20
-35.88072563664383
 30
-45.1453966171044
 11
160.1964139470568
 21
-35.85175814570977
 31
-45.1453966171044
  0
LINE
  5
2C2
  8
PCB$TRACES
 10
160.1964139470568
 20
-35.85175814570977
 30
-45.1453966171044
 11
160.1789486814068
 21
-35.82216903264008
 31
-45.1453966171044
  0
LINE
  5
2C3
  8
PCB$TRACES
 10
160.1789486814068
 20
-35.82216903264008
 30
-45.1453966171044
 11
160.1625170150874
 21
-35.79199368743165
 31
-45.1453966171044
  0
LINE
  5
2C4
  8
PCB$TRACES
 10
160.1625170150874
 20
-35.79199368743165
 30
-45.1453966171044
 11
160.147138601159
 21
-35.76126820124309
 31
-45.1453966171044
  0
LINE
  5
2C5
  8
PCB$TRACES
 10
160.147138601159
 20
-35.76126820124309
 30
-45.1453966171044
 11
160.1328318329413
 21
-35.73002932322798
 31
-45.1453966171044
  0
LINE
  5
2C6
  8
PCB$TRACES
 10
160.1328318329413
 20
-35.73002932322798
 30
-45.1453966171044
 11
160.1196138220146
 21
-35.69831441658112
 31
-45.1453966171044
  0
LINE
  5
2C7
  8
PCB$TRACES
 10
160.1196138220146
 20
-35.69831441658112
 30
-45.1453966171044
 11
160.1075003777532
 21
-35.66616141385035
 31
-45.1453966171044
  0
LINE
  5
2C8
  8
PCB$TRACES
 10
160.1075003777532
 20
-35.66616141385035
 30
-45.1453966171044
 11
160.0965059884169
 21
-35.63360877156743
 31
-45.1453966171044
  0
LINE
  5
2C9
  8
PCB$TRACES
 10
160.0965059884169
 20
-35.63360877156743
 30
-45.1453966171044
 11
160.0866438038221
 21
-35.60069542425217
 31
-45.1453966171044
  0
LINE
  5
2CA
  8
PCB$TRACES
 10
160.0866438038221
 20
-35.60069542425217
 30
-45.1453966171044
 11
160.0779256196139
 21
-35.56746073784486
 31
-45.1453966171044
  0
LINE
  5
2CB
  8
PCB$TRACES
 10
160.0779256196139
 20
-35.56746073784486
 30
-45.1453966171044
 11
160.0779256196139
 21
-33.63705687703717
 31
-45.1453966171044
  0
LINE
  5
2CC
  8
PCB$TRACES
 10
160.0779256196139
 20
-33.63705687703717
 30
-45.1453966171044
 11
160.0866807191792
 21
-33.60369080280478
 31
-45.1453966171044
  0
LINE
  5
2CD
  8
PCB$TRACES
 10
160.0866807191792
 20
-33.60369080280478
 30
-45.1453966171044
 11
160.0965888792955
 21
-33.570648783478
 31
-45.1453966171044
  0
LINE
  5
2CE
  8
PCB$TRACES
 10
160.0965888792955
 20
-33.570648783478
 30
-45.1453966171044
 11
160.1076381550137
 21
-33.53797065341854
 31
-45.1453966171044
  0
LINE
  5
2CF
  8
PCB$TRACES
 10
160.1076381550137
 20
-33.53797065341854
 30
-45.1453966171044
 11
160.1198152256939
 21
-33.50569580829529
 31
-45.1453966171044
  0
LINE
  5
2D0
  8
PCB$TRACES
 10
160.1198152256939
 20
-33.50569580829529
 30
-45.1453966171044
 11
160.1331054110639
 21
-33.47386315759017
 31
-45.14539661710441
  0
LINE
  5
2D1
  8
PCB$TRACES
 10
160.1331054110639
 20
-33.47386315759017
 30
-45.14539661710441
 11
160.1474926889172
 21
-33.44251107769025
 31
-45.14539661710441
  0
LINE
  5
2D2
  8
PCB$TRACES
 10
160.1474926889172
 20
-33.44251107769025
 30
-45.14539661710441
 11
160.1629597144294
 21
-33.41167736562232
 31
-45.1453966171044
  0
LINE
  5
2D3
  8
PCB$TRACES
 10
160.1629597144294
 20
-33.41167736562232
 30
-45.1453966171044
 11
160.1794878410678
 21
-33.38139919348619
 31
-45.14539661710441
  0
LINE
  5
2D4
  8
PCB$TRACES
 10
160.1794878410678
 20
-33.38139919348619
 30
-45.14539661710441
 11
160.1970571430716
 21
-33.35171306364111
 31
-45.14539661710441
  0
LINE
  5
2D5
  8
PCB$TRACES
 10
160.1970571430716
 20
-33.35171306364111
 30
-45.14539661710441
 11
160.2156464394736
 21
-33.32265476469983
 31
-45.14539661710441
  0
LINE
  5
2D6
  8
PCB$TRACES
 10
160.2156464394736
 20
-33.32265476469983
 30
-45.14539661710441
 11
160.235233319635
 21
-33.29425932838297
 31
-45.14539661710441
  0
LINE
  5
2D7
  8
PCB$TRACES
 10
160.235233319635
 20
-33.29425932838297
 30
-45.14539661710441
 11
160.2557941702632
 21
-33.26656098728602
 31
-45.14539661710441
  0
LINE
  5
2D8
  8
PCB$TRACES
 10
160.2557941702632
 20
-33.26656098728602
 30
-45.14539661710441
 11
160.2773042038794
 21
-33.23959313360957
 31
-45.14539661710441
  0
LINE
  5
2D9
  8
PCB$TRACES
 10
160.2773042038794
 20
-33.23959313360957
 30
-45.14539661710441
 11
160.2997374887008
 21
-33.21338827890285
 31
-45.14539661710441
  0
LINE
  5
2DA
  8
PCB$TRACES
 10
160.2997374887008
 20
-33.21338827890285
 30
-45.14539661710441
 11
160.3230669799041
 21
-33.18797801486885
 31
-45.14539661710441
  0
LINE
  5
2DB
  8
PCB$TRACES
 10
160.3230669799041
 20
-33.18797801486885
 30
-45.14539661710441
 11
160.3472645522289
 21
-33.16339297527841
 31
-45.14539661710441
  0
LINE
  5
2DC
  8
PCB$TRACES
 10
160.3472645522289
 20
-33.16339297527841
 30
-45.14539661710441
 11
160.3723010338855
 21
-33.13966279903917
 31
-45.1453966171044
  0
LINE
  5
2DD
  8
PCB$TRACES
 10
160.3723010338855
 20
-33.13966279903917
 30
-45.1453966171044
 11
160.3981462417223
 21
-33.11681609446394
 31
-45.14539661710441
  0
LINE
  5
2DE
  8
PCB$TRACES
 10
160.3981462417223
 20
-33.11681609446394
 30
-45.14539661710441
 11
160.424769017615
 21
-33.09488040478137
 31
-45.14539661710441
  0
LINE
  5
2DF
  8
PCB$TRACES
 10
160.424769017615
 20
-33.09488040478137
 30
-45.14539661710441
 11
160.4521372660285
 21
-33.07388217493079
 31
-45.1453966171044
  0
LINE
  5
2E0
  8
PCB$TRACES
 10
160.4521372660285
 20
-33.07388217493079
 30
-45.1453966171044
 11
160.4802179927111
 21
-33.05384671968111
 31
-45.1453966171044
  0
LINE
  5
2E1
  8
PCB$TRACES
 10
160.4802179927111
 20
-33.05384671968111
 30
-45.1453966171044
 11
160.5089773444706
 21
-33.03479819311212
 31
-45.1453966171044
  0
LINE
  5
2E2
  8
PCB$TRACES
 10
160.5089773444706
 20
-33.03479819311212
 30
-45.1453966171044
 11
160.5383806499874
 21
-33.01675955949514
 31
-45.1453966171044
  0
LINE
  5
2E3
  8
PCB$TRACES
 10
160.5383806499874
 20
-33.01675955949514
 30
-45.1453966171044
 11
160.5683924616123
 21
-32.99975256560808
 31
-45.1453966171044
  0
LINE
  5
2E4
  8
PCB$TRACES
 10
160.568392461612
 20
-32.99975256560808
 30
-45.14539661710438
 11
160.4804685542761
 21
-28.9552528281532
 31
-45.1453966171044
  0
LINE
  5
2E5
  8
PCB$TRACES
 10
160.4804685542761
 20
-28.9552528281532
 30
-45.1453966171044
 11
143.4582964603553
 21
-13.07636094949599
 31
-45.14539661710437
  0
LINE
  5
2E6
  8
PCB$TRACES
 10
143.4582964603553
 20
-13.07636094949599
 30
-45.14539661710437
 11
143.4582964603553
 21
4.121820440717535
 31
-45.14539661710437
  0
LINE
  5
2E7
  8
PCB$TRACES
 10
143.4582964603553
 20
4.121820440717535
 30
-45.14539661710437
 11
143.0483345604315
 21
4.121820440717535
 31
-45.14539661710437
  0
LINE
  5
2E8
  8
PCB$TRACES
 10
143.0483345604315
 20
4.121820440717535
 30
-45.14539661710437
 11
143.0483345604315
 21
5.260127031667174
 31
-45.14539661710437
  0
LINE
  5
2E9
  8
PCB$TRACES
 10
143.0483345604315
 20
5.260127031667174
 30
-45.14539661710437
 11
135.8392718223062
 21
12.58453477360278
 31
-45.14539661710442
  0
LINE
  5
2EA
  8
PCB$TRACES
 10
135.8392718223062
 20
12.58453477360278
 30
-45.14539661710442
 11
135.8392718223062
 21
24.12809915118979
 31
-45.14539661710442
  0
LINE
  5
2EB
  8
PCB$TRACES
 10
135.8392718223062
 20
24.12809915118979
 30
-45.14539661710442
 11
141.397903151589
 21
29.6868902908573
 31
-45.1453966171044
  0
LINE
  5
2EC
  8
PCB$TRACES
 10
141.397903151589
 20
29.6868902908573
 30
-45.1453966171044
 11
180.4830961672714
 21
29.6868902908573
 31
-45.14539661710437
  0
LINE
  5
2ED
  8
PCB$TRACES
 10
180.4830961672714
 20
29.6868902908573
 30
-45.14539661710437
 11
185.336302832631
 21
28.83686264872436
 31
-45.14539661710436
  0
ARC
  5
2EE
  8
PCB$TRACES
 10
-186.0621775881181
 20
28.26286692281035
 30
45.14539661710435
 40
0.9254000508002981
 50
38.33568320531082
 51
140.1859591784943
210
0.0
220
0.0
230
-1.0
  0
LINE
  5
2EF
  8
PCB$TRACES
 10
186.773002016243
 20
28.85539868263582
 30
-45.14539661710436
 11
190.9017512780441
 21
29.68582262318703
 31
-45.14539661710436
  0
LINE
  5
2F0
  8
PCB$TRACES
 10
190.9017512780441
 20
29.68582262318703
 30
-45.14539661710436
 11
245.125480062459
 21
29.68689389157422
 31
-45.1453966171043
  0
LINE
  5
2F1
  8
PCB$TRACES
 10
245.125480062459
 20
29.68689389157422
 30
-45.1453966171043
 11
257.3846883252859
 21
17.42763373769905
 31
-45.14539661710429
  0
LINE
  5
2F2
  8
PCB$TRACES
 10
257.3846883252859
 20
17.42763373769905
 30
-45.14539661710429
 11
257.3872563888014
 21
-15.93669881673126
 31
-45.14539661710429
  0
LINE
  5
2F3
  8
PCB$TRACES
 10
257.3872563888014
 20
-15.93669881673126
 30
-45.14539661710429
 11
245.5877102784999
 21
-27.73364819021979
 31
-45.1453966171043
  0
LINE
  5
2F4
  8
PCB$TRACES
 10
245.5877102784999
 20
-27.73364819021979
 30
-45.1453966171043
 11
241.2337286392172
 21
-27.73364819021962
 31
-45.1453966171043
  0
ARC
  5
2F5
  8
PCB$TRACES
 10
-186.0621775881181
 20
13.0228364427496
 30
45.14539661710436
 40
0.9000000000000001
 50
355.0866077415674
 51
296.5514525421835
210
0.0
220
0.0
230
-1.0
  0
LINE
  5
2F6
  8
PCB$TRACES
 10
185.6598764192841
 20
12.21775646563251
 30
-45.14539661710436
 11
183.7271318946423
 21
10.90523556441068
 31
-45.14539661710439
  0
LINE
  5
2F7
  8
PCB$TRACES
 10
183.7271318946423
 20
10.90523556441068
 30
-45.14539661710439
 11
182.1278010692511
 21
9.30582348872364
 31
-45.14539661710439
  0
LINE
  5
2F8
  8
PCB$TRACES
 10
182.1278010692511
 20
9.30582348872364
 30
-45.14539661710439
 11
153.8844860497948
 21
9.30582348872364
 31
-45.1453966171044
  0
LINE
  5
2F9
  8
PCB$TRACES
 10
153.8844860497948
 20
9.30582348872364
 30
-45.1453966171044
 11
149.8444060963073
 21
5.265786981394037
 31
-45.14539661710437
  0
ARC
  5
2FA
  8
PCB$TRACES
 10
-148.9781034199692
 20
5.021820440717512
 30
45.14539661710437
 40
0.9000000000000001
 50
164.2718178253494
 51
105.7366624790564
210
0.0
220
0.0
230
-1.0
  0
LINE
  5
2FB
  8
PCB$TRACES
 10
149.2221981787681
 20
5.888086998266012
 30
-45.14539661710437
 11
153.5199808866641
 21
10.18582348872363
 31
-45.1453966171044
  0
LINE
  5
2FC
  8
PCB$TRACES
 10
153.5199808866641
 20
10.18582348872363
 30
-45.1453966171044
 11
181.7632800404367
 21
10.18582348872363
 31
-45.14539661710437
  0
LINE
  5
2FD
  8
PCB$TRACES
 10
181.7632800404367
 20
10.18582348872363
 30
-45.14539661710437
 11
183.1637968147409
 21
11.58641141303659
 31
-45.14539661710437
  0
LINE
  5
2FE
  8
PCB$TRACES
 10
183.1637968147409
 20
11.58641141303659
 30
-45.14539661710437
 11
185.1654848147814
 21
12.94575161774649
 31
-45.14539661710436
  0
ARC
  5
2FF
  8
PCB$TRACES
 10
-186.0621775881181
 20
15.56284152275973
 30
45.14539661710436
 40
0.9000000000000001
 50
2.552630145089307
 51
304.0174749246144
210
0.0
220
0.0
230
-1.0
  0
LINE
  5
300
  8
PCB$TRACES
 10
185.5586764313443
 20
14.81686123808229
 30
-45.14539661710436
 11
183.5499560823916
 21
13.80585264143921
 31
-45.14539661710439
  0
LINE
  5
301
  8
PCB$TRACES
 10
183.5499560823916
 20
13.80585264143921
 30
-45.14539661710439
 11
152.1463004993379
 21
13.80472474061569
 31
-45.14539661710441
  0
LINE
  5
302
  8
PCB$TRACES
 10
152.1463004993379
 20
13.80472474061569
 30
-45.14539661710441
 11
144.1660135329198
 21
21.78501170703337
 31
-45.14539661710437
  0
ARC
  5
303
  8
PCB$TRACES
 10
-143.9119607058677
 20
22.67485574678854
 30
45.1453966171044
 40
0.9254000508003077
 50
254.0658156626893
 51
197.2816162855853
210
0.0
220
0.0
230
-1.0
  0
LINE
  5
304
  8
PCB$TRACES
 10
144.7955846494378
 20
22.39994852540381
 30
-45.14539661710437
 11
152.510795342379
 21
14.68473783246279
 31
-45.14539661710441
  0
LINE
  5
305
  8
PCB$TRACES
 10
152.510795342379
 20
14.68473783246279
 30
-45.14539661710441
 11
183.3409726269917
 21
14.68584513610953
 31
-45.14539661710439
  0
LINE
  5
306
  8
PCB$TRACES
 10
183.3409726269917
 20
14.68584513610953
 30
-45.14539661710439
 11
185.1630706287121
 21
15.60292488024911
 31
-45.14539661710436
  0
ARC
  5
307
  8
PCB$TRACES
 10
186.0621775881181
 20
20.64285168277993
 30
-45.14539661710437
 40
0.8999999999999735
 50
56.53067214244352
 51
357.9955111391619
  0
LINE
  5
308
  8
PCB$TRACES
 10
186.9616268688813
 20
20.61137166793626
 30
-45.14539661710436
 11
197.0521647028429
 21
25.80582054028995
 31
-45.14539661710433
  0
LINE
  5
309
  8
PCB$TRACES
 10
197.0521647028429
 20
25.80582054028995
 30
-45.14539661710433
 11
241.7637040975429
 21
25.804583926466
 31
-45.1453966171043
  0
LINE
  5
30A
  8
PCB$TRACES
 10
241.7637040975429
 20
25.804583926466
 30
-45.1453966171043
 11
249.1544395936124
 21
18.41477458145304
 31
-45.1453966171043
  0
LINE
  5
30B
  8
PCB$TRACES
 10
249.1544395936124
 20
18.41477458145304
 30
-45.1453966171043
 11
250.5945626528879
 21
17.30307256971268
 31
-45.1453966171043
  0
LINE
  5
30C
  8
PCB$TRACES
 10
250.5945626528879
 20
17.30307256971268
 30
-45.1453966171043
 11
250.5945626528879
 21
16.08697157101981
 31
-45.1453966171043
  0
LINE
  5
30D
  8
PCB$TRACES
 10
250.5945626528879
 20
16.08697157101981
 30
-45.1453966171043
 11
252.594562652888
 21
16.08697157101981
 31
-45.14539661710429
  0
LINE
  5
30E
  8
PCB$TRACES
 10
252.594562652888
 20
16.08697157101981
 30
-45.14539661710429
 11
252.594562652888
 21
18.08697157101981
 31
-45.14539661710429
  0
LINE
  5
30F
  8
PCB$TRACES
 10
252.594562652888
 20
18.08697157101981
 30
-45.14539661710429
 11
251.0191988664319
 21
18.08697157101975
 31
-45.14539661710429
  0
LINE
  5
310
  8
PCB$TRACES
 10
251.0191988664319
 20
18.08697157101975
 30
-45.14539661710429
 11
249.7367939163794
 21
19.0769231960957
 31
-45.14539661710429
  0
LINE
  5
311
  8
PCB$TRACES
 10
249.7367939163794
 20
19.0769231960957
 30
-45.14539661710429
 11
242.1281898137703
 21
26.6845738460028
 31
-45.1453966171043
  0
LINE
  5
312
  8
PCB$TRACES
 10
242.1281898137703
 20
26.6845738460028
 30
-45.1453966171043
 11
196.8389672069466
 21
26.68582643715732
 31
-45.14539661710433
  0
LINE
  5
313
  8
PCB$TRACES
 10
196.8389672069466
 20
26.68582643715732
 30
-45.14539661710433
 11
186.558519039947
 21
21.39361473674328
 31
-45.14539661710436
  0
ARC
  5
314
  8
PCB$TRACES
 10
186.062177588118
 20
2.862816122708885
 30
-45.14539661710432
 40
0.9254000508000624
 50
221.6531427792463
 51
164.8732250004016
  0
LINE
  5
315
  8
PCB$TRACES
 10
185.1688419193017
 20
3.104304500982359
 30
-45.14539661710436
 11
183.2127572883614
 21
2.643037405051793
 31
-45.14539661710437
  0
LINE
  5
316
  8
PCB$TRACES
 10
183.2127572883614
 20
2.643037405051793
 30
-45.14539661710437
 11
166.5040338979335
 21
-15.58668590501461
 31
-45.14539661710442
  0
LINE
  5
317
  8
PCB$TRACES
 10
166.5040338979335
 20
-15.58668590501461
 30
-45.14539661710442
 11
166.7450958079557
 21
-33.41925144142628
 31
-45.14539661710442
  0
LINE
  5
318
  8
PCB$TRACES
 10
166.7450958079557
 20
-33.41925144142628
 30
-45.14539661710442
 11
166.4016238670101
 21
-33.41925144142628
 31
-45.14539661710442
  0
LINE
  5
319
  8
PCB$TRACES
 10
166.4016238670101
 20
-33.41925144142628
 30
-45.14539661710442
 11
166.4016238670101
 21
-36.03926668145679
 31
-45.14539661710442
  0
LINE
  5
31A
  8
PCB$TRACES
 10
166.4016238670101
 20
-36.03926668145679
 30
-45.14539661710442
 11
168.0016238670103
 21
-36.03926668145679
 31
-45.14539661710442
  0
LINE
  5
31B
  8
PCB$TRACES
 10
168.0016238670103
 20
-36.03926668145679
 30
-45.14539661710442
 11
168.0016238670103
 21
-33.41925144142628
 31
-45.14539661710442
  0
LINE
  5
31C
  8
PCB$TRACES
 10
168.0016238670103
 20
-33.41925144142628
 30
-45.14539661710442
 11
167.6251762091254
 21
-33.41925144142628
 31
-45.14539661710442
  0
LINE
  5
31D
  8
PCB$TRACES
 10
167.6251762091254
 20
-33.41925144142628
 30
-45.14539661710442
 11
167.3886728150051
 21
-15.92390232200862
 31
-45.14539661710442
  0
LINE
  5
31E
  8
PCB$TRACES
 10
167.3886728150051
 20
-15.92390232200862
 30
-45.14539661710442
 11
183.6784254215299
 21
1.848711172598634
 31
-45.14539661710439
  0
LINE
  5
31F
  8
PCB$TRACES
 10
183.6784254215299
 20
1.848711172598634
 30
-45.14539661710439
 11
185.3707353584284
 21
2.247777183272866
 31
-45.14539661710436
  0
ARC
  5
320
  8
PCB$TRACES
 10
-186.0621775881181
 20
5.402821202719089
 30
45.14539661710436
 40
0.9000000000000001
 50
254.2497664492821
 51
195.7146084143232
210
0.0
220
0.0
230
-1.0
  0
LINE
  5
321
  8
PCB$TRACES
 10
186.9285380374798
 20
5.159059901890238
 30
-45.14539661710436
 11
188.3845499528628
 21
3.703087284544303
 31
-45.14539661710436
  0
LINE
  5
322
  8
PCB$TRACES
 10
188.3845499528628
 20
3.703087284544303
 30
-45.14539661710436
 11
188.3845499528628
 21
-8.436913439364993
 31
-45.14539661710436
  0
LINE
  5
323
  8
PCB$TRACES
 10
188.3845499528628
 20
-8.436913439364993
 30
-45.14539661710436
 11
170.1828481494588
 21
-26.63856444266688
 31
-45.14539661710442
  0
LINE
  5
324
  8
PCB$TRACES
 10
170.1828481494588
 20
-26.63856444266688
 30
-45.14539661710442
 11
170.1828481494588
 21
-33.37765861630525
 31
-45.14539661710442
  0
LINE
  5
325
  8
PCB$TRACES
 10
170.1828481494588
 20
-33.37765861630525
 30
-45.14539661710442
 11
170.5571404885768
 21
-33.37765861630525
 31
-45.14539661710442
  0
LINE
  5
326
  8
PCB$TRACES
 10
170.5571404885768
 20
-33.37765861630525
 30
-45.14539661710442
 11
170.5571404885768
 21
-36.08085950657782
 31
-45.14539661710442
  0
LINE
  5
327
  8
PCB$TRACES
 10
170.5571404885768
 20
-36.08085950657782
 30
-45.14539661710442
 11
168.9261174054639
 21
-36.08085950657782
 31
-45.14539661710442
  0
LINE
  5
328
  8
PCB$TRACES
 10
168.9261174054639
 20
-36.08085950657782
 30
-45.14539661710442
 11
168.9261174054639
 21
-33.37765861630525
 31
-45.14539661710442
  0
LINE
  5
329
  8
PCB$TRACES
 10
168.9261174054639
 20
-33.37765861630525
 30
-45.14539661710442
 11
169.3028481494588
 21
-33.37765861630525
 31
-45.14539661710442
  0
LINE
  5
32A
  8
PCB$TRACES
 10
169.3028481494588
 20
-33.37765861630525
 30
-45.14539661710442
 11
169.3028481494588
 21
-26.27405578842016
 31
-45.14539661710442
  0
LINE
  5
32B
  8
PCB$TRACES
 10
169.3028481494588
 20
-26.27405578842016
 30
-45.14539661710442
 11
187.5045499528628
 21
-8.072404785118273
 31
-45.14539661710436
  0
LINE
  5
32C
  8
PCB$TRACES
 10
187.5045499528628
 20
-8.072404785118273
 30
-45.14539661710436
 11
187.5045499528628
 21
3.338572392928462
 31
-45.14539661710436
  0
LINE
  5
32D
  8
PCB$TRACES
 10
187.5045499528628
 20
3.338572392928462
 30
-45.14539661710436
 11
186.3064775238638
 21
4.536612485726074
 31
-45.14539661710436
  0
ARC
  5
32E
  8
PCB$TRACES
 10
-186.0621775881182
 20
7.94282628272938
 30
45.14539661710436
 40
0.9000000000000993
 50
254.2512846226069
 51
195.7161265875965
210
0.0
220
0.0
230
-1.0
  0
LINE
  5
32F
  8
PCB$TRACES
 10
186.9285315782027
 20
7.699042025927248
 30
-45.14539661710436
 11
191.3855659548948
 21
3.241891732169144
 31
-45.14539661710436
  0
LINE
  5
330
  8
PCB$TRACES
 10
191.3855659548948
 20
3.241891732169144
 30
-45.14539661710436
 11
191.3855659548948
 21
-8.435293233844597
 31
-45.14539661710436
  0
LINE
  5
331
  8
PCB$TRACES
 10
191.3855659548948
 20
-8.435293233844597
 30
-45.14539661710436
 11
172.7228532294691
 21
-27.10085076495958
 31
-45.1453966171044
  0
LINE
  5
332
  8
PCB$TRACES
 10
172.7228532294691
 20
-27.10085076495958
 30
-45.1453966171044
 11
172.7228532294691
 21
-33.41925144142628
 31
-45.1453966171044
  0
LINE
  5
333
  8
PCB$TRACES
 10
172.7228532294691
 20
-33.41925144142628
 30
-45.1453966171044
 11
173.0816340270305
 21
-33.41925144142628
 31
-45.14539661710442
  0
LINE
  5
334
  8
PCB$TRACES
 10
173.0816340270305
 20
-33.41925144142628
 30
-45.14539661710442
 11
173.0816340270305
 21
-36.03926668145679
 31
-45.14539661710442
  0
LINE
  5
335
  8
PCB$TRACES
 10
173.0816340270305
 20
-36.03926668145679
 30
-45.14539661710442
 11
171.4816340270304
 21
-36.03926668145679
 31
-45.14539661710442
  0
LINE
  5
336
  8
PCB$TRACES
 10
171.4816340270304
 20
-36.03926668145679
 30
-45.14539661710442
 11
171.4816340270304
 21
-33.41925144142628
 31
-45.14539661710442
  0
LINE
  5
337
  8
PCB$TRACES
 10
171.4816340270304
 20
-33.41925144142628
 30
-45.14539661710442
 11
171.8428532294691
 21
-33.41925144142628
 31
-45.14539661710442
  0
LINE
  5
338
  8
PCB$TRACES
 10
171.8428532294691
 20
-33.41925144142628
 30
-45.14539661710442
 11
171.8428532294691
 21
-26.73638211535295
 31
-45.14539661710442
  0
LINE
  5
339
  8
PCB$TRACES
 10
171.8428532294691
 20
-26.73638211535295
 30
-45.14539661710442
 11
190.5055659548948
 21
-8.070824584237961
 31
-45.14539661710436
  0
LINE
  5
33A
  8
PCB$TRACES
 10
190.5055659548948
 20
-8.070824584237961
 30
-45.14539661710436
 11
190.5055659548948
 21
2.877390500548564
 31
-45.14539661710436
  0
LINE
  5
33B
  8
PCB$TRACES
 10
190.5055659548948
 20
2.877390500548564
 30
-45.14539661710436
 11
186.3064545717392
 21
7.076611092794828
 31
-45.14539661710436
  0
ARC
  5
33C
  8
PCB$TRACES
 10
186.0621775881181
 20
10.48283136273943
 30
-45.14539661710434
 40
0.9000000000001152
 50
344.2846184163539
 51
285.7494603813833
  0
LINE
  5
33D
  8
PCB$TRACES
 10
186.3064658349174
 20
9.61661934915626
 30
-45.14539661710436
 11
193.505565954895
 21
2.417519229178801
 31
-45.14539661710436
  0
LINE
  5
33E
  8
PCB$TRACES
 10
193.505565954895
 20
2.417519229178801
 30
-45.14539661710436
 11
193.505565954895
 21
-9.571973343933884
 31
-45.14539661710436
  0
LINE
  5
33F
  8
PCB$TRACES
 10
193.505565954895
 20
-9.571973343933884
 30
-45.14539661710436
 11
174.3828583094793
 21
-28.69468098934917
 31
-45.14539661710437
  0
LINE
  5
340
  8
PCB$TRACES
 10
174.3828583094793
 20
-28.69468098934917
 30
-45.14539661710437
 11
174.3828583094793
 21
-33.41925144142628
 31
-45.14539661710437
  0
LINE
  5
341
  8
PCB$TRACES
 10
174.3828583094793
 20
-33.41925144142628
 30
-45.14539661710437
 11
174.0216391070408
 21
-33.41925144142628
 31
-45.14539661710437
  0
LINE
  5
342
  8
PCB$TRACES
 10
174.0216391070408
 20
-33.41925144142628
 30
-45.14539661710437
 11
174.0216391070408
 21
-36.03926668145679
 31
-45.14539661710437
  0
LINE
  5
343
  8
PCB$TRACES
 10
174.0216391070408
 20
-36.03926668145679
 30
-45.14539661710437
 11
175.6216391070407
 21
-36.03926668145679
 31
-45.14539661710437
  0
LINE
  5
344
  8
PCB$TRACES
 10
175.6216391070407
 20
-36.03926668145679
 30
-45.14539661710437
 11
175.6216391070407
 21
-33.41925144142628
 31
-45.14539661710437
  0
LINE
  5
345
  8
PCB$TRACES
 10
175.6216391070407
 20
-33.41925144142628
 30
-45.14539661710437
 11
175.2628583094793
 21
-33.41925144142628
 31
-45.14539661710437
  0
LINE
  5
346
  8
PCB$TRACES
 10
175.2628583094793
 20
-33.41925144142628
 30
-45.14539661710437
 11
175.2628583094793
 21
-29.05918892423754
 31
-45.14539661710437
  0
LINE
  5
347
  8
PCB$TRACES
 10
175.2628583094793
 20
-29.05918892423754
 30
-45.14539661710437
 11
194.385565954895
 21
-9.93648127882225
 31
-45.14539661710435
  0
LINE
  5
348
  8
PCB$TRACES
 10
194.385565954895
 20
-9.93648127882225
 30
-45.14539661710435
 11
194.385565954895
 21
2.782027164067166
 31
-45.14539661710435
  0
LINE
  5
349
  8
PCB$TRACES
 10
194.385565954895
 20
2.782027164067166
 30
-45.14539661710435
 11
186.9285347480005
 21
10.23905837096121
 31
-45.14539661710436
  0
ARC
  5
34A
  8
PCB$TRACES
 10
-201.3022080681792
 20
5.40282120271894
 30
45.14539661710432
 40
0.8999999999999718
 50
344.2575941725453
 51
285.7224379022231
210
0.0
220
0.0
230
-1.0
  0
LINE
  5
34B
  8
PCB$TRACES
 10
201.0583283811745
 20
4.536494071511392
 30
-45.14539661710435
 11
197.3847023531674
 21
0.8629322669871513
 31
-45.14539661710433
  0
LINE
  5
34C
  8
PCB$TRACES
 10
197.3847023531674
 20
0.8629322669871513
 30
-45.14539661710433
 11
197.3847023531674
 21
-11.43578557339502
 31
-45.14539661710433
  0
LINE
  5
34D
  8
PCB$TRACES
 10
197.3847023531674
 20
-11.43578557339502
 30
-45.14539661710433
 11
177.8818350852786
 21
-30.94015173101625
 31
-45.14539661710437
  0
LINE
  5
34E
  8
PCB$TRACES
 10
177.8818350852786
 20
-30.94015173101625
 30
-45.14539661710437
 11
177.8308619051151
 21
-33.41925144142628
 31
-45.14539661710437
  0
LINE
  5
34F
  8
PCB$TRACES
 10
177.8308619051151
 20
-33.41925144142628
 30
-45.14539661710437
 11
178.161644187051
 21
-33.41925144142628
 31
-45.14539661710437
  0
LINE
  5
350
  8
PCB$TRACES
 10
178.161644187051
 20
-33.41925144142628
 30
-45.14539661710437
 11
178.161644187051
 21
-36.03926668145679
 31
-45.14539661710437
  0
LINE
  5
351
  8
PCB$TRACES
 10
178.161644187051
 20
-36.03926668145679
 30
-45.14539661710437
 11
176.5616441870509
 21
-36.03926668145679
 31
-45.14539661710437
  0
LINE
  5
352
  8
PCB$TRACES
 10
176.5616441870509
 20
-36.03926668145679
 30
-45.14539661710437
 11
176.5616441870509
 21
-33.41925144142628
 31
-45.14539661710437
  0
LINE
  5
353
  8
PCB$TRACES
 10
176.5616441870509
 20
-33.41925144142628
 30
-45.14539661710437
 11
176.9506759096938
 21
-33.41925144142628
 31
-45.14539661710437
  0
LINE
  5
354
  8
PCB$TRACES
 10
176.9506759096938
 20
-33.41925144142628
 30
-45.14539661710437
 11
177.0092968245103
 21
-30.5682012915365
 31
-45.14539661710437
  0
LINE
  5
355
  8
PCB$TRACES
 10
177.0092968245103
 20
-30.5682012915365
 30
-45.14539661710437
 11
196.5047023531674
 21
-11.07129744661777
 31
-45.14539661710433
  0
LINE
  5
356
  8
PCB$TRACES
 10
196.5047023531674
 20
-11.07129744661777
 30
-45.14539661710433
 11
196.5047023531674
 21
1.227444707920064
 31
-45.14539661710433
  0
LINE
  5
357
  8
PCB$TRACES
 10
196.5047023531674
 20
1.227444707920064
 30
-45.14539661710433
 11
200.4359659831243
 21
5.158639610292575
 31
-45.14539661710435
  0
ARC
  5
358
  8
PCB$TRACES
 10
201.3022080681791
 20
15.56284152275973
 30
-45.14539661710435
 40
0.9000000000000001
 50
6.545871741794829
 51
308.0107145523346
  0
LINE
  5
359
  8
PCB$TRACES
 10
201.8564360114829
 20
14.85373547507627
 30
-45.14539661710435
 11
204.2019573120942
 21
13.87085126122364
 31
-45.14539661710435
  0
LINE
  5
35A
  8
PCB$TRACES
 10
204.2019573120942
 20
13.87085126122364
 30
-45.14539661710435
 11
228.046661194143
 21
-8.580607413372867
 31
-45.14539661710431
  0
LINE
  5
35B
  8
PCB$TRACES
 10
228.046661194143
 20
-8.580607413372867
 30
-45.14539661710431
 11
228.0404711513338
 21
-9.454522127053316
 31
-45.14539661710431
  0
LINE
  5
35C
  8
PCB$TRACES
 10
228.0404711513338
 20
-9.454522127053316
 30
-45.14539661710431
 11
228.0404656246939
 21
-12.97084720028037
 31
-45.14539661710431
  0
LINE
  5
35D
  8
PCB$TRACES
 10
228.0404656246939
 20
-12.97084720028037
 30
-45.14539661710431
 11
237.7241193617913
 21
-22.6545270319775
 31
-45.14539661710435
  0
LINE
  5
35E
  8
PCB$TRACES
 10
237.7241193617913
 20
-22.6545270319775
 30
-45.14539661710435
 11
239.2848154850063
 21
-22.6545270319775
 31
-45.1453966171043
  0
LINE
  5
35F
  8
PCB$TRACES
 10
239.2848154850063
 20
-22.6545270319775
 30
-45.1453966171043
 11
239.2848154850063
 21
-23.26494613281572
 31
-45.1453966171043
  0
LINE
  5
360
  8
PCB$TRACES
 10
239.2848154850063
 20
-23.26494613281572
 30
-45.1453966171043
 11
241.3864156882069
 21
-23.26494613281572
 31
-45.14539661710432
  0
LINE
  5
361
  8
PCB$TRACES
 10
241.3864156882069
 20
-23.26494613281572
 30
-45.14539661710432
 11
241.3864156882069
 21
-21.16334592961531
 31
-45.14539661710432
  0
LINE
  5
362
  8
PCB$TRACES
 10
241.3864156882069
 20
-21.16334592961531
 30
-45.14539661710432
 11
239.2848154850063
 21
-21.16334592961531
 31
-45.1453966171043
  0
LINE
  5
363
  8
PCB$TRACES
 10
239.2848154850063
 20
-21.16334592961531
 30
-45.1453966171043
 11
239.2848154850063
 21
-21.77452703197751
 31
-45.1453966171043
  0
LINE
  5
364
  8
PCB$TRACES
 10
239.2848154850063
 20
-21.77452703197751
 30
-45.1453966171043
 11
238.0886279912286
 21
-21.77452703197751
 31
-45.14539661710432
  0
LINE
  5
365
  8
PCB$TRACES
 10
238.0886279912286
 20
-21.77452703197751
 30
-45.14539661710432
 11
228.9204653223025
 21
-12.60633965754838
 31
-45.1453966171043
  0
LINE
  5
366
  8
PCB$TRACES
 10
228.9204653223025
 20
-12.60633965754838
 30
-45.1453966171043
 11
228.920460098054
 21
-9.45764090311966
 31
-45.1453966171043
  0
LINE
  5
367
  8
PCB$TRACES
 10
228.920460098054
 20
-9.45764090311966
 30
-45.1453966171043
 11
228.9279983865017
 21
-8.394938162628456
 31
-45.1453966171043
  0
LINE
  5
368
  8
PCB$TRACES
 10
228.9279983865017
 20
-8.394938162628456
 30
-45.1453966171043
 11
228.9293592529463
 21
-8.20303225983762
 31
-45.1453966171043
  0
LINE
  5
369
  8
PCB$TRACES
 10
228.9293592529463
 20
-8.20303225983762
 30
-45.1453966171043
 11
228.7896367560221
 21
-8.07147431933371
 31
-45.1453966171043
  0
LINE
  5
36A
  8
PCB$TRACES
 10
228.7896367560221
 20
-8.07147431933371
 30
-45.1453966171043
 11
204.6891237975937
 21
14.62084651632515
 31
-45.14539661710433
  0
LINE
  5
36B
  8
PCB$TRACES
 10
204.6891237975937
 20
14.62084651632515
 30
-45.14539661710433
 11
202.1963408829484
 21
15.66544030224723
 31
-45.14539661710435
  0
CIRCLE
  5
36C
  8
PCB$TRACES
 10
-143.911960705867
 20
22.67485574678816
 30
45.14539661710437
 40
0.4572009144018289
210
0.0
220
0.0
230
-1.0
  0
CIRCLE
  5
36D
  8
PCB$TRACES
 10
-148.9783574204771
 20
22.67498698038387
 30
45.14539661710437
 40
0.4572009144018289
210
0.0
220
0.0
230
-1.0
  0
CIRCLE
  5
36E
  8
PCB$TRACES
 10
-146.4380983399591
 20
22.67485574678816
 30
45.14539661710437
 40
0.4572009144018289
210
0.0
220
0.0
230
-1.0
  0
CIRCLE
  5
36F
  8
PCB$TRACES
 10
-186.0621775881181
 20
28.26286692281051
 30
45.14539661710436
 40
0.4572009144018289
210
0.0
220
0.0
230
-1.0
  0
CIRCLE
  5
370
  8
PCB$TRACES
 10
-186.0621775881181
 20
23.18285676279019
 30
45.14539661710436
 40
0.4572009144018289
210
0.0
220
0.0
230
-1.0
  0
ARC
  5
371
  8
PCB$TRACES
 10
-163.5833866305356
 20
-34.62712545717435
 30
45.14539661710437
 40
0.5
 50
180.0
 51
0.0
210
0.0
220
0.0
230
-1.0
  0
LINE
  5
372
  8
PCB$TRACES
 10
163.0833866305356
 20
-34.62712545717435
 30
-45.14539661710438
 11
163.0833866305356
 21
-34.57713815719971
 31
-45.14539661710438
  0
ARC
  5
373
  8
PCB$TRACES
 10
-163.5833866305356
 20
-34.57713815719971
 30
45.14539661710437
 40
0.5
 50
0.0
 51
180.0
210
0.0
220
0.0
230
-1.0
  0
LINE
  5
374
  8
PCB$TRACES
 10
164.0833866305356
 20
-34.57713815719971
 30
-45.14539661710437
 11
164.0833866305356
 21
-34.62712545717435
 31
-45.14539661710437
  0
ARC
  5
375
  8
PCB$TRACES
 10
-161.0433815505255
 20
-34.62712545717435
 30
45.1453966171044
 40
0.5
 50
180.0
 51
0.0
210
0.0
220
0.0
230
-1.0
  0
LINE
  5
376
  8
PCB$TRACES
 10
160.5433815505255
 20
-34.62712545717435
 30
-45.1453966171044
 11
160.5433815505255
 21
-34.57713815719971
 31
-45.1453966171044
  0
ARC
  5
377
  8
PCB$TRACES
 10
-161.0433815505255
 20
-34.57713815719971
 30
45.1453966171044
 40
0.5
 50
0.0
 51
180.0
210
0.0
220
0.0
230
-1.0
  0
LINE
  5
378
  8
PCB$TRACES
 10
161.5433815505255
 20
-34.57713815719971
 30
-45.1453966171044
 11
161.5433815505255
 21
-34.62712545717435
 31
-45.1453966171044
  0
CIRCLE
  5
379
  8
PCB$TRACES
 10
-167.2016238670103
 20
-34.72913206118759
 30
45.14539661710442
 40
0.5003810007620015
210
0.0
220
0.0
230
-1.0
  0
CIRCLE
  5
37A
  8
PCB$TRACES
 10
-169.7416289470204
 20
-34.72913206118759
 30
45.14539661710442
 40
0.5003810007620015
210
0.0
220
0.0
230
-1.0
  0
CIRCLE
  5
37B
  8
PCB$TRACES
 10
-172.2816340270306
 20
-34.72913206118759
 30
45.14539661710442
 40
0.5003810007620015
210
0.0
220
0.0
230
-1.0
  0
CIRCLE
  5
37C
  8
PCB$TRACES
 10
-174.8216391070407
 20
-34.72913206118759
 30
45.14539661710437
 40
0.5003810007620015
210
0.0
220
0.0
230
-1.0
  0
CIRCLE
  5
37D
  8
PCB$TRACES
 10
-177.3616441870511
 20
-34.72913206118759
 30
45.14539661710437
 40
0.5003810007620015
210
0.0
220
0.0
230
-1.0
  0
CIRCLE
  5
37E
  8
PCB$TRACES
 10
-233.8145270928168
 20
12.00696141099943
 30
45.14539661710435
 40
0.5
210
0.0
220
0.0
230
-1.0
  0
CIRCLE
  5
37F
  8
PCB$TRACES
 10
-251.594562652888
 20
17.0869715710197
 30
45.14539661710429
 40
0.5
210
0.0
220
0.0
230
-1.0
  0
CIRCLE
  5
380
  8
PCB$TRACES
 10
-143.8983472604567
 20
5.021947440971509
 30
45.14539661710437
 40
0.4572009144018289
210
0.0
220
0.0
230
-1.0
  0
CIRCLE
  5
381
  8
PCB$TRACES
 10
-222.5555735749098
 20
-27.29415619123578
 30
45.14539661710432
 40
0.5
210
0.0
220
0.0
230
-1.0
  0
CIRCLE
  5
382
  8
PCB$TRACES
 10
-240.3356091349809
 20
-22.2141460312154
 30
45.14539661710432
 40
0.5
210
0.0
220
0.0
230
-1.0
  0
CIRCLE
  5
383
  8
PCB$TRACES
 10
-233.8145270928168
 20
14.54683949075568
 30
45.14539661710435
 40
1.0
210
0.0
220
0.0
230
-1.0
  0
CIRCLE
  5
384
  8
PCB$TRACES
 10
-233.8145270928168
 20
14.54696649100956
 30
45.14539661710435
 40
0.5
210
0.0
220
0.0
230
-1.0
  0
CIRCLE
  5
385
  8
PCB$TRACES
 10
-233.8145270928168
 20
17.08684457076581
 30
45.14539661710435
 40
1.0
210
0.0
220
0.0
230
-1.0
  0
CIRCLE
  5
386
  8
PCB$TRACES
 10
-233.8145270928168
 20
17.0869715710197
 30
45.14539661710435
 40
0.5
210
0.0
220
0.0
230
-1.0
  0
CIRCLE
  5
387
  8
PCB$TRACES
 10
-251.594562652888
 20
12.00696141099943
 30
45.14539661710429
 40
0.5
210
0.0
220
0.0
230
-1.0
  0
CIRCLE
  5
388
  8
PCB$TRACES
 10
-251.594562652888
 20
14.54696649100956
 30
45.14539661710429
 40
0.5
210
0.0
220
0.0
230
-1.0
  0
CIRCLE
  5
389
  8
PCB$TRACES
 10
-146.4383523404671
 20
5.021947440971509
 30
45.14539661710437
 40
0.4572009144018289
210
0.0
220
0.0
230
-1.0
  0
CIRCLE
  5
38A
  8
PCB$TRACES
 10
-148.9783574204772
 20
5.021947440971509
 30
45.14539661710437
 40
0.4572009144018289
210
0.0
220
0.0
230
-1.0
  0
CIRCLE
  5
38B
  8
PCB$TRACES
 10
-222.5554465746558
 20
-24.75415111122553
 30
45.14539661710432
 40
1.0
210
0.0
220
0.0
230
-1.0
  0
CIRCLE
  5
38C
  8
PCB$TRACES
 10
-222.5555735749098
 20
-24.75415111122553
 30
45.14539661710432
 40
0.5
210
0.0
220
0.0
230
-1.0
  0
CIRCLE
  5
38D
  8
PCB$TRACES
 10
-222.5555735749098
 20
-22.2141460312154
 30
45.14539661710432
 40
0.5
210
0.0
220
0.0
230
-1.0
  0
CIRCLE
  5
38E
  8
PCB$TRACES
 10
-240.3356091349809
 20
-27.29415619123578
 30
45.14539661710432
 40
0.5
210
0.0
220
0.0
230
-1.0
  0
CIRCLE
  5
38F
  8
PCB$TRACES
 10
-240.3356091349809
 20
-24.75415111122553
 30
45.14539661710432
 40
0.5
210
0.0
220
0.0
230
-1.0
  0
CIRCLE
  5
390
  8
PCB$TRACES
 10
-186.0624315886259
 20
20.64297868303399
 30
45.14539661710436
 40
0.4572009144018289
210
0.0
220
0.0
230
-1.0
  0
CIRCLE
  5
391
  8
PCB$TRACES
 10
-186.0624315886259
 20
18.10297360302375
 30
45.14539661710436
 40
0.4572009144018289
210
0.0
220
0.0
230
-1.0
  0
CIRCLE
  5
392
  8
PCB$TRACES
 10
-186.0624315886259
 20
15.56296852301362
 30
45.14539661710436
 40
0.4572009144018289
210
0.0
220
0.0
230
-1.0
  0
CIRCLE
  5
393
  8
PCB$TRACES
 10
-186.0624315886259
 20
13.02296344300348
 30
45.14539661710436
 40
0.4572009144018289
210
0.0
220
0.0
230
-1.0
  0
CIRCLE
  5
394
  8
PCB$TRACES
 10
-186.0624315886259
 20
10.48295836299335
 30
45.14539661710436
 40
0.4572009144018289
210
0.0
220
0.0
230
-1.0
  0
CIRCLE
  5
395
  8
PCB$TRACES
 10
-186.0624315886259
 20
7.942953282983105
 30
45.14539661710436
 40
0.4572009144018289
210
0.0
220
0.0
230
-1.0
  0
CIRCLE
  5
396
  8
PCB$TRACES
 10
-186.0624315886259
 20
5.402948202972972
 30
45.14539661710436
 40
0.4572009144018289
210
0.0
220
0.0
230
-1.0
  0
CIRCLE
  5
397
  8
PCB$TRACES
 10
-186.0624315886259
 20
2.862943122962839
 30
45.14539661710436
 40
0.4572009144018289
210
0.0
220
0.0
230
-1.0
  0
CIRCLE
  5
398
  8
PCB$TRACES
 10
-201.3024620686869
 20
5.402948202972972
 30
45.14539661710435
 40
0.4572009144018289
210
0.0
220
0.0
230
-1.0
  0
CIRCLE
  5
399
  8
PCB$TRACES
 10
-201.3024620686869
 20
10.48295836299335
 30
45.14539661710435
 40
0.4572009144018289
210
0.0
220
0.0
230
-1.0
  0
CIRCLE
  5
39A
  8
PCB$TRACES
 10
-201.3024620686869
 20
15.56296852301362
 30
45.14539661710435
 40
0.4572009144018289
210
0.0
220
0.0
230
-1.0
  0
CIRCLE
  5
39B
  8
PCB$TRACES
 10
-201.3024620686869
 20
23.18298376304413
 30
45.14539661710435
 40
0.4572009144018289
210
0.0
220
0.0
230
-1.0
  0
LINE
  5
39C
  8
PCB$TRACES
 10
234.8653271944171
 20
13.05776796422558
 30
-45.14539661710435
 11
232.7637269912167
 21
13.05776796422558
 31
-45.14539661710435
  0
LINE
  5
39D
  8
PCB$TRACES
 10
232.7637269912167
 20
13.05776796422558
 30
-45.14539661710435
 11
232.7637269912167
 21
10.95616776102506
 31
-45.14539661710435
  0
LINE
  5
39E
  8
PCB$TRACES
 10
232.7637269912167
 20
10.95616776102506
 30
-45.14539661710435
 11
234.8653271944171
 21
10.95616776102506
 31
-45.14539661710435
  0
LINE
  5
39F
  8
PCB$TRACES
 10
234.8653271944171
 20
10.95616776102506
 30
-45.14539661710435
 11
234.8653271944171
 21
13.05776796422558
 31
-45.14539661710435
  0
LINE
  5
3A0
  8
PCB$TRACES
 10
149.7657589952804
 20
23.46238855518707
 30
-45.14539661710437
 11
148.1909558456738
 21
23.46238855518707
 31
-45.14539661710437
  0
LINE
  5
3A1
  8
PCB$TRACES
 10
148.1909558456738
 20
23.46238855518707
 30
-45.14539661710437
 11
148.1909558456738
 21
21.88758540558067
 31
-45.14539661710437
  0
LINE
  5
3A2
  8
PCB$TRACES
 10
148.1909558456738
 20
21.88758540558067
 30
-45.14539661710437
 11
149.7657589952804
 21
21.88758540558067
 31
-45.14539661710437
  0
LINE
  5
3A3
  8
PCB$TRACES
 10
149.7657589952804
 20
21.88758540558067
 30
-45.14539661710437
 11
149.7657589952804
 21
23.46238855518707
 31
-45.14539661710437
  0
LINE
  5
3A4
  8
PCB$TRACES
 10
223.6063801281358
 20
-26.24335608963558
 30
-45.14539661710432
 11
221.5047799249352
 21
-26.24335608963558
 31
-45.14539661710432
  0
LINE
  5
3A5
  8
PCB$TRACES
 10
221.5047799249352
 20
-26.24335608963558
 30
-45.14539661710432
 11
221.5047799249352
 21
-28.34495629283598
 31
-45.14539661710432
  0
LINE
  5
3A6
  8
PCB$TRACES
 10
221.5047799249352
 20
-28.34495629283598
 30
-45.14539661710432
 11
223.6063801281358
 21
-28.34495629283598
 31
-45.14539661710432
  0
LINE
  5
3A7
  8
PCB$TRACES
 10
223.6063801281358
 20
-28.34495629283598
 30
-45.14539661710432
 11
223.6063801281358
 21
-26.24335608963558
 31
-45.14539661710432
  0
CIRCLE
  5
3A8
  8
PCB$TRACES
 10
-222.5554465746557
 20
-22.2141460312154
 30
45.14539661710433
 40
1.000000000000057
210
0.0
220
0.0
230
-1.0
  0
ENDSEC
  0
EOF
